<svg width="20" height="20" viewBox="0 0 20 20" fill="none" xmlns="http://www.w3.org/2000/svg">
<path d="M14.9817 13.1067C14.8942 13.1942 14.7833 13.235 14.6725 13.235C14.5617 13.235 14.4508 13.1942 14.3633 13.1067L11.4758 10.2192L11.785 9.91L12.0942 9.60083L14.9817 12.4883C15.1508 12.6575 15.1508 12.9375 14.9817 13.1067Z" fill="white"/>
<path d="M6.77413 7.4133L10.1575 10.7966C10.385 11.0241 10.385 11.3916 10.1575 11.6191L9.63246 12.15C9.15996 12.6166 8.41329 12.6166 7.94663 12.15L5.41496 9.6183C4.95413 9.15747 4.95413 8.40497 5.41496 7.9383L5.94579 7.40747C6.17329 7.1858 6.54663 7.1858 6.77413 7.4133Z" fill="white"/>
<path d="M13.8442 7.94411L11.6217 10.1608C11.3883 10.3941 11.015 10.3941 10.7817 10.1608L7.40999 6.78911C7.17665 6.55577 7.17665 6.18244 7.40999 5.94911L9.63249 3.72661C10.0933 3.26577 10.8458 3.26577 11.3125 3.72661L13.8442 6.25827C14.305 6.72494 14.305 7.47161 13.8442 7.94411Z" fill="white"/>
<path d="M7.66663 14.6875H4.16663C3.92746 14.6875 3.72913 14.4892 3.72913 14.25C3.72913 14.0108 3.92746 13.8125 4.16663 13.8125H7.66663C7.90579 13.8125 8.10413 14.0108 8.10413 14.25C8.10413 14.4892 7.90579 14.6875 7.66663 14.6875Z" fill="white"/>
</svg>
