<svg width="24" height="24" viewBox="0 0 24 24" fill="none" xmlns="http://www.w3.org/2000/svg">
<path d="M12.4925 20.724C12.7535 20.724 12.9742 20.6233 13.1452 20.4527L21.1107 12.678C21.3014 12.4873 21.4021 12.2563 21.4021 12.0052C21.4021 11.7437 21.2915 11.4926 21.1008 11.3323L13.1452 3.54687C13.0603 3.45997 12.9586 3.39116 12.8464 3.34461C12.7341 3.29806 12.6136 3.27473 12.4921 3.27601C11.9701 3.27601 11.5784 3.67758 11.5784 4.20001C11.5784 4.44087 11.6787 4.68216 11.8398 4.85273L19.1521 12.0047L11.8394 19.1563C11.6787 19.3273 11.5779 19.5583 11.5779 19.8094C11.5779 20.3314 11.9701 20.7236 12.4921 20.7236M3.52209 20.7236C3.77324 20.7236 4.00424 20.6229 4.17481 20.4523L12.1304 12.6776C12.3211 12.4869 12.4218 12.2559 12.4218 12.0047C12.4218 11.7433 12.3211 11.4922 12.1304 11.3319L4.17524 3.54687C3.99438 3.3763 3.77366 3.27601 3.52252 3.27601C3.4006 3.27392 3.27951 3.2964 3.16647 3.34209C3.05342 3.38779 2.95072 3.45577 2.8645 3.54199C2.77828 3.62821 2.7103 3.73091 2.6646 3.84396C2.61891 3.95701 2.59643 4.0781 2.59852 4.20001C2.59852 4.44087 2.70866 4.68216 2.86938 4.85273L10.1722 12.0047L2.86938 19.1563C2.70866 19.3273 2.59852 19.5583 2.59852 19.8094C2.59852 20.3314 2.99966 20.7236 3.52209 20.7236Z" fill="white"/>
</svg>
