<svg width="136" height="98" viewBox="0 0 136 98" fill="none" xmlns="http://www.w3.org/2000/svg">
<path d="M-17.0906 -50.145L16.3163 -51.9572L18.0661 -19.7023C18.3661 -14.1729 13.1694 -10.579 10.5336 -9.47317L-59.8393 24.3836L20.2221 20.0404L21.9719 52.2953L-90.3445 58.3883L-93.0941 7.70199C-93.3441 3.09414 -88.5397 -0.632545 -86.1063 -1.91991L-16.2782 -35.1695L-17.0906 -50.145Z" fill="#252525"/>
<path d="M56.5789 89.6796L23.1719 91.4919L21.4222 59.2369C21.1222 53.7075 26.3189 50.1136 28.9547 49.0078L99.3276 15.1511L19.2662 19.4942L17.5164 -12.7607L129.833 -18.8537L132.582 31.8327C132.832 36.4405 128.028 40.1672 125.595 41.4546L55.7665 74.7041L56.5789 89.6796Z" fill="#252525"/>
</svg>
