<svg width="45" height="46" viewBox="0 0 45 46" fill="none" xmlns="http://www.w3.org/2000/svg">
<rect y="0.5" width="45" height="45" rx="22.5" fill="#004EC2"/>
<path d="M27.416 14.1242C27.4991 14.0701 27.5707 14 27.6266 13.9181C27.6824 13.8361 27.7215 13.7439 27.7415 13.6467C27.7615 13.5496 27.762 13.4494 27.743 13.3521C27.724 13.2547 27.6859 13.1621 27.6309 13.0796C27.5759 12.9971 27.505 12.9263 27.4225 12.8713C27.3399 12.8163 27.2473 12.7783 27.1499 12.7594C27.0525 12.7405 26.9524 12.741 26.8553 12.7611C26.7581 12.7811 26.6659 12.8203 26.584 12.8762L23.669 14.8202C23.138 14.6085 22.5716 14.4999 22 14.5002C21.41 14.5002 20.847 14.6132 20.331 14.8202L17.416 12.8762C17.2505 12.7684 17.0492 12.7303 16.8557 12.7701C16.6623 12.8099 16.4924 12.9244 16.3828 13.0887C16.2733 13.253 16.233 13.4539 16.2706 13.6478C16.3083 13.8417 16.4209 14.0128 16.584 14.1242L18.944 15.6972C18.2339 16.3537 17.7542 17.2216 17.576 18.1722C18.021 18.0582 18.4786 18.0004 18.938 18.0002H25.063C25.5343 18.0015 25.988 18.0588 26.424 18.1722C26.2458 17.2216 25.7661 16.3537 25.056 15.6972L27.416 14.1242ZM11.25 25.5002C11.25 25.3013 11.329 25.1105 11.4697 24.9698C11.6103 24.8292 11.8011 24.7502 12 24.7502H15V23.4382C15 22.6022 15.26 21.8272 15.704 21.1902L13.221 20.1962C13.0404 20.1194 12.8971 19.9749 12.8219 19.7937C12.7466 19.6125 12.7453 19.409 12.8183 19.2269C12.8913 19.0448 13.0328 18.8985 13.2124 18.8195C13.392 18.7405 13.5954 18.735 13.779 18.8042L16.915 20.0582C17.5257 19.6908 18.2253 19.4979 18.938 19.5002H25.062C25.802 19.5002 26.494 19.7042 27.085 20.0582L30.221 18.8042C30.3128 18.7651 30.4116 18.7448 30.5114 18.7444C30.6112 18.744 30.71 18.7635 30.8022 18.8018C30.8944 18.8401 30.978 18.8964 31.0481 18.9674C31.1182 19.0384 31.1735 19.1227 31.2106 19.2153C31.2478 19.308 31.266 19.4071 31.2644 19.5069C31.2627 19.6067 31.2411 19.7051 31.2009 19.7965C31.1607 19.8878 31.1027 19.9702 31.0303 20.0389C30.9578 20.1075 30.8724 20.161 30.779 20.1962L28.296 21.1902C28.7568 21.849 29.0027 22.6342 29 23.4382V24.7502H32C32.1989 24.7502 32.3897 24.8292 32.5303 24.9698C32.671 25.1105 32.75 25.3013 32.75 25.5002C32.75 25.6991 32.671 25.8899 32.5303 26.0305C32.3897 26.1712 32.1989 26.2502 32 26.2502H29V26.5002C29.0007 27.6394 28.7233 28.7615 28.192 29.7692L30.779 30.8042C30.9637 30.8782 31.1115 31.0225 31.1898 31.2055C31.2681 31.3884 31.2705 31.595 31.1965 31.7797C31.1225 31.9644 30.9782 32.1122 30.7952 32.1905C30.6123 32.2688 30.4057 32.2712 30.221 32.1972L27.329 31.0392C26.1684 32.402 24.5297 33.2683 22.75 33.4602V26.5002C22.75 26.3013 22.671 26.1105 22.5303 25.9698C22.3897 25.8292 22.1989 25.7502 22 25.7502C21.8011 25.7502 21.6103 25.8292 21.4697 25.9698C21.329 26.1105 21.25 26.3013 21.25 26.5002V33.4602C19.4704 33.2686 17.8318 32.4026 16.671 31.0402L13.78 32.1962C13.6885 32.2328 13.5907 32.2511 13.4922 32.2499C13.3937 32.2488 13.2964 32.2282 13.2058 32.1895C13.1152 32.1507 13.0331 32.0945 12.9643 32.024C12.8954 31.9535 12.8411 31.8701 12.8045 31.7787C12.7679 31.6872 12.7496 31.5894 12.7507 31.4909C12.7519 31.3924 12.7724 31.295 12.8112 31.2045C12.85 31.1139 12.9062 31.0318 12.9767 30.963C13.0472 30.8941 13.1305 30.8398 13.222 30.8032L15.81 29.7682C15.2781 28.761 15.0001 27.6392 15 26.5002V26.2502H12C11.8011 26.2502 11.6103 26.1712 11.4697 26.0305C11.329 25.8899 11.25 25.6991 11.25 25.5002Z" fill="#E6EDF9"/>
</svg>
