<svg width="251" height="294" viewBox="0 0 251 294" fill="none" xmlns="http://www.w3.org/2000/svg">
<g filter="url(#filter0_d_69_2577)">
<g clip-path="url(#clip0_69_2577)">
<rect x="4" y="2" width="243" height="286" rx="10" fill="#171717"/>
<path d="M22.4531 32.0592C21.5189 32.0592 20.7122 31.8496 20.0332 31.4303C19.3587 31.0111 18.8369 30.4163 18.4678 29.6461C18.1032 28.8714 17.9209 27.9531 17.9209 26.8913V26.8776C17.9209 25.8112 18.1032 24.8929 18.4678 24.1227C18.8369 23.348 19.3587 22.751 20.0332 22.3317C20.7077 21.9124 21.512 21.7028 22.4463 21.7028C23.1937 21.7028 23.8682 21.8509 24.4697 22.1471C25.0713 22.4388 25.5612 22.8444 25.9395 23.3639C26.3177 23.8789 26.5456 24.4713 26.623 25.1413L26.6162 25.196H24.8936L24.8867 25.1618C24.8047 24.7744 24.6497 24.4372 24.4219 24.1501C24.194 23.8584 23.9115 23.6328 23.5742 23.4733C23.237 23.3092 22.861 23.2272 22.4463 23.2272C21.8903 23.2272 21.4072 23.3753 20.9971 23.6715C20.5869 23.9678 20.2702 24.3893 20.0469 24.9362C19.8281 25.4785 19.7188 26.1234 19.7188 26.8708V26.8844C19.7188 27.6318 19.8281 28.279 20.0469 28.8258C20.2702 29.3727 20.5869 29.7943 20.9971 30.0905C21.4072 30.3867 21.8926 30.5348 22.4531 30.5348C22.8724 30.5348 23.2484 30.4619 23.5811 30.3161C23.9183 30.1702 24.1986 29.9652 24.4219 29.7008C24.6497 29.432 24.8047 29.1175 24.8867 28.7575L24.9004 28.7165H26.623V28.7711C26.5365 29.4274 26.3063 30.0016 25.9326 30.4938C25.5589 30.986 25.0758 31.3711 24.4834 31.6491C23.891 31.9225 23.2142 32.0592 22.4531 32.0592ZM28.4824 31.8131V21.4499H30.1846V25.4899H30.3008C30.4785 25.0843 30.7474 24.7676 31.1074 24.5397C31.4674 24.3118 31.9163 24.1979 32.4541 24.1979C33.0101 24.1979 33.4795 24.3073 33.8623 24.526C34.2451 24.7402 34.5345 25.0547 34.7305 25.4694C34.931 25.8841 35.0312 26.3877 35.0312 26.9801V31.8131H33.3291V27.3766C33.3291 26.7933 33.2061 26.3558 32.96 26.0641C32.7184 25.7725 32.3402 25.6266 31.8252 25.6266C31.488 25.6266 31.1963 25.7018 30.9502 25.8522C30.7041 26.0026 30.515 26.2145 30.3828 26.4879C30.2507 26.7614 30.1846 27.085 30.1846 27.4586V31.8131H28.4824ZM39.0781 31.9362C38.6087 31.9362 38.1872 31.845 37.8135 31.6628C37.4443 31.4805 37.1527 31.223 36.9385 30.8903C36.7288 30.553 36.624 30.1566 36.624 29.7008V29.6872C36.624 29.0218 36.8678 28.4977 37.3555 28.1149C37.8477 27.7321 38.5495 27.5156 39.4609 27.4655L42.2227 27.2946V28.4157L39.7002 28.5797C39.2217 28.6071 38.8685 28.7073 38.6406 28.8805C38.4128 29.0537 38.2988 29.2952 38.2988 29.6051V29.6188C38.2988 29.9378 38.4196 30.1862 38.6611 30.3639C38.9072 30.5417 39.2194 30.6305 39.5977 30.6305C39.9395 30.6305 40.2448 30.5622 40.5137 30.4254C40.7826 30.2887 40.9945 30.1042 41.1494 29.8717C41.3044 29.6348 41.3818 29.3682 41.3818 29.0719V26.7067C41.3818 26.333 41.2633 26.0482 41.0264 25.8522C40.7894 25.6517 40.4385 25.5514 39.9736 25.5514C39.5863 25.5514 39.2695 25.6198 39.0234 25.7565C38.7773 25.8887 38.611 26.0778 38.5244 26.3239L38.5176 26.3512H36.9111L36.918 26.2897C36.9727 25.8704 37.1367 25.5036 37.4102 25.1891C37.6836 24.8747 38.0459 24.6308 38.4971 24.4577C38.9482 24.2845 39.4678 24.1979 40.0557 24.1979C40.7028 24.1979 41.2497 24.2982 41.6963 24.4987C42.1429 24.6947 42.4824 24.9818 42.7148 25.36C42.9473 25.7337 43.0635 26.1826 43.0635 26.7067V31.8131H41.3818V30.7878H41.2656C41.1289 31.0247 40.9512 31.2298 40.7324 31.403C40.5182 31.5762 40.2721 31.7083 39.9941 31.7995C39.7161 31.8906 39.4108 31.9362 39.0781 31.9362ZM45.1074 31.8131V24.3415H46.8096V25.4899H46.9258C47.0534 25.0889 47.2812 24.7767 47.6094 24.5534C47.9421 24.3301 48.3545 24.2184 48.8467 24.2184C48.9743 24.2184 49.0996 24.2275 49.2227 24.2458C49.3503 24.2594 49.4551 24.2777 49.5371 24.3004V25.8249C49.4004 25.793 49.2614 25.7702 49.1201 25.7565C48.9834 25.7383 48.8398 25.7292 48.6895 25.7292C48.3112 25.7292 47.9808 25.7998 47.6982 25.9411C47.4157 26.0823 47.1969 26.2851 47.042 26.5495C46.887 26.8092 46.8096 27.1169 46.8096 27.4723V31.8131H45.1074ZM54.1992 31.8473C53.3424 31.8473 52.7249 31.6901 52.3467 31.3756C51.9684 31.0612 51.7793 30.5462 51.7793 29.8307V25.6608H50.6172V24.3415H51.7793V22.5094H53.5088V24.3415H55.0811V25.6608H53.5088V29.4274C53.5088 29.7965 53.5863 30.0677 53.7412 30.2409C53.9007 30.4095 54.1559 30.4938 54.5068 30.4938C54.6299 30.4938 54.7301 30.4915 54.8076 30.487C54.8896 30.4779 54.9808 30.4687 55.0811 30.4596V31.7721C54.9626 31.7949 54.8258 31.8131 54.6709 31.8268C54.5205 31.8405 54.3633 31.8473 54.1992 31.8473Z" fill="#AFAFAF"/>
<rect x="50.5" y="62.9861" width="149.85" height="149.85" rx="74.925" fill="#00B4D8"/>
<path d="M125.5 137.986V62.9861C104.847 62.9861 86.1497 71.5291 72.6154 85.1015L125.5 137.986Z" fill="#F72585"/>
<path d="M125.5 137.986H50.5C50.5 117.333 59.0431 98.6358 72.6154 85.1015L125.5 137.986Z" fill="#B5179E"/>
<path d="M125.5 137.986H50.5C50.5 158.639 59.0431 177.336 72.6154 190.871L125.5 137.986Z" fill="#7209B7"/>
<path d="M125.5 137.986V212.986C104.847 212.986 86.1497 204.443 72.6154 190.871L125.5 137.986Z" fill="#560BAD"/>
<path d="M125.5 137.986V212.986C146.153 212.986 164.85 204.443 178.385 190.871L125.5 137.986Z" fill="#3B009A"/>
<g clip-path="url(#clip1_69_2577)">
<g clip-path="url(#clip2_69_2577)">
<rect x="30.5" y="239.225" width="12" height="12" rx="2.7" fill="#3B009A"/>
<path d="M53.0684 249.391C52.4206 249.391 51.8574 249.241 51.3789 248.942C50.9004 248.639 50.5293 248.211 50.2656 247.658C50.0052 247.104 49.875 246.453 49.875 245.704V245.695C49.875 244.953 50.0068 244.306 50.2705 243.756C50.5342 243.203 50.9053 242.775 51.3838 242.472C51.8656 242.166 52.4271 242.013 53.0684 242.013C53.5892 242.013 54.0531 242.106 54.46 242.291C54.8701 242.474 55.207 242.731 55.4707 243.063C55.7376 243.395 55.9167 243.784 56.0078 244.23L56.0176 244.279H55.1289L55.1143 244.23C54.971 243.774 54.7253 243.426 54.377 243.185C54.0286 242.944 53.5924 242.824 53.0684 242.824C52.6029 242.824 52.1976 242.942 51.8525 243.18C51.5107 243.414 51.2454 243.746 51.0566 244.176C50.8678 244.606 50.7734 245.112 50.7734 245.695V245.704C50.7734 246.294 50.8662 246.805 51.0518 247.238C51.2406 247.667 51.5059 247.999 51.8477 248.234C52.1927 248.465 52.6012 248.58 53.0732 248.58C53.4932 248.58 53.861 248.497 54.1768 248.331C54.4958 248.162 54.7432 247.928 54.9189 247.628C55.0947 247.329 55.1826 246.981 55.1826 246.583V246.413H53.2051V245.641H56.0615V246.5C56.0615 247.08 55.9362 247.586 55.6855 248.019C55.4382 248.452 55.0898 248.789 54.6406 249.03C54.1947 249.271 53.6706 249.391 53.0684 249.391ZM59.6602 249.318C59.1589 249.318 58.7275 249.207 58.3662 248.986C58.0081 248.764 57.7314 248.452 57.5361 248.048C57.3441 247.641 57.248 247.163 57.248 246.613V246.608C57.248 246.064 57.3441 245.587 57.5361 245.177C57.7314 244.767 58.0065 244.446 58.3613 244.215C58.7161 243.984 59.1312 243.869 59.6064 243.869C60.085 243.869 60.4951 243.979 60.8369 244.201C61.182 244.422 61.4456 244.731 61.6279 245.128C61.8135 245.522 61.9062 245.981 61.9062 246.505V246.837H57.6875V246.159H61.4717L61.0518 246.779V246.442C61.0518 246.028 60.9899 245.688 60.8662 245.421C60.7425 245.154 60.5716 244.956 60.3535 244.826C60.1354 244.692 59.8848 244.625 59.6016 244.625C59.3184 244.625 59.0645 244.695 58.8398 244.835C58.6185 244.972 58.4427 245.176 58.3125 245.446C58.1823 245.716 58.1172 246.048 58.1172 246.442V246.779C58.1172 247.153 58.1807 247.474 58.3076 247.741C58.4346 248.004 58.6152 248.208 58.8496 248.351C59.084 248.491 59.3607 248.561 59.6797 248.561C59.9173 248.561 60.124 248.528 60.2998 248.463C60.4756 248.398 60.6204 248.315 60.7344 248.214C60.8483 248.113 60.9281 248.011 60.9736 247.907L60.9932 247.863H61.8428L61.833 247.902C61.7874 248.081 61.7061 248.255 61.5889 248.424C61.4749 248.59 61.3268 248.742 61.1445 248.878C60.9622 249.012 60.7458 249.119 60.4951 249.201C60.2477 249.279 59.9694 249.318 59.6602 249.318ZM63.2246 249.225V243.961H64.0742V244.743H64.1523C64.2533 244.466 64.4242 244.251 64.665 244.098C64.9059 243.945 65.2038 243.869 65.5586 243.869C65.64 243.869 65.7197 243.873 65.7979 243.883C65.8792 243.89 65.9411 243.896 65.9834 243.903V244.728C65.8955 244.712 65.8092 244.7 65.7246 244.694C65.6432 244.684 65.5553 244.679 65.4609 244.679C65.1908 244.679 64.9515 244.733 64.7432 244.84C64.5348 244.948 64.3704 245.097 64.25 245.289C64.1328 245.482 64.0742 245.706 64.0742 245.963V249.225H63.2246ZM67.1309 249.225V243.961H67.9805V244.762H68.0586C68.1758 244.479 68.3548 244.259 68.5957 244.103C68.8398 243.947 69.1344 243.869 69.4795 243.869C69.7171 243.869 69.9303 243.908 70.1191 243.986C70.3079 244.064 70.4707 244.173 70.6074 244.313C70.7441 244.45 70.8532 244.609 70.9346 244.791H71.0127C71.1071 244.606 71.234 244.445 71.3936 244.308C71.5531 244.168 71.737 244.061 71.9453 243.986C72.1569 243.908 72.3831 243.869 72.624 243.869C72.9821 243.869 73.2848 243.935 73.5322 244.069C73.7829 244.202 73.9733 244.398 74.1035 244.655C74.2337 244.909 74.2988 245.219 74.2988 245.587V249.225H73.4492V245.783C73.4492 245.395 73.3581 245.106 73.1758 244.913C72.9967 244.718 72.7217 244.621 72.3506 244.621C72.1064 244.621 71.8932 244.676 71.7109 244.787C71.5286 244.897 71.387 245.045 71.2861 245.231C71.1852 245.413 71.1348 245.617 71.1348 245.841V249.225H70.2852V245.651C70.2852 245.338 70.1859 245.089 69.9873 244.904C69.7887 244.715 69.5234 244.621 69.1914 244.621C68.9635 244.621 68.7568 244.681 68.5713 244.801C68.389 244.922 68.2441 245.084 68.1367 245.289C68.0326 245.491 67.9805 245.716 67.9805 245.963V249.225H67.1309ZM77.2773 249.318C76.9453 249.318 76.6458 249.254 76.3789 249.127C76.1152 249 75.9053 248.82 75.749 248.585C75.596 248.351 75.5195 248.074 75.5195 247.755V247.746C75.5195 247.277 75.6855 246.911 76.0176 246.647C76.3529 246.38 76.8265 246.229 77.4385 246.193L79.3721 246.076V246.754L77.541 246.871C77.1406 246.894 76.8477 246.977 76.6621 247.121C76.4798 247.264 76.3887 247.466 76.3887 247.726V247.736C76.3887 248.003 76.4896 248.211 76.6914 248.361C76.8932 248.507 77.1471 248.58 77.4531 248.58C77.7428 248.58 78 248.524 78.2246 248.41C78.4492 248.292 78.625 248.135 78.752 247.936C78.8822 247.737 78.9473 247.513 78.9473 247.262V245.621C78.9473 245.296 78.848 245.049 78.6494 244.879C78.4541 244.707 78.1595 244.621 77.7656 244.621C77.4499 244.621 77.1911 244.677 76.9893 244.791C76.7874 244.902 76.6523 245.06 76.584 245.265L76.5791 245.28H75.7295L75.7344 245.25C75.7799 244.974 75.8939 244.733 76.0762 244.528C76.2617 244.319 76.501 244.158 76.7939 244.044C77.0869 243.927 77.4206 243.869 77.7949 243.869C78.2246 243.869 78.5876 243.939 78.8838 244.079C79.1833 244.218 79.4095 244.42 79.5625 244.684C79.7188 244.944 79.7969 245.257 79.7969 245.621V249.225H78.9473V248.449H78.8691C78.7585 248.634 78.6234 248.792 78.4639 248.922C78.3076 249.052 78.1302 249.152 77.9316 249.22C77.7331 249.285 77.515 249.318 77.2773 249.318ZM81.3496 249.225V243.961H82.1992V244.752H82.2773C82.4108 244.472 82.6029 244.256 82.8535 244.103C83.1042 243.947 83.4232 243.869 83.8105 243.869C84.403 243.869 84.8571 244.038 85.1729 244.376C85.4919 244.712 85.6514 245.192 85.6514 245.817V249.225H84.8018V246.022C84.8018 245.547 84.7008 245.195 84.499 244.967C84.3005 244.736 83.9912 244.621 83.5713 244.621C83.2913 244.621 83.0488 244.681 82.8438 244.801C82.6387 244.922 82.4792 245.093 82.3652 245.314C82.2546 245.535 82.1992 245.801 82.1992 246.11V249.225H81.3496ZM87.4434 251.071C87.388 251.071 87.3262 251.067 87.2578 251.061C87.1895 251.058 87.126 251.051 87.0674 251.041V250.343C87.1195 250.353 87.1764 250.359 87.2383 250.363C87.3001 250.366 87.3604 250.368 87.4189 250.368C87.6598 250.368 87.8568 250.306 88.0098 250.182C88.166 250.058 88.2913 249.845 88.3857 249.542L88.4834 249.23L86.5352 243.961H87.4434L89.0645 248.825L88.7275 248.292H89.1279L88.791 248.825L90.4072 243.961H91.3008L89.2451 249.547C89.0986 249.941 88.9456 250.249 88.7861 250.47C88.6299 250.691 88.4443 250.846 88.2295 250.934C88.0179 251.025 87.7559 251.071 87.4434 251.071Z" fill="white"/>
</g>
<g clip-path="url(#clip3_69_2577)">
<rect x="30.5" y="257.975" width="12" height="12" rx="2.7" fill="#560BAD"/>
<path d="M52.458 268.141C51.9437 268.141 51.4945 268.058 51.1104 267.892C50.7295 267.723 50.4268 267.492 50.2021 267.199C49.9808 266.902 49.8522 266.564 49.8164 266.183L49.8115 266.129H50.6904L50.6953 266.183C50.7181 266.417 50.8076 266.621 50.9639 266.793C51.1234 266.963 51.335 267.094 51.5986 267.189C51.8656 267.283 52.1683 267.33 52.5068 267.33C52.8258 267.33 53.109 267.28 53.3564 267.179C53.6071 267.075 53.804 266.932 53.9473 266.749C54.0905 266.567 54.1621 266.357 54.1621 266.12V266.115C54.1621 265.822 54.0547 265.576 53.8398 265.377C53.625 265.176 53.2751 265.021 52.79 264.913L52.0088 264.743C51.3024 264.586 50.7881 264.345 50.4658 264.02C50.1468 263.691 49.9873 263.271 49.9873 262.76V262.755C49.9906 262.365 50.0964 262.02 50.3047 261.72C50.5163 261.421 50.8076 261.186 51.1787 261.017C51.5531 260.848 51.9827 260.763 52.4678 260.763C52.9365 260.763 53.3516 260.848 53.7129 261.017C54.0742 261.183 54.3607 261.408 54.5723 261.691C54.7871 261.974 54.9059 262.291 54.9287 262.643L54.9336 262.711H54.0547L54.0449 262.648C54.0124 262.44 53.9277 262.256 53.791 262.096C53.6543 261.933 53.472 261.805 53.2441 261.71C53.0163 261.616 52.7493 261.57 52.4434 261.574C52.1504 261.574 51.8867 261.619 51.6523 261.71C51.418 261.802 51.2308 261.933 51.0908 262.106C50.9541 262.275 50.8857 262.483 50.8857 262.731V262.736C50.8857 263.016 50.9899 263.252 51.1982 263.444C51.4066 263.636 51.75 263.784 52.2285 263.888L53.0098 264.064C53.7454 264.227 54.2712 264.463 54.5869 264.772C54.9027 265.081 55.0605 265.49 55.0605 265.997V266.002C55.0605 266.442 54.9531 266.821 54.7383 267.14C54.5234 267.459 54.2207 267.706 53.8301 267.882C53.4395 268.055 52.9821 268.141 52.458 268.141ZM56.418 269.733V262.711H57.2676V263.551H57.3457C57.4531 263.356 57.5882 263.19 57.751 263.053C57.9137 262.913 58.0993 262.806 58.3076 262.731C58.516 262.656 58.7422 262.619 58.9863 262.619C59.4323 262.619 59.8197 262.732 60.1484 262.96C60.4805 263.185 60.7376 263.501 60.9199 263.908C61.1022 264.315 61.1934 264.791 61.1934 265.338V265.348C61.1934 265.898 61.1022 266.377 60.9199 266.784C60.7376 267.191 60.4805 267.506 60.1484 267.731C59.8197 267.955 59.4323 268.068 58.9863 268.068C58.7454 268.068 58.5176 268.03 58.3027 267.955C58.0911 267.877 57.9023 267.77 57.7363 267.633C57.5736 267.496 57.4434 267.334 57.3457 267.145H57.2676V269.733H56.418ZM58.791 267.316C59.1133 267.316 59.3883 267.238 59.6162 267.081C59.8441 266.922 60.0182 266.696 60.1387 266.403C60.2624 266.107 60.3242 265.755 60.3242 265.348V265.338C60.3242 264.928 60.2624 264.577 60.1387 264.284C60.0182 263.991 59.8441 263.766 59.6162 263.61C59.3883 263.45 59.1133 263.371 58.791 263.371C58.472 263.371 58.1969 263.45 57.9658 263.61C57.7347 263.769 57.5573 263.996 57.4336 264.288C57.3099 264.581 57.248 264.931 57.248 265.338V265.348C57.248 265.752 57.3099 266.102 57.4336 266.398C57.5573 266.691 57.7347 266.917 57.9658 267.077C58.1969 267.236 58.472 267.316 58.791 267.316ZM63.9668 268.068C63.6348 268.068 63.3353 268.004 63.0684 267.877C62.8047 267.75 62.5947 267.57 62.4385 267.335C62.2855 267.101 62.209 266.824 62.209 266.505V266.496C62.209 266.027 62.375 265.661 62.707 265.397C63.0423 265.13 63.516 264.979 64.1279 264.943L66.0615 264.826V265.504L64.2305 265.621C63.8301 265.644 63.5371 265.727 63.3516 265.871C63.1693 266.014 63.0781 266.216 63.0781 266.476V266.486C63.0781 266.753 63.179 266.961 63.3809 267.111C63.5827 267.257 63.8366 267.33 64.1426 267.33C64.4323 267.33 64.6895 267.274 64.9141 267.16C65.1387 267.042 65.3145 266.885 65.4414 266.686C65.5716 266.487 65.6367 266.263 65.6367 266.012V264.371C65.6367 264.046 65.5374 263.799 65.3389 263.629C65.1436 263.457 64.849 263.371 64.4551 263.371C64.1393 263.371 63.8805 263.427 63.6787 263.541C63.4769 263.652 63.3418 263.81 63.2734 264.015L63.2686 264.03H62.4189L62.4238 264C62.4694 263.724 62.5833 263.483 62.7656 263.278C62.9512 263.069 63.1904 262.908 63.4834 262.794C63.7764 262.677 64.11 262.619 64.4844 262.619C64.9141 262.619 65.277 262.689 65.5732 262.829C65.8727 262.968 66.099 263.17 66.252 263.434C66.4082 263.694 66.4863 264.007 66.4863 264.371V267.975H65.6367V267.199H65.5586C65.4479 267.384 65.3128 267.542 65.1533 267.672C64.9971 267.802 64.8197 267.902 64.6211 267.97C64.4225 268.035 64.2044 268.068 63.9668 268.068ZM68.0586 267.975V262.711H68.9082V267.975H68.0586ZM68.4883 261.696C68.3288 261.696 68.1904 261.639 68.0732 261.525C67.9593 261.408 67.9023 261.269 67.9023 261.11C67.9023 260.947 67.9593 260.809 68.0732 260.695C68.1904 260.581 68.3288 260.524 68.4883 260.524C68.651 260.524 68.7894 260.581 68.9033 260.695C69.0173 260.809 69.0742 260.947 69.0742 261.11C69.0742 261.269 69.0173 261.408 68.9033 261.525C68.7894 261.639 68.651 261.696 68.4883 261.696ZM70.5098 267.975V262.711H71.3594V263.502H71.4375C71.571 263.222 71.763 263.006 72.0137 262.853C72.2643 262.697 72.5833 262.619 72.9707 262.619C73.5632 262.619 74.0173 262.788 74.333 263.126C74.652 263.462 74.8115 263.942 74.8115 264.567V267.975H73.9619V264.772C73.9619 264.297 73.861 263.945 73.6592 263.717C73.4606 263.486 73.1514 263.371 72.7314 263.371C72.4515 263.371 72.209 263.431 72.0039 263.551C71.7988 263.672 71.6393 263.843 71.5254 264.064C71.4147 264.285 71.3594 264.551 71.3594 264.86V267.975H70.5098Z" fill="white"/>
</g>
</g>
<g clip-path="url(#clip4_69_2577)">
<rect x="146.5" y="238.55" width="12" height="12" rx="2.7" fill="#B5179E"/>
<path d="M166.148 248.55V241.504H170.426V242.295H167.027V244.717H170.147V245.498H167.027V248.55H166.148ZM171.764 248.55V243.286H172.613V244.068H172.691C172.792 243.791 172.963 243.576 173.204 243.423C173.445 243.27 173.743 243.194 174.098 243.194C174.179 243.194 174.259 243.198 174.337 243.208C174.418 243.215 174.48 243.221 174.522 243.228V244.053C174.435 244.037 174.348 244.025 174.264 244.019C174.182 244.009 174.094 244.004 174 244.004C173.73 244.004 173.491 244.058 173.282 244.165C173.074 244.273 172.91 244.422 172.789 244.614C172.672 244.806 172.613 245.031 172.613 245.288V248.55H171.764ZM177.018 248.643C176.686 248.643 176.386 248.579 176.119 248.452C175.855 248.325 175.646 248.145 175.489 247.91C175.336 247.676 175.26 247.399 175.26 247.08V247.07C175.26 246.602 175.426 246.236 175.758 245.972C176.093 245.705 176.567 245.554 177.179 245.518L179.112 245.401V246.079L177.281 246.196C176.881 246.219 176.588 246.302 176.402 246.445C176.22 246.589 176.129 246.791 176.129 247.051V247.061C176.129 247.328 176.23 247.536 176.432 247.686C176.633 247.832 176.887 247.905 177.193 247.905C177.483 247.905 177.74 247.848 177.965 247.735C178.189 247.617 178.365 247.459 178.492 247.261C178.622 247.062 178.688 246.838 178.688 246.587V244.946C178.688 244.621 178.588 244.374 178.39 244.204C178.194 244.032 177.9 243.945 177.506 243.945C177.19 243.945 176.931 244.002 176.729 244.116C176.528 244.227 176.393 244.385 176.324 244.59L176.319 244.605H175.47L175.475 244.575C175.52 244.299 175.634 244.058 175.816 243.853C176.002 243.644 176.241 243.483 176.534 243.369C176.827 243.252 177.161 243.194 177.535 243.194C177.965 243.194 178.328 243.264 178.624 243.404C178.924 243.543 179.15 243.745 179.303 244.009C179.459 244.269 179.537 244.582 179.537 244.946V248.55H178.688V247.774H178.609C178.499 247.959 178.364 248.117 178.204 248.247C178.048 248.377 177.87 248.477 177.672 248.545C177.473 248.61 177.255 248.643 177.018 248.643ZM181.09 248.55V243.286H181.939V244.077H182.018C182.151 243.797 182.343 243.581 182.594 243.428C182.844 243.272 183.163 243.194 183.551 243.194C184.143 243.194 184.597 243.363 184.913 243.701C185.232 244.037 185.392 244.517 185.392 245.142V248.55H184.542V245.347C184.542 244.872 184.441 244.52 184.239 244.292C184.041 244.061 183.731 243.945 183.312 243.945C183.032 243.945 182.789 244.006 182.584 244.126C182.379 244.247 182.219 244.418 182.105 244.639C181.995 244.86 181.939 245.126 181.939 245.435V248.55H181.09ZM189.083 248.643C188.591 248.643 188.165 248.53 187.804 248.306C187.442 248.081 187.162 247.764 186.964 247.354C186.765 246.944 186.666 246.46 186.666 245.904V245.894C186.666 245.347 186.764 244.872 186.959 244.468C187.158 244.064 187.438 243.752 187.799 243.53C188.16 243.306 188.587 243.194 189.078 243.194C189.505 243.194 189.872 243.268 190.182 243.418C190.491 243.568 190.738 243.77 190.924 244.024C191.109 244.274 191.228 244.556 191.28 244.868L191.285 244.898H190.44L190.436 244.883C190.37 244.623 190.222 244.401 189.991 244.219C189.76 244.037 189.456 243.945 189.078 243.945C188.762 243.945 188.489 244.025 188.258 244.185C188.027 244.344 187.848 244.57 187.721 244.863C187.597 245.153 187.535 245.497 187.535 245.894V245.904C187.535 246.307 187.599 246.659 187.726 246.958C187.853 247.254 188.032 247.484 188.263 247.647C188.494 247.809 188.766 247.891 189.078 247.891C189.433 247.891 189.723 247.814 189.947 247.661C190.172 247.508 190.333 247.285 190.431 246.992L190.44 246.963L191.28 246.958L191.271 247.012C191.199 247.328 191.072 247.609 190.89 247.857C190.707 248.101 190.466 248.293 190.167 248.433C189.868 248.573 189.506 248.643 189.083 248.643ZM194.674 248.643C194.173 248.643 193.741 248.532 193.38 248.311C193.022 248.089 192.745 247.777 192.55 247.373C192.358 246.966 192.262 246.488 192.262 245.938V245.933C192.262 245.389 192.358 244.912 192.55 244.502C192.745 244.092 193.02 243.771 193.375 243.54C193.73 243.309 194.145 243.194 194.62 243.194C195.099 243.194 195.509 243.304 195.851 243.526C196.196 243.747 196.459 244.056 196.642 244.453C196.827 244.847 196.92 245.306 196.92 245.83V246.162H192.701V245.484H196.485L196.065 246.104V245.767C196.065 245.353 196.004 245.013 195.88 244.746C195.756 244.479 195.585 244.281 195.367 244.151C195.149 244.017 194.898 243.95 194.615 243.95C194.332 243.95 194.078 244.02 193.854 244.16C193.632 244.297 193.456 244.501 193.326 244.771C193.196 245.041 193.131 245.373 193.131 245.767V246.104C193.131 246.478 193.194 246.799 193.321 247.066C193.448 247.329 193.629 247.533 193.863 247.676C194.098 247.816 194.374 247.886 194.693 247.886C194.931 247.886 195.138 247.853 195.313 247.788C195.489 247.723 195.634 247.64 195.748 247.539C195.862 247.438 195.942 247.336 195.987 247.232L196.007 247.188H196.856L196.847 247.227C196.801 247.406 196.72 247.58 196.603 247.749C196.489 247.915 196.34 248.067 196.158 248.203C195.976 248.337 195.759 248.444 195.509 248.526C195.261 248.604 194.983 248.643 194.674 248.643Z" fill="white"/>
</g>
<g clip-path="url(#clip5_69_2577)">
<rect x="146.5" y="258.65" width="12" height="12" rx="2.7" fill="#F72585"/>
<path d="M166.588 266.135V265.354H168.58C169.085 265.354 169.475 265.224 169.752 264.963C170.029 264.7 170.167 264.337 170.167 263.875V263.865C170.167 263.399 170.029 263.036 169.752 262.776C169.475 262.516 169.085 262.385 168.58 262.385H166.588V261.604H168.805C169.247 261.604 169.638 261.698 169.977 261.887C170.315 262.076 170.58 262.34 170.772 262.678C170.968 263.017 171.065 263.409 171.065 263.855V263.865C171.065 264.311 170.968 264.705 170.772 265.046C170.58 265.388 170.315 265.655 169.977 265.847C169.638 266.039 169.247 266.135 168.805 266.135H166.588ZM166.148 268.65V261.604H167.027V268.65H166.148ZM174.415 268.743C173.917 268.743 173.486 268.634 173.121 268.416C172.76 268.194 172.48 267.88 172.281 267.473C172.086 267.066 171.988 266.583 171.988 266.023V266.013C171.988 265.45 172.086 264.965 172.281 264.558C172.48 264.151 172.76 263.839 173.121 263.621C173.486 263.403 173.917 263.294 174.415 263.294C174.916 263.294 175.348 263.403 175.709 263.621C176.07 263.839 176.349 264.151 176.544 264.558C176.743 264.965 176.842 265.45 176.842 266.013V266.023C176.842 266.583 176.743 267.066 176.544 267.473C176.349 267.88 176.07 268.194 175.709 268.416C175.348 268.634 174.916 268.743 174.415 268.743ZM174.415 267.991C174.747 267.991 175.029 267.913 175.26 267.756C175.491 267.6 175.667 267.376 175.787 267.083C175.911 266.79 175.973 266.436 175.973 266.023V266.013C175.973 265.597 175.911 265.242 175.787 264.949C175.667 264.656 175.491 264.433 175.26 264.28C175.029 264.124 174.747 264.046 174.415 264.046C174.083 264.046 173.801 264.124 173.57 264.28C173.339 264.433 173.162 264.656 173.038 264.949C172.918 265.242 172.857 265.597 172.857 266.013V266.023C172.857 266.436 172.918 266.79 173.038 267.083C173.162 267.376 173.339 267.6 173.57 267.756C173.801 267.913 174.083 267.991 174.415 267.991ZM178.209 268.65V261.296H179.059V268.65H178.209ZM182.135 268.743C181.803 268.743 181.503 268.679 181.236 268.552C180.973 268.425 180.763 268.245 180.606 268.01C180.453 267.776 180.377 267.499 180.377 267.18V267.171C180.377 266.702 180.543 266.336 180.875 266.072C181.21 265.805 181.684 265.654 182.296 265.618L184.229 265.501V266.179L182.398 266.296C181.998 266.319 181.705 266.402 181.52 266.546C181.337 266.689 181.246 266.891 181.246 267.151V267.161C181.246 267.428 181.347 267.636 181.549 267.786C181.751 267.932 182.005 268.005 182.311 268.005C182.6 268.005 182.857 267.948 183.082 267.835C183.307 267.717 183.482 267.559 183.609 267.361C183.74 267.162 183.805 266.938 183.805 266.687V265.046C183.805 264.721 183.705 264.474 183.507 264.304C183.312 264.132 183.017 264.046 182.623 264.046C182.307 264.046 182.049 264.102 181.847 264.216C181.645 264.327 181.51 264.485 181.441 264.69L181.437 264.705H180.587L180.592 264.675C180.637 264.399 180.751 264.158 180.934 263.953C181.119 263.744 181.358 263.583 181.651 263.469C181.944 263.352 182.278 263.294 182.652 263.294C183.082 263.294 183.445 263.364 183.741 263.504C184.041 263.643 184.267 263.845 184.42 264.109C184.576 264.369 184.654 264.682 184.654 265.046V268.65H183.805V267.874H183.727C183.616 268.059 183.481 268.217 183.321 268.347C183.165 268.477 182.988 268.577 182.789 268.645C182.59 268.71 182.372 268.743 182.135 268.743ZM186.207 268.65V263.386H187.057V264.177H187.135C187.268 263.897 187.46 263.681 187.711 263.528C187.962 263.372 188.281 263.294 188.668 263.294C189.26 263.294 189.715 263.463 190.03 263.801C190.349 264.137 190.509 264.617 190.509 265.242V268.65H189.659V265.447C189.659 264.972 189.558 264.62 189.356 264.392C189.158 264.161 188.849 264.046 188.429 264.046C188.149 264.046 187.906 264.106 187.701 264.226C187.496 264.347 187.337 264.518 187.223 264.739C187.112 264.96 187.057 265.226 187.057 265.535V268.65H186.207ZM193.99 268.743C193.548 268.743 193.16 268.63 192.828 268.406C192.496 268.181 192.239 267.865 192.057 267.459C191.874 267.048 191.783 266.57 191.783 266.023V266.013C191.783 265.463 191.874 264.985 192.057 264.578C192.239 264.171 192.494 263.855 192.823 263.63C193.155 263.406 193.544 263.294 193.99 263.294C194.352 263.294 194.679 263.378 194.972 263.547C195.268 263.713 195.488 263.936 195.631 264.216H195.709V261.296H196.559V268.65H195.709V267.81H195.631C195.471 268.103 195.25 268.333 194.967 268.499C194.684 268.661 194.358 268.743 193.99 268.743ZM194.186 267.991C194.505 267.991 194.78 267.911 195.011 267.752C195.242 267.592 195.419 267.366 195.543 267.073C195.667 266.777 195.729 266.427 195.729 266.023V266.013C195.729 265.606 195.667 265.256 195.543 264.963C195.419 264.671 195.242 264.444 195.011 264.285C194.78 264.125 194.505 264.046 194.186 264.046C193.867 264.046 193.591 264.125 193.36 264.285C193.132 264.441 192.957 264.666 192.833 264.959C192.713 265.252 192.652 265.603 192.652 266.013V266.023C192.652 266.43 192.713 266.782 192.833 267.078C192.957 267.371 193.132 267.597 193.36 267.756C193.591 267.913 193.867 267.991 194.186 267.991Z" fill="white"/>
</g>
</g>
</g>
<defs>
<filter id="filter0_d_69_2577" x="0.443334" y="0.706667" width="250.113" height="293.113" filterUnits="userSpaceOnUse" color-interpolation-filters="sRGB">
<feFlood flood-opacity="0" result="BackgroundImageFix"/>
<feColorMatrix in="SourceAlpha" type="matrix" values="0 0 0 0 0 0 0 0 0 0 0 0 0 0 0 0 0 0 127 0" result="hardAlpha"/>
<feOffset dy="2.26333"/>
<feGaussianBlur stdDeviation="1.77833"/>
<feComposite in2="hardAlpha" operator="out"/>
<feColorMatrix type="matrix" values="0 0 0 0 0 0 0 0 0 0 0 0 0 0 0 0 0 0 0.05 0"/>
<feBlend mode="normal" in2="BackgroundImageFix" result="effect1_dropShadow_69_2577"/>
<feBlend mode="normal" in="SourceGraphic" in2="effect1_dropShadow_69_2577" result="shape"/>
</filter>
<clipPath id="clip0_69_2577">
<rect x="4" y="2" width="243" height="286" rx="10" fill="white"/>
</clipPath>
<clipPath id="clip1_69_2577">
<rect width="101.25" height="30.75" fill="white" transform="translate(30.5 239.225)"/>
</clipPath>
<clipPath id="clip2_69_2577">
<rect width="61.75" height="12" fill="white" transform="translate(30.5 239.225)"/>
</clipPath>
<clipPath id="clip3_69_2577">
<rect width="45.75" height="12" fill="white" transform="translate(30.5 257.975)"/>
</clipPath>
<clipPath id="clip4_69_2577">
<rect width="51.75" height="13.35" fill="white" transform="translate(146.5 237.875)"/>
</clipPath>
<clipPath id="clip5_69_2577">
<rect width="51.75" height="13.35" fill="white" transform="translate(146.5 257.975)"/>
</clipPath>
</defs>
</svg>
