<svg width="14" height="14" viewBox="0 0 14 14" fill="none" xmlns="http://www.w3.org/2000/svg">
<path d="M4.66675 7.1167H8.75008" stroke="white" stroke-miterlimit="10" stroke-linecap="round" stroke-linejoin="round"/>
<path d="M4.66675 9.44995H7.22175" stroke="white" stroke-miterlimit="10" stroke-linecap="round" stroke-linejoin="round"/>
<path d="M5.83341 3.49996H8.16675C9.33342 3.49996 9.33342 2.91663 9.33342 2.33329C9.33342 1.16663 8.75008 1.16663 8.16675 1.16663H5.83341C5.25008 1.16663 4.66675 1.16663 4.66675 2.33329C4.66675 3.49996 5.25008 3.49996 5.83341 3.49996Z" stroke="white" stroke-miterlimit="10" stroke-linecap="round" stroke-linejoin="round"/>
<path d="M9.33333 2.34497C11.2758 2.44997 12.25 3.16747 12.25 5.8333V9.3333C12.25 11.6666 11.6667 12.8333 8.75 12.8333H5.25C2.33333 12.8333 1.75 11.6666 1.75 9.3333V5.8333C1.75 3.1733 2.72417 2.44997 4.66667 2.34497" stroke="white" stroke-miterlimit="10" stroke-linecap="round" stroke-linejoin="round"/>
</svg>
