<svg width="30" height="30" viewBox="0 0 30 30" fill="none" xmlns="http://www.w3.org/2000/svg">
<rect width="30" height="30" rx="15" fill="white" fill-opacity="0.2"/>
<path d="M19.167 7.5H10.8337C8.33366 7.5 6.66699 8.75 6.66699 11.6667V17.5C6.66699 20.4167 8.33366 21.6667 10.8337 21.6667H13.8087C14.3003 21.6667 14.7003 21.2333 14.6337 20.7417C14.5503 20.15 14.567 19.5333 14.692 18.9C15.1337 16.7333 16.917 15.0083 19.1003 14.65C20.192 14.475 21.2337 14.625 22.1503 15.025C22.7087 15.2667 23.3337 14.8833 23.3337 14.275V11.6667C23.3337 8.75 21.667 7.5 19.167 7.5ZM19.5587 12.1583L16.9503 14.2417C16.4003 14.6833 15.7003 14.9 15.0003 14.9C14.3003 14.9 13.592 14.6833 13.0503 14.2417L10.442 12.1583C10.1753 11.9417 10.1337 11.55 10.342 11.275C10.5587 11.0083 10.9503 10.9583 11.217 11.175L13.8253 13.2583C14.4587 13.7667 15.5337 13.7667 16.167 13.2583L18.7753 11.175C19.042 10.9583 19.442 11 19.6503 11.275C19.867 11.55 19.8253 11.9417 19.5587 12.1583Z" fill="white" fill-opacity="0.5"/>
<path d="M19.9997 15.8333C17.6997 15.8333 15.833 17.6916 15.833 19.9999C15.833 22.2999 17.6997 24.1666 19.9997 24.1666C22.308 24.1666 24.1663 22.2999 24.1663 19.9999C24.1663 17.6916 22.308 15.8333 19.9997 15.8333ZM21.708 19.6249L21.3997 19.9249L19.583 21.7499C19.4997 21.8249 19.3413 21.9083 19.2247 21.9249L18.408 22.0416C18.1163 22.0833 17.908 21.8749 17.9497 21.5833L18.0663 20.7666C18.083 20.6499 18.158 20.4916 18.2413 20.4083L20.058 18.5999L20.358 18.2916C20.558 18.0916 20.783 17.9583 21.0163 17.9583C21.2163 17.9583 21.4413 18.0499 21.6913 18.2916C22.2497 18.8333 22.0747 19.2583 21.708 19.6249Z" fill="white" fill-opacity="0.5"/>
</svg>
