<svg width="16" height="17" viewBox="0 0 16 17" fill="none" xmlns="http://www.w3.org/2000/svg">
<path d="M6.75 3.75V4H9.25V3.75C9.25 3.41848 9.1183 3.10054 8.88388 2.86612C8.64946 2.6317 8.33152 2.5 8 2.5C7.66848 2.5 7.35054 2.6317 7.11612 2.86612C6.8817 3.10054 6.75 3.41848 6.75 3.75ZM5.75 4V3.75C5.75 3.15326 5.98705 2.58097 6.40901 2.15901C6.83097 1.73705 7.40326 1.5 8 1.5C8.59674 1.5 9.16903 1.73705 9.59099 2.15901C10.0129 2.58097 10.25 3.15326 10.25 3.75V4H14C14.1326 4 14.2598 4.05268 14.3536 4.14645C14.4473 4.24021 14.5 4.36739 14.5 4.5C14.5 4.63261 14.4473 4.75979 14.3536 4.85355C14.2598 4.94732 14.1326 5 14 5H13.246L12.3 13.284C12.2302 13.8941 11.9384 14.4572 11.4801 14.8659C11.0218 15.2746 10.4291 15.5003 9.815 15.5H6.185C5.57093 15.5003 4.97823 15.2746 4.51993 14.8659C4.06162 14.4572 3.76976 13.8941 3.7 13.284L2.754 5H2C1.86739 5 1.74021 4.94732 1.64645 4.85355C1.55268 4.75979 1.5 4.63261 1.5 4.5C1.5 4.36739 1.55268 4.24021 1.64645 4.14645C1.74021 4.05268 1.86739 4 2 4H5.75ZM7 7.25C7 7.11739 6.94732 6.99021 6.85355 6.89645C6.75979 6.80268 6.63261 6.75 6.5 6.75C6.36739 6.75 6.24021 6.80268 6.14645 6.89645C6.05268 6.99021 6 7.11739 6 7.25V12.25C6 12.3826 6.05268 12.5098 6.14645 12.6036C6.24021 12.6973 6.36739 12.75 6.5 12.75C6.63261 12.75 6.75979 12.6973 6.85355 12.6036C6.94732 12.5098 7 12.3826 7 12.25V7.25ZM9.5 6.75C9.36739 6.75 9.24021 6.80268 9.14645 6.89645C9.05268 6.99021 9 7.11739 9 7.25V12.25C9 12.3826 9.05268 12.5098 9.14645 12.6036C9.24021 12.6973 9.36739 12.75 9.5 12.75C9.63261 12.75 9.75979 12.6973 9.85355 12.6036C9.94732 12.5098 10 12.3826 10 12.25V7.25C10 7.11739 9.94732 6.99021 9.85355 6.89645C9.75979 6.80268 9.63261 6.75 9.5 6.75Z" fill="#C42D2F"/>
</svg>
