<svg width="18" height="18" viewBox="0 0 18 18" fill="none" xmlns="http://www.w3.org/2000/svg">
<path d="M16.2525 10.725L15.9525 14.475C15.84 15.6225 15.75 16.5 13.7175 16.5H4.28251C2.25001 16.5 2.16001 15.6225 2.04751 14.475L1.74751 10.725C1.68751 10.1025 1.88251 9.525 2.23501 9.0825C2.24251 9.075 2.24251 9.075 2.25001 9.0675C2.66251 8.565 3.28501 8.25 3.98251 8.25H14.0175C14.715 8.25 15.33 8.565 15.735 9.0525C15.7425 9.06 15.75 9.0675 15.75 9.075C16.1175 9.5175 16.32 10.095 16.2525 10.725Z" stroke="white" stroke-opacity="0.5" stroke-width="1.5" stroke-miterlimit="10"/>
<path d="M2.625 8.57249V4.70999C2.625 2.15999 3.2625 1.52249 5.8125 1.52249H6.765C7.7175 1.52249 7.935 1.80749 8.295 2.28749L9.2475 3.56249C9.4875 3.87749 9.63 4.07249 10.2675 4.07249H12.18C14.73 4.07249 15.3675 4.70999 15.3675 7.25999V8.60249" stroke="white" stroke-opacity="0.5" stroke-width="1.5" stroke-miterlimit="10" stroke-linecap="round" stroke-linejoin="round"/>
<path d="M7.07251 12.75H10.9275" stroke="white" stroke-opacity="0.5" stroke-width="1.5" stroke-miterlimit="10" stroke-linecap="round" stroke-linejoin="round"/>
</svg>
