<svg width="41" height="40" viewBox="0 0 41 40" fill="none" xmlns="http://www.w3.org/2000/svg">
<path d="M36.6167 23.8335L35.9501 32.1668C35.7001 34.7168 35.5001 36.6668 30.9834 36.6668H10.0167C5.50006 36.6668 5.30006 34.7168 5.05006 32.1668L4.38339 23.8335C4.25006 22.4502 4.68339 21.1668 5.46673 20.1835C5.48339 20.1668 5.48339 20.1668 5.50006 20.1502C6.41673 19.0335 7.80006 18.3335 9.35006 18.3335H31.6501C33.2001 18.3335 34.5667 19.0335 35.4667 20.1168C35.4834 20.1335 35.5001 20.1502 35.5001 20.1668C36.3167 21.1502 36.7667 22.4335 36.6167 23.8335Z" stroke="#D5D5D5" stroke-width="1.5" stroke-miterlimit="10"/>
<path d="M6.33337 19.05V10.4666C6.33337 4.79997 7.75004 3.3833 13.4167 3.3833H15.5334C17.65 3.3833 18.1334 4.01663 18.9334 5.0833L21.05 7.91663C21.5834 8.61663 21.9 9.04997 23.3167 9.04997H27.5667C33.2334 9.04997 34.65 10.4666 34.65 16.1333V19.1166" stroke="#D5D5D5" stroke-width="1.5" stroke-miterlimit="10" stroke-linecap="round" stroke-linejoin="round"/>
<path d="M16.2167 28.3335H24.7833" stroke="#D5D5D5" stroke-width="1.5" stroke-miterlimit="10" stroke-linecap="round" stroke-linejoin="round"/>
</svg>
