<svg width="16" height="17" viewBox="0 0 16 17" fill="none" xmlns="http://www.w3.org/2000/svg">
<path d="M10.8908 2.61378L13.3862 5.10922M4.49992 4.50024H1.87498C1.64292 4.50024 1.42037 4.59242 1.25628 4.75651C1.09219 4.9206 1 5.14316 1 5.37522V14.125C1 14.3571 1.09219 14.5796 1.25628 14.7437C1.42037 14.9078 1.64292 15 1.87498 15H11.4998C11.7318 15 11.9544 14.9078 12.1185 14.7437C12.2826 14.5796 12.3747 14.3571 12.3747 14.125V10.1876M14.4826 1.51655C14.6465 1.68044 14.7766 1.87503 14.8653 2.08919C14.954 2.30335 14.9997 2.5329 14.9997 2.76471C14.9997 2.99653 14.954 3.22608 14.8653 3.44024C14.7766 3.6544 14.6465 3.84898 14.4826 4.01287L8.49421 10.0012L5.3749 10.6251L5.99876 7.50579L11.9871 1.51743C12.1509 1.3534 12.3454 1.22327 12.5595 1.13449C12.7736 1.0457 13.0031 1 13.2348 1C13.4666 1 13.6961 1.0457 13.9102 1.13449C14.1243 1.22327 14.3188 1.35253 14.4826 1.51655Z" stroke="#939393" stroke-width="1.2" stroke-linecap="round" stroke-linejoin="round"/>
</svg>
