<svg width="24" height="24" viewBox="0 0 24 24" fill="none" xmlns="http://www.w3.org/2000/svg">
<path d="M4 5C4 4.73478 4.10536 4.48043 4.29289 4.29289C4.48043 4.10536 4.73478 4 5 4H10C10.2652 4 10.5196 4.10536 10.7071 4.29289C10.8946 4.48043 11 4.73478 11 5C11 5.26522 10.8946 5.51957 10.7071 5.70711C10.5196 5.89464 10.2652 6 10 6H7.43L10.71 9.29C10.8037 9.38296 10.8781 9.49356 10.9289 9.61542C10.9797 9.73728 11.0058 9.86799 11.0058 10C11.0058 10.132 10.9797 10.2627 10.9289 10.3846C10.8781 10.5064 10.8037 10.617 10.71 10.71C10.617 10.8037 10.5064 10.8781 10.3846 10.9289C10.2627 10.9797 10.132 11.0058 10 11.0058C9.86799 11.0058 9.73728 10.9797 9.61542 10.9289C9.49356 10.8781 9.38296 10.8037 9.29 10.71L6 7.42V10C6 10.2652 5.89464 10.5196 5.70711 10.7071C5.51957 10.8946 5.26522 11 5 11C4.73478 11 4.48043 10.8946 4.29289 10.7071C4.10536 10.5196 4 10.2652 4 10V5ZM13.29 13.29C13.383 13.1963 13.4936 13.1219 13.6154 13.0711C13.7373 13.0203 13.868 12.9942 14 12.9942C14.132 12.9942 14.2627 13.0203 14.3846 13.0711C14.5064 13.1219 14.617 13.1963 14.71 13.29L18 16.57V14C18 13.7348 18.1054 13.4804 18.2929 13.2929C18.4804 13.1054 18.7348 13 19 13C19.2652 13 19.5196 13.1054 19.7071 13.2929C19.8946 13.4804 20 13.7348 20 14V19C20 19.2652 19.8946 19.5196 19.7071 19.7071C19.5196 19.8946 19.2652 20 19 20H14C13.7348 20 13.4804 19.8946 13.2929 19.7071C13.1054 19.5196 13 19.2652 13 19C13 18.7348 13.1054 18.4804 13.2929 18.2929C13.4804 18.1054 13.7348 18 14 18H16.58L13.29 14.71C13.1963 14.617 13.1219 14.5064 13.0711 14.3846C13.0203 14.2627 12.9942 14.132 12.9942 14C12.9942 13.868 13.0203 13.7373 13.0711 13.6154C13.1219 13.4936 13.1963 13.383 13.29 13.29Z" fill="white"/>
</svg>
