<svg width="14" height="14" viewBox="0 0 14 14" fill="none" xmlns="http://www.w3.org/2000/svg">
<path d="M3.14994 1.2251H10.8499C11.4916 1.2251 12.0166 1.7501 12.0166 2.39176V3.6751C12.0166 4.14176 11.7249 4.7251 11.4333 5.01676L8.92494 7.23343C8.57494 7.5251 8.34161 8.10843 8.34161 8.5751V11.0834C8.34161 11.4334 8.10828 11.9001 7.81661 12.0751L6.99994 12.6001C6.24161 13.0668 5.19161 12.5418 5.19161 11.6084V8.51676C5.19161 8.10843 4.95828 7.58343 4.72494 7.29176L2.50828 4.95843C2.21661 4.66676 1.98328 4.14176 1.98328 3.79176V2.4501C1.98328 1.7501 2.50828 1.2251 3.14994 1.2251Z" stroke="#868686" stroke-miterlimit="10" stroke-linecap="round" stroke-linejoin="round"/>
<path d="M6.37583 1.2251L3.5 5.83343" stroke="#868686" stroke-miterlimit="10" stroke-linecap="round" stroke-linejoin="round"/>
</svg>
