<svg width="18" height="18" viewBox="0 0 18 18" fill="none" xmlns="http://www.w3.org/2000/svg">
<g clip-path="url(#clip0_138_611)">
<path d="M9 16.875C4.6575 16.875 1.125 13.3425 1.125 9C1.125 4.6575 4.6575 1.125 9 1.125C13.3425 1.125 16.875 4.6575 16.875 9C16.875 13.3425 13.3425 16.875 9 16.875ZM9 2.25C5.27625 2.25 2.25 5.27625 2.25 9C2.25 12.7238 5.27625 15.75 9 15.75C12.7238 15.75 15.75 12.7238 15.75 9C15.75 5.27625 12.7238 2.25 9 2.25Z" fill="white" fill-opacity="0.5" stroke="#808080" stroke-width="0.3"/>
<path d="M9.54749 12.375C9.54749 12.6774 9.30237 12.9225 8.99999 12.9225C8.69761 12.9225 8.45249 12.6774 8.45249 12.375C8.45249 12.0726 8.69761 11.8275 8.99999 11.8275C9.30237 11.8275 9.54749 12.0726 9.54749 12.375Z" fill="white" fill-opacity="0.5" stroke="#808080" stroke-width="0.3"/>
<mask id="path-3-inside-1_138_611" fill="white">
<path fill-rule="evenodd" clip-rule="evenodd" d="M9 5.0625C7.75125 5.0625 6.75 6.06375 6.75 7.3125C6.75 7.62316 7.00184 7.875 7.3125 7.875C7.62316 7.875 7.875 7.62316 7.875 7.3125C7.875 6.69375 8.38125 6.1875 9 6.1875C9.61875 6.1875 10.125 6.69375 10.125 7.3125C10.125 7.80749 9.79832 8.05855 9.43243 8.33975C8.96672 8.69765 8.4375 9.10438 8.4375 10.125C8.4375 10.4357 8.68934 10.6875 9 10.6875C9.31066 10.6875 9.5625 10.4357 9.5625 10.125C9.5625 9.51229 9.96153 9.16295 10.3715 8.80401C10.8046 8.42482 11.25 8.03492 11.25 7.3125C11.25 6.06375 10.2487 5.0625 9 5.0625Z"/>
</mask>
<path fill-rule="evenodd" clip-rule="evenodd" d="M9 5.0625C7.75125 5.0625 6.75 6.06375 6.75 7.3125C6.75 7.62316 7.00184 7.875 7.3125 7.875C7.62316 7.875 7.875 7.62316 7.875 7.3125C7.875 6.69375 8.38125 6.1875 9 6.1875C9.61875 6.1875 10.125 6.69375 10.125 7.3125C10.125 7.80749 9.79832 8.05855 9.43243 8.33975C8.96672 8.69765 8.4375 9.10438 8.4375 10.125C8.4375 10.4357 8.68934 10.6875 9 10.6875C9.31066 10.6875 9.5625 10.4357 9.5625 10.125C9.5625 9.51229 9.96153 9.16295 10.3715 8.80401C10.8046 8.42482 11.25 8.03492 11.25 7.3125C11.25 6.06375 10.2487 5.0625 9 5.0625Z" fill="white" fill-opacity="0.5"/>
<path d="M9.43243 8.33975L9.61524 8.57762V8.57762L9.43243 8.33975ZM10.3715 8.80401L10.1739 8.57829H10.1739L10.3715 8.80401ZM7.05 7.3125C7.05 6.22944 7.91694 5.3625 9 5.3625V4.7625C7.58556 4.7625 6.45 5.89806 6.45 7.3125H7.05ZM7.3125 7.575C7.16753 7.575 7.05 7.45747 7.05 7.3125H6.45C6.45 7.78885 6.83615 8.175 7.3125 8.175V7.575ZM7.575 7.3125C7.575 7.45747 7.45747 7.575 7.3125 7.575V8.175C7.78885 8.175 8.175 7.78885 8.175 7.3125H7.575ZM9 5.8875C8.21556 5.8875 7.575 6.52806 7.575 7.3125H8.175C8.175 6.85944 8.54694 6.4875 9 6.4875V5.8875ZM10.425 7.3125C10.425 6.52806 9.78444 5.8875 9 5.8875V6.4875C9.45306 6.4875 9.825 6.85944 9.825 7.3125H10.425ZM9.61524 8.57762C9.96289 8.31044 10.425 7.97505 10.425 7.3125H9.825C9.825 7.63992 9.63375 7.80666 9.24962 8.10188L9.61524 8.57762ZM8.7375 10.125C8.7375 9.67217 8.85315 9.37585 9.00663 9.15512C9.16671 8.92491 9.37816 8.75982 9.61524 8.57762L9.24962 8.10188C9.02099 8.27759 8.73498 8.49481 8.51402 8.81259C8.28646 9.13985 8.1375 9.55721 8.1375 10.125H8.7375ZM8.1375 10.125C8.1375 10.6013 8.52365 10.9875 9 10.9875V10.3875C8.85503 10.3875 8.7375 10.27 8.7375 10.125H8.1375ZM9 10.9875C9.47635 10.9875 9.8625 10.6013 9.8625 10.125H9.2625C9.2625 10.27 9.14497 10.3875 9 10.3875V10.9875ZM10.1739 8.57829C9.77918 8.92387 9.2625 9.35778 9.2625 10.125H9.8625C9.8625 9.6668 10.1439 9.40202 10.5691 9.02973L10.1739 8.57829ZM10.95 7.3125C10.95 7.88359 10.6163 8.19103 10.1739 8.57829L10.5691 9.02973C10.993 8.65861 11.55 8.18626 11.55 7.3125H10.95ZM9 5.3625C10.0831 5.3625 10.95 6.22944 10.95 7.3125H11.55C11.55 5.89806 10.4144 4.7625 9 4.7625V5.3625Z" fill="#808080" mask="url(#path-3-inside-1_138_611)"/>
</g>
<defs>
<clipPath id="clip0_138_611">
<rect width="18" height="18" fill="white"/>
</clipPath>
</defs>
</svg>
