<svg width="20" height="20" viewBox="0 0 20 20" fill="none" xmlns="http://www.w3.org/2000/svg">
<path d="M15.575 9.60841C15.1 9.48341 14.5416 9.41675 13.875 9.41675C12.95 9.41675 12.6083 9.64175 12.1333 10.0001C12.1083 10.0167 12.0833 10.0417 12.0583 10.0667L11.2667 10.9084C10.6083 11.6167 9.39998 11.6167 8.73332 10.9084L7.94165 10.0751C7.91665 10.0417 7.89165 10.0167 7.86665 10.0001C7.38332 9.64175 7.04165 9.41675 6.12498 9.41675C5.45832 9.41675 4.89998 9.47508 4.42498 9.60841C2.44165 10.1417 2.44165 11.7167 2.44165 13.1001V13.8751C2.44165 15.9667 2.44165 18.3334 6.89998 18.3334H13.1C16.0583 18.3334 17.5583 16.8334 17.5583 13.8751V13.1001C17.5583 11.7167 17.5583 10.1417 15.575 9.60841Z" fill="#6D6D6D"/>
<path opacity="0.4" d="M12.325 1.66675H7.67503C3.9917 1.66675 3.9917 3.62508 3.9917 5.35008V10.1751C3.9917 10.3584 4.07503 10.5251 4.2167 10.6334C4.35837 10.7417 4.55003 10.7834 4.72503 10.7334C5.10003 10.6334 5.5667 10.5834 6.12503 10.5834C6.68337 10.5834 6.80003 10.6501 7.13337 10.9001L7.8917 11.7001C8.43337 12.2834 9.20837 12.6167 10.0084 12.6167C10.8084 12.6167 11.575 12.2834 12.125 11.7001L12.8834 10.9001C13.2167 10.6501 13.3334 10.5834 13.8917 10.5834C14.45 10.5834 14.9167 10.6334 15.2917 10.7334C15.4667 10.7834 15.65 10.7417 15.8 10.6334C15.9417 10.5251 16.025 10.3501 16.025 10.1751V5.35008C16.0084 3.62508 16.0084 1.66675 12.325 1.66675Z" fill="#6D6D6D"/>
<path d="M11.2917 8.25822H8.70833C8.38333 8.25822 8.125 7.99989 8.125 7.67489C8.125 7.34989 8.38333 7.09155 8.70833 7.09155H11.2917C11.6167 7.09155 11.875 7.34989 11.875 7.67489C11.875 7.99155 11.6083 8.25822 11.2917 8.25822Z" fill="#6D6D6D"/>
<path d="M11.9416 5.93327H8.05831C7.73331 5.93327 7.47498 5.67494 7.47498 5.34994C7.47498 5.02494 7.73331 4.7666 8.05831 4.7666H11.9333C12.2583 4.7666 12.5166 5.02494 12.5166 5.34994C12.5166 5.6666 12.2583 5.93327 11.9416 5.93327Z" fill="#6D6D6D"/>
</svg>
