<svg width="17" height="16" viewBox="0 0 17 16" fill="none" xmlns="http://www.w3.org/2000/svg">
<path d="M13.8333 9.33332C13.6558 9.33733 13.4792 9.30583 13.314 9.24067C13.1488 9.17551 12.9982 9.07799 12.8712 8.95385C12.7442 8.82971 12.6433 8.68144 12.5744 8.51776C12.5054 8.35407 12.4699 8.17826 12.4699 8.00066C12.4698 7.82305 12.5053 7.64723 12.5741 7.48351C12.6429 7.31979 12.7438 7.17147 12.8707 7.04727C12.9977 6.92306 13.1482 6.82547 13.3134 6.76023C13.4786 6.69498 13.6551 6.66339 13.8327 6.66732C14.181 6.67502 14.5126 6.8188 14.7563 7.06788C14.9999 7.31695 15.1364 7.65153 15.1365 7.99999C15.1366 8.34845 15.0003 8.6831 14.7567 8.9323C14.5132 9.18149 14.1817 9.32544 13.8333 9.33332ZM4.50001 7.99998C4.50402 8.17754 4.47252 8.35412 4.40736 8.51933C4.34219 8.68455 4.24468 8.83509 4.12054 8.9621C3.99639 9.08911 3.84813 9.19004 3.68444 9.25897C3.52076 9.32789 3.34495 9.36342 3.16735 9.36346C2.98974 9.36351 2.81392 9.32807 2.6502 9.25923C2.48648 9.19038 2.33816 9.08953 2.21396 8.96258C2.08975 8.83563 1.99216 8.68514 1.92691 8.51995C1.86167 8.35477 1.83008 8.17821 1.83401 8.00065C1.84171 7.65228 1.98549 7.32076 2.23456 7.07707C2.48364 6.83338 2.81822 6.69688 3.16668 6.69679C3.51514 6.69671 3.84979 6.83304 4.09898 7.0766C4.34818 7.32017 4.49213 7.65161 4.50001 7.99998ZM9.83334 7.99998C9.83735 8.17754 9.80586 8.35412 9.74069 8.51933C9.67553 8.68455 9.57801 8.83509 9.45387 8.9621C9.32973 9.08911 9.18146 9.19004 9.01778 9.25897C8.85409 9.32789 8.67828 9.36342 8.50068 9.36346C8.32307 9.36351 8.14725 9.32807 7.98353 9.25923C7.81981 9.19038 7.67149 9.08953 7.54729 8.96258C7.42308 8.83563 7.32549 8.68514 7.26025 8.51995C7.195 8.35477 7.16341 8.17821 7.16734 8.00065C7.17504 7.65228 7.31882 7.32076 7.5679 7.07707C7.81697 6.83338 8.15155 6.69688 8.50001 6.69679C8.84847 6.69671 9.18312 6.83304 9.43232 7.0766C9.68152 7.32017 9.82546 7.65161 9.83334 7.99998Z" fill="#939393"/>
</svg>
