<svg width="30" height="31" viewBox="0 0 30 31" fill="none" xmlns="http://www.w3.org/2000/svg">
<path d="M17.8125 13.625C18.3688 13.625 18.9125 13.4601 19.375 13.151C19.8376 12.842 20.198 12.4027 20.4109 11.8888C20.6238 11.3749 20.6795 10.8094 20.571 10.2638C20.4624 9.71824 20.1946 9.2171 19.8012 8.82376C19.4079 8.43043 18.9068 8.16256 18.3612 8.05404C17.8156 7.94552 17.2501 8.00122 16.7362 8.21409C16.2223 8.42696 15.783 8.78745 15.474 9.24996C15.1649 9.71247 15 10.2562 15 10.8125C15 11.5584 15.2963 12.2738 15.8238 12.8012C16.3512 13.3287 17.0666 13.625 17.8125 13.625ZM17.8125 9.875C17.9979 9.875 18.1792 9.92998 18.3333 10.033C18.4875 10.136 18.6077 10.2824 18.6786 10.4537C18.7496 10.625 18.7682 10.8135 18.732 10.9954C18.6958 11.1773 18.6065 11.3443 18.4754 11.4754C18.3443 11.6065 18.1773 11.6958 17.9954 11.732C17.8135 11.7682 17.625 11.7496 17.4537 11.6786C17.2824 11.6077 17.136 11.4875 17.033 11.3333C16.93 11.1792 16.875 10.9979 16.875 10.8125C16.875 10.5639 16.9738 10.3254 17.1496 10.1496C17.3254 9.97377 17.5639 9.875 17.8125 9.875Z" fill="white"/>
<path d="M24.375 4.25H5.625C5.12772 4.25 4.65081 4.44754 4.29917 4.79917C3.94754 5.15081 3.75 5.62772 3.75 6.125V24.875C3.75 25.3723 3.94754 25.8492 4.29917 26.2008C4.65081 26.5525 5.12772 26.75 5.625 26.75H24.375C24.8723 26.75 25.3492 26.5525 25.7008 26.2008C26.0525 25.8492 26.25 25.3723 26.25 24.875V6.125C26.25 5.62772 26.0525 5.15081 25.7008 4.79917C25.3492 4.44754 24.8723 4.25 24.375 4.25ZM24.375 24.875H5.625V19.25L10.3125 14.5625L15.5531 19.8031C15.9044 20.1523 16.3797 20.3484 16.875 20.3484C17.3703 20.3484 17.8456 20.1523 18.1969 19.8031L19.6875 18.3125L24.375 23V24.875ZM24.375 20.3469L21.0094 16.9812C20.6581 16.632 20.1828 16.436 19.6875 16.436C19.1922 16.436 18.7169 16.632 18.3656 16.9812L16.875 18.4719L11.6344 13.2312C11.2831 12.882 10.8078 12.686 10.3125 12.686C9.81715 12.686 9.34193 12.882 8.99063 13.2312L5.625 16.5969V6.125H24.375V20.3469Z" fill="white"/>
</svg>
