<svg width="18" height="18" viewBox="0 0 18 18" fill="none" xmlns="http://www.w3.org/2000/svg">
<path d="M7.49249 17.085C7.04249 17.085 6.61499 16.86 6.32249 16.4625L5.42251 15.2625C5.42251 15.27 5.385 15.2475 5.37 15.2475H5.09251C2.52751 15.2475 0.9375 14.55 0.9375 11.0925V8.09251C0.9375 4.93501 2.86501 4.11001 4.48501 3.96751C4.66501 3.94501 4.87501 3.9375 5.09251 3.9375H9.8925C12.6075 3.9375 14.0475 5.37751 14.0475 8.09251V11.0925C14.0475 11.31 14.04 11.52 14.01 11.7225C13.875 13.32 13.05 15.2475 9.8925 15.2475H9.59251L8.66249 16.4625C8.36999 16.86 7.94249 17.085 7.49249 17.085ZM5.09251 5.0625C4.92001 5.0625 4.755 5.07 4.5975 5.085C2.8575 5.235 2.0625 6.18751 2.0625 8.09251V11.0925C2.0625 13.665 2.85751 14.1225 5.09251 14.1225H5.3925C5.73 14.1225 6.11249 14.31 6.32249 14.58L7.2225 15.7875C7.3875 16.0125 7.5975 16.0125 7.7625 15.7875L8.66249 14.5875C8.87999 14.295 9.22501 14.1225 9.59251 14.1225H9.8925C11.7975 14.1225 12.75 13.32 12.8925 11.61C12.915 11.43 12.9225 11.265 12.9225 11.0925V8.09251C12.9225 6.00001 11.985 5.0625 9.8925 5.0625H5.09251Z" fill="white" fill-opacity="0.5"/>
<path d="M7.49268 10.6425C7.07268 10.6425 6.74268 10.305 6.74268 9.8925C6.74268 9.48 7.08018 9.1425 7.49268 9.1425C7.90518 9.1425 8.24268 9.48 8.24268 9.8925C8.24268 10.305 7.91268 10.6425 7.49268 10.6425Z" fill="white" fill-opacity="0.5"/>
<path d="M9.89246 10.6425C9.47246 10.6425 9.14246 10.305 9.14246 9.8925C9.14246 9.48 9.47996 9.1425 9.89246 9.1425C10.305 9.1425 10.6425 9.48 10.6425 9.8925C10.6425 10.305 10.305 10.6425 9.89246 10.6425Z" fill="white" fill-opacity="0.5"/>
<path d="M5.09985 10.6425C4.67985 10.6425 4.34985 10.305 4.34985 9.8925C4.34985 9.48 4.68735 9.1425 5.09985 9.1425C5.51235 9.1425 5.84985 9.48 5.84985 9.8925C5.84985 10.305 5.51235 10.6425 5.09985 10.6425Z" fill="white" fill-opacity="0.5"/>
<path d="M13.4551 12.2175C13.3051 12.2175 13.1551 12.1575 13.0501 12.045C12.9301 11.925 12.8776 11.7525 12.9001 11.5875C12.9226 11.43 12.9301 11.265 12.9301 11.0925V8.09251C12.9301 6.00001 11.9926 5.0625 9.90011 5.0625H5.10009C4.92759 5.0625 4.76261 5.07 4.60511 5.085C4.44011 5.1075 4.2676 5.04749 4.1476 4.93499C4.0276 4.81499 3.96009 4.65001 3.97509 4.48501C4.11009 2.86501 4.94259 0.9375 8.10009 0.9375H12.9001C15.6151 0.9375 17.0551 2.37751 17.0551 5.09251V8.09251C17.0551 11.25 15.1276 12.075 13.5076 12.2175C13.4851 12.2175 13.4701 12.2175 13.4551 12.2175ZM5.19011 3.9375H9.8926C12.6076 3.9375 14.0476 5.37751 14.0476 8.09251V10.995C15.3226 10.68 15.9226 9.74251 15.9226 8.09251V5.09251C15.9226 3.00001 14.9851 2.0625 12.8926 2.0625H8.09261C6.44261 2.0625 5.51261 2.6625 5.19011 3.9375Z" fill="white" fill-opacity="0.5"/>
</svg>
