<svg width="180" height="38" viewBox="0 0 180 38" fill="none" xmlns="http://www.w3.org/2000/svg">
<path d="M20.8131 0H29.5303V8.54619C29.5303 10.0112 28.1275 10.8862 27.4261 11.1406L8.6392 19.0763H29.5303V27.6225H0.222656V14.1928C0.222656 12.9719 1.52522 12.0562 2.1765 11.751L20.8131 3.96787V0Z" fill="#005DE9"/>
<path d="M38.0971 38H29.38V29.4538C29.38 27.9888 30.7827 27.1138 31.4841 26.8594L50.271 18.9237H29.38V10.3775L58.6876 10.3775L58.6876 23.8072C58.6876 25.0281 57.385 25.9438 56.7337 26.249L38.0971 34.0321V38Z" fill="#005DE9"/>
<path d="M69.8674 10.4086C70.9573 10.4086 71.9502 10.5417 72.8463 10.8079C73.7424 11.0499 74.5053 11.4129 75.1349 11.8968C75.7888 12.3566 76.2974 12.9374 76.6607 13.6392C77.024 14.3167 77.2056 15.0911 77.2056 15.9623H72.3377C72.3377 15.6235 72.2529 15.3331 72.0834 15.0911C71.9381 14.8491 71.7444 14.6555 71.5022 14.5103C71.26 14.3409 70.9936 14.2199 70.7029 14.1473C70.4123 14.0747 70.1217 14.0384 69.8311 14.0384C69.2741 14.0384 68.7776 14.1231 68.3417 14.2925C67.9057 14.4619 67.6878 14.7523 67.6878 15.1637C67.6878 15.7445 68.3538 16.168 69.6858 16.4341C69.8311 16.4825 70.0854 16.543 70.4487 16.6156C70.8119 16.664 71.0904 16.7245 71.2842 16.7971C71.9623 16.9423 72.6647 17.1117 73.3912 17.3053C74.1178 17.4989 74.7717 17.7893 75.3529 18.1765C75.9584 18.5395 76.4548 19.0234 76.8423 19.6284C77.2298 20.2092 77.4236 20.9594 77.4236 21.8789C77.4236 22.7501 77.2298 23.5003 76.8423 24.1294C76.4791 24.7344 75.9705 25.2426 75.3166 25.654C74.6869 26.0654 73.9361 26.3678 73.0643 26.5614C72.1924 26.755 71.26 26.8518 70.267 26.8518C69.3225 26.8518 68.4022 26.7066 67.5061 26.4162C66.61 26.15 65.7987 25.7629 65.0722 25.2547C64.3698 24.7465 63.7886 24.1294 63.3284 23.4035C62.8925 22.6533 62.6745 21.8184 62.6745 20.8989H67.942C67.9905 21.5764 68.2811 22.0725 68.8139 22.3871C69.3467 22.6775 69.9643 22.8227 70.6666 22.8227C71.3447 22.8227 71.8291 22.7138 72.1197 22.496C72.4104 22.254 72.5436 21.9394 72.5193 21.5522C72.5193 21.407 72.4951 21.2498 72.4467 21.0804C72.3983 20.911 72.3014 20.7416 72.1561 20.5722C72.0107 20.4028 71.7928 20.2576 71.5022 20.1366C71.2358 20.0156 70.8725 19.9188 70.4123 19.8462C70.267 19.7978 70.0369 19.7615 69.7221 19.7373C69.4315 19.6889 69.2135 19.6526 69.0682 19.6284C68.4385 19.5558 67.7483 19.4469 66.9975 19.3017C66.2468 19.1565 65.5444 18.9387 64.8905 18.6484C64.2608 18.358 63.7159 17.9708 63.2558 17.4868C62.8198 16.9786 62.6019 16.3374 62.6019 15.563C62.6019 14.9822 62.7351 14.3893 63.0015 13.7844C63.2921 13.1794 63.728 12.6228 64.3093 12.1146C64.8905 11.6064 65.6413 11.1951 66.5616 10.8805C67.4819 10.5659 68.5838 10.4086 69.8674 10.4086Z" fill="white"/>
<path d="M82.5395 10.8079L86.0633 20.7174L89.0059 10.8079H93.9828L87.6618 28.2675C87.4196 28.945 87.1047 29.5863 86.7172 30.1913C86.354 30.8205 85.9301 31.3649 85.4458 31.8247C84.9856 32.3087 84.4528 32.6838 83.8473 32.95C83.2661 33.2404 82.6364 33.3856 81.9583 33.3856H78.6161V28.5579H82.031C82.3942 28.5579 82.7333 28.4248 83.0481 28.1586C83.3872 27.9166 83.5325 27.602 83.4841 27.2148L77.4173 10.8079H82.5395Z" fill="white"/>
<path d="M99.3428 10.8079H102.721C104.61 10.8079 106.1 11.3282 107.19 12.3687C108.279 13.4093 108.824 14.8733 108.824 16.7608V26.0896H103.92V16.7608C103.92 16.422 103.823 16.1317 103.629 15.8897C103.436 15.6477 103.133 15.5267 102.721 15.5267H100.287C99.8756 15.5267 99.5729 15.6598 99.3791 15.926C99.2096 16.168 99.1248 16.4583 99.1248 16.7971V26.0896H94.1843V16.7971C94.1843 14.9096 94.6565 13.4456 95.6011 12.405C96.5698 11.3403 97.817 10.8079 99.3428 10.8079Z" fill="white"/>
<path d="M125.178 22.0604C124.5 23.5366 123.483 24.6739 122.127 25.4725C120.77 26.271 119.293 26.6703 117.695 26.6703C116.677 26.6703 115.745 26.4888 114.897 26.1259C114.05 25.7629 113.311 25.2668 112.681 24.6376C112.052 23.9842 111.531 23.2341 111.119 22.3871C110.732 21.5401 110.477 20.6327 110.356 19.6647C110.211 18.5758 110.247 17.4989 110.465 16.4341C110.708 15.3452 111.131 14.3651 111.737 13.494C112.366 12.6228 113.202 11.921 114.243 11.3887C115.285 10.8563 116.544 10.5901 118.022 10.5901C119.62 10.5901 121.049 11.0136 122.308 11.8605C123.592 12.7075 124.548 13.8207 125.178 15.2L120.782 17.1964C120.54 16.664 120.165 16.2285 119.656 15.8897C119.148 15.5509 118.603 15.3815 118.022 15.3815C117.44 15.3815 116.944 15.4904 116.532 15.7082C116.145 15.926 115.83 16.2043 115.588 16.543C115.345 16.8818 115.176 17.269 115.079 17.7046C115.006 18.1402 114.994 18.5758 115.043 19.0113C115.14 19.7373 115.418 20.3907 115.878 20.9715C116.363 21.528 117.016 21.8063 117.84 21.8063C118.445 21.8063 119.014 21.6611 119.547 21.3707C120.08 21.0562 120.492 20.6206 120.782 20.064L125.178 22.0604Z" fill="white"/>
<path d="M140.372 11.1346V12.2961L132.597 23.4398H140.372V26.0896H128.601V24.7102L136.557 13.6029H129.11V11.1346H140.372Z" fill="white"/>
<path d="M148.095 13.4214C147.611 13.4214 147.139 13.5182 146.678 13.7118C146.218 13.9054 145.807 14.1836 145.443 14.5466C145.08 14.8854 144.777 15.2968 144.535 15.7808C144.293 16.2648 144.148 16.7971 144.099 17.3779H151.982C151.934 17.0149 151.837 16.6035 151.692 16.1438C151.546 15.684 151.316 15.2605 151.001 14.8733C150.711 14.4619 150.323 14.1231 149.839 13.857C149.379 13.5666 148.798 13.4214 148.095 13.4214ZM148.204 11.2798C149.124 11.2798 149.984 11.4613 150.783 11.8242C151.583 12.1872 152.273 12.7075 152.854 13.3851C153.46 14.0384 153.92 14.8491 154.235 15.8171C154.574 16.785 154.719 17.8861 154.67 19.1202H144.135C144.135 19.7494 144.22 20.3665 144.39 20.9715C144.583 21.5522 144.85 22.0725 145.189 22.5323C145.552 22.9679 146 23.3188 146.533 23.585C147.066 23.8511 147.671 23.9842 148.349 23.9842C149.197 23.9842 149.912 23.8027 150.493 23.4398C151.074 23.0526 151.498 22.4597 151.764 21.6611H154.489C154.319 22.4597 154.029 23.1736 153.617 23.8027C153.229 24.4077 152.757 24.9159 152.2 25.3273C151.667 25.7387 151.074 26.0412 150.42 26.2347C149.766 26.4525 149.088 26.5614 148.386 26.5614C148.289 26.5614 148.192 26.5493 148.095 26.5251C147.998 26.5251 147.901 26.5251 147.805 26.5251C147.005 26.4525 146.23 26.2347 145.48 25.8718C144.729 25.5088 144.063 25.0006 143.482 24.3472C142.9 23.6939 142.428 22.8953 142.065 21.9515C141.726 21.0078 141.568 19.9067 141.593 18.6484C141.593 17.7046 141.726 16.7971 141.992 15.926C142.283 15.0306 142.694 14.2441 143.227 13.5666C143.784 12.8648 144.475 12.3082 145.298 11.8968C146.121 11.4855 147.09 11.2798 148.204 11.2798Z" fill="white"/>
<path d="M160.669 11.1709H165.101V13.494H161.142C160.464 13.494 159.967 13.7723 159.652 14.3288C159.337 14.8612 159.18 15.5146 159.18 16.289V26.0896H156.383V16.6156C156.383 14.8733 156.77 13.5303 157.545 12.5865C158.32 11.6427 159.362 11.1709 160.669 11.1709Z" fill="white"/>
<path d="M172.654 24.0205C173.356 24.0205 173.986 23.8874 174.543 23.6213C175.1 23.3309 175.56 22.9558 175.924 22.496C176.311 22.012 176.602 21.4675 176.795 20.8626C176.989 20.2334 177.086 19.58 177.086 18.9024C177.062 18.2491 176.941 17.632 176.723 17.0512C176.505 16.4704 176.202 15.9623 175.815 15.5267C175.451 15.0669 174.991 14.7039 174.434 14.4377C173.901 14.1715 173.296 14.0384 172.618 14.0384C171.94 14.0384 171.322 14.1715 170.765 14.4377C170.232 14.7039 169.772 15.0669 169.385 15.5267C169.021 15.9623 168.731 16.4704 168.513 17.0512C168.295 17.632 168.186 18.2491 168.186 18.9024C168.186 19.58 168.283 20.2334 168.476 20.8626C168.67 21.4675 168.961 22.012 169.348 22.496C169.736 22.9558 170.208 23.3309 170.765 23.6213C171.322 23.8874 171.952 24.0205 172.654 24.0205ZM172.618 11.3524C173.78 11.3524 174.797 11.5701 175.669 12.0057C176.565 12.4171 177.316 12.9737 177.922 13.6755C178.527 14.353 178.975 15.1516 179.266 16.0712C179.581 16.9665 179.75 17.8861 179.774 18.8299C179.799 19.7978 179.665 20.7537 179.375 21.6974C179.108 22.6412 178.672 23.4882 178.067 24.2383C177.486 24.9643 176.735 25.5572 175.815 26.017C174.919 26.4525 173.865 26.6703 172.654 26.6703C171.443 26.6703 170.378 26.4525 169.457 26.017C168.561 25.5572 167.81 24.9643 167.205 24.2383C166.624 23.4882 166.188 22.6412 165.897 21.6974C165.607 20.7537 165.473 19.7978 165.498 18.8299C165.522 17.8861 165.691 16.9665 166.006 16.0712C166.321 15.1516 166.769 14.353 167.35 13.6755C167.956 12.9737 168.694 12.4171 169.566 12.0057C170.438 11.5701 171.455 11.3524 172.618 11.3524Z" fill="white"/>
</svg>
