<svg width="16" height="17" viewBox="0 0 16 17" fill="none" xmlns="http://www.w3.org/2000/svg">
<path d="M12 13.0735H11.4933C10.96 13.0735 10.4533 13.2802 10.08 13.6535L8.93998 14.7802C8.41998 15.2935 7.57334 15.2935 7.05334 14.7802L5.91333 13.6535C5.54 13.2802 5.02667 13.0735 4.5 13.0735H4C2.89333 13.0735 2 12.1868 2 11.0935V3.8135C2 2.72016 2.89333 1.8335 4 1.8335H12C13.1067 1.8335 14 2.72016 14 3.8135V11.0868C14 12.1802 13.1067 13.0735 12 13.0735Z" stroke="#6D6D6D" stroke-miterlimit="10" stroke-linecap="round" stroke-linejoin="round"/>
<path d="M8.04665 6.4667C8.01998 6.4667 7.97997 6.4667 7.94663 6.4667C7.24663 6.44003 6.6933 5.87337 6.6933 5.1667C6.6933 4.4467 7.27331 3.8667 7.99331 3.8667C8.71331 3.8667 9.29331 4.45337 9.29331 5.1667C9.29998 5.87337 8.74665 6.4467 8.04665 6.4667Z" stroke="#6D6D6D" stroke-linecap="round" stroke-linejoin="round"/>
<path d="M6.16665 8.47314C5.27998 9.06648 5.27998 10.0331 6.16665 10.6265C7.17331 11.2998 8.82665 11.2998 9.83331 10.6265C10.72 10.0331 10.72 9.06648 9.83331 8.47314C8.82665 7.80648 7.17998 7.80648 6.16665 8.47314Z" stroke="#6D6D6D" stroke-linecap="round" stroke-linejoin="round"/>
</svg>
