<svg width="21" height="20" viewBox="0 0 21 20" fill="none" xmlns="http://www.w3.org/2000/svg">
<path d="M7.96253 15.1976C7.94503 15.1976 7.9217 15.2092 7.9042 15.2092C6.77253 14.6492 5.85087 13.7217 5.28503 12.5901C5.28503 12.5726 5.2967 12.5492 5.2967 12.5317C6.00837 12.7417 6.74337 12.8992 7.47253 13.0217C7.60087 13.7567 7.75253 14.4859 7.96253 15.1976Z" fill="white"/>
<path d="M15.7149 12.5959C15.1374 13.7567 14.1749 14.6959 13.0024 15.2617C13.2241 14.5209 13.4108 13.7742 13.5333 13.0217C14.2683 12.8992 14.9916 12.7417 15.7033 12.5317C15.6974 12.5551 15.7149 12.5784 15.7149 12.5959Z" fill="white"/>
<path d="M15.7616 7.49745C15.0266 7.27578 14.2858 7.09495 13.5333 6.96661C13.4108 6.21411 13.2299 5.46745 13.0024 4.73828C14.2099 5.31578 15.1841 6.28995 15.7616 7.49745Z" fill="white"/>
<path d="M7.96245 4.80241C7.75245 5.51408 7.60078 6.23741 7.47828 6.97241C6.72578 7.08908 5.97911 7.27575 5.23828 7.49741C5.80411 6.32491 6.74328 5.36241 7.90411 4.78491C7.92161 4.78491 7.94495 4.80241 7.96245 4.80241Z" fill="white"/>
<path d="M12.5358 6.84425C11.1824 6.69258 9.81744 6.69258 8.46411 6.84425C8.60994 6.04508 8.79661 5.24591 9.05911 4.47591C9.07078 4.42925 9.06494 4.39425 9.07078 4.34758C9.53161 4.23675 10.0041 4.16675 10.4999 4.16675C10.9899 4.16675 11.4683 4.23675 11.9233 4.34758C11.9291 4.39425 11.9291 4.42925 11.9408 4.47591C12.2033 5.25175 12.3899 6.04508 12.5358 6.84425Z" fill="white"/>
<path d="M7.34413 12.0358C6.53913 11.8899 5.74579 11.7033 4.97579 11.4408C4.92913 11.4291 4.89413 11.4349 4.84746 11.4291C4.73663 10.9683 4.66663 10.4958 4.66663 9.99994C4.66663 9.50994 4.73663 9.03161 4.84746 8.57661C4.89413 8.57078 4.92913 8.57078 4.97579 8.55911C5.75163 8.30244 6.53913 8.10994 7.34413 7.96411C7.19829 9.31744 7.19829 10.6824 7.34413 12.0358Z" fill="white"/>
<path d="M16.3334 9.99994C16.3334 10.4958 16.2634 10.9683 16.1526 11.4291C16.1059 11.4349 16.0709 11.4291 16.0242 11.4408C15.2484 11.6974 14.4551 11.8899 13.6559 12.0358C13.8076 10.6824 13.8076 9.31744 13.6559 7.96411C14.4551 8.10994 15.2542 8.29661 16.0242 8.55911C16.0709 8.57078 16.1059 8.57661 16.1526 8.57661C16.2634 9.03744 16.3334 9.50994 16.3334 9.99994Z" fill="white"/>
<path d="M12.5358 13.1558C12.3899 13.9608 12.2033 14.7541 11.9408 15.5241C11.9291 15.5708 11.9291 15.6058 11.9233 15.6524C11.4683 15.7633 10.9899 15.8333 10.4999 15.8333C10.0041 15.8333 9.53161 15.7633 9.07078 15.6524C9.06494 15.6058 9.07078 15.5708 9.05911 15.5241C8.80244 14.7483 8.60994 13.9608 8.46411 13.1558C9.14078 13.2316 9.81744 13.2841 10.4999 13.2841C11.1824 13.2841 11.8649 13.2316 12.5358 13.1558Z" fill="white"/>
<path d="M12.6952 12.1954C11.2363 12.3794 9.76366 12.3794 8.30468 12.1954C8.12061 10.7364 8.12061 9.26378 8.30468 7.80481C9.76366 7.62073 11.2363 7.62073 12.6952 7.80481C12.8793 9.26378 12.8793 10.7364 12.6952 12.1954Z" fill="white"/>
</svg>
