<svg width="514" height="294" viewBox="0 0 514 294" fill="none" xmlns="http://www.w3.org/2000/svg">
<g filter="url(#filter0_d_69_2509)">
<rect x="4" y="2" width="506" height="286" rx="10" fill="#171717" shape-rendering="crispEdges"/>
<path d="M24.8877 37.9594C23.9215 37.9594 23.0898 37.7498 22.3926 37.3305C21.6999 36.9067 21.1644 36.3074 20.7861 35.5327C20.4079 34.7579 20.2188 33.8419 20.2188 32.7846V32.771C20.2188 31.7091 20.4079 30.7931 20.7861 30.0229C21.1689 29.2482 21.709 28.6512 22.4062 28.2319C23.1081 27.8126 23.9352 27.603 24.8877 27.603C25.8447 27.603 26.6719 27.8126 27.3691 28.2319C28.0664 28.6512 28.6042 29.2482 28.9824 30.0229C29.3607 30.7976 29.5498 31.7137 29.5498 32.771V32.7846C29.5498 33.8419 29.3607 34.7579 28.9824 35.5327C28.6087 36.3074 28.0732 36.9067 27.376 37.3305C26.6787 37.7498 25.8493 37.9594 24.8877 37.9594ZM24.8877 36.435C25.4756 36.435 25.9837 36.2846 26.4121 35.9838C26.8405 35.6831 27.1709 35.2592 27.4033 34.7124C27.6403 34.1655 27.7588 33.5229 27.7588 32.7846V32.771C27.7588 32.0281 27.6403 31.3855 27.4033 30.8432C27.1709 30.2963 26.8405 29.8748 26.4121 29.5786C25.9837 29.2778 25.4756 29.1274 24.8877 29.1274C24.3044 29.1274 23.7962 29.2778 23.3633 29.5786C22.9349 29.8748 22.6022 30.2963 22.3652 30.8432C22.1328 31.3855 22.0166 32.0281 22.0166 32.771V32.7846C22.0166 33.5229 22.1305 34.1655 22.3584 34.7124C22.5908 35.2592 22.9212 35.6831 23.3496 35.9838C23.7826 36.2846 24.2952 36.435 24.8877 36.435ZM33.4053 37.7133L30.7461 30.2417H32.5645L34.2871 36.0522H34.4102L36.126 30.2417H37.917L35.2646 37.7133H33.4053ZM42.251 37.8637C41.5081 37.8637 40.8701 37.7065 40.3369 37.392C39.8083 37.0776 39.4004 36.631 39.1133 36.0522C38.8262 35.4734 38.6826 34.7876 38.6826 33.9946V33.9877C38.6826 33.2039 38.8239 32.5203 39.1064 31.937C39.3936 31.3536 39.7992 30.9025 40.3232 30.5835C40.8473 30.2599 41.4626 30.0981 42.1689 30.0981C42.8799 30.0981 43.4906 30.2553 44.001 30.5698C44.516 30.8797 44.9124 31.3149 45.1904 31.8754C45.4684 32.436 45.6074 33.0922 45.6074 33.8442V34.4047H39.5371V33.2631H44.7734L43.9668 34.3295V33.6528C43.9668 33.156 43.8916 32.7436 43.7412 32.4155C43.5908 32.0874 43.3812 31.8413 43.1123 31.6772C42.848 31.5131 42.5404 31.4311 42.1895 31.4311C41.8385 31.4311 41.5264 31.5177 41.2529 31.6909C40.984 31.8595 40.7699 32.1101 40.6104 32.4428C40.4554 32.771 40.3779 33.1743 40.3779 33.6528V34.3364C40.3779 34.7967 40.4554 35.1909 40.6104 35.519C40.7653 35.8426 40.984 36.0932 41.2666 36.271C41.5537 36.4441 41.8932 36.5307 42.2852 36.5307C42.5905 36.5307 42.8525 36.4874 43.0713 36.4008C43.2946 36.3097 43.4746 36.2026 43.6113 36.0795C43.748 35.9519 43.8438 35.8312 43.8984 35.7172L43.9189 35.6694H45.5322L45.5186 35.7309C45.4593 35.9724 45.3499 36.2185 45.1904 36.4692C45.0355 36.7153 44.8236 36.9454 44.5547 37.1596C44.2904 37.3693 43.9668 37.5402 43.584 37.6723C43.2012 37.7999 42.7568 37.8637 42.251 37.8637ZM47.3096 37.7133V30.2417H49.0117V31.3901H49.1279C49.2555 30.989 49.4834 30.6769 49.8115 30.4536C50.1442 30.2303 50.5566 30.1186 51.0488 30.1186C51.1764 30.1186 51.3018 30.1277 51.4248 30.146C51.5524 30.1596 51.6572 30.1779 51.7393 30.2006V31.7251C51.6025 31.6932 51.4635 31.6704 51.3223 31.6567C51.1855 31.6385 51.042 31.6293 50.8916 31.6293C50.5133 31.6293 50.1829 31.7 49.9004 31.8413C49.6178 31.9825 49.3991 32.1853 49.2441 32.4497C49.0892 32.7094 49.0117 33.017 49.0117 33.3725V37.7133H47.3096ZM55.1982 37.7133L52.5391 30.2417H54.3574L56.0801 36.0522H56.2031L57.9189 30.2417H59.71L57.0576 37.7133H55.1982ZM61.166 37.7133V30.2417H62.8613V37.7133H61.166ZM62.0205 28.9907C61.7425 28.9907 61.5033 28.8927 61.3027 28.6967C61.1022 28.5008 61.002 28.2661 61.002 27.9926C61.002 27.7101 61.1022 27.4731 61.3027 27.2817C61.5033 27.0857 61.7425 26.9877 62.0205 26.9877C62.2985 26.9877 62.5355 27.0857 62.7314 27.2817C62.932 27.4731 63.0322 27.7101 63.0322 27.9926C63.0322 28.2661 62.932 28.5008 62.7314 28.6967C62.5355 28.8927 62.2985 28.9907 62.0205 28.9907ZM68.1592 37.8637C67.4163 37.8637 66.7783 37.7065 66.2451 37.392C65.7165 37.0776 65.3086 36.631 65.0215 36.0522C64.7344 35.4734 64.5908 34.7876 64.5908 33.9946V33.9877C64.5908 33.2039 64.7321 32.5203 65.0146 31.937C65.3018 31.3536 65.7074 30.9025 66.2314 30.5835C66.7555 30.2599 67.3708 30.0981 68.0771 30.0981C68.7881 30.0981 69.3988 30.2553 69.9092 30.5698C70.4242 30.8797 70.8206 31.3149 71.0986 31.8754C71.3766 32.436 71.5156 33.0922 71.5156 33.8442V34.4047H65.4453V33.2631H70.6816L69.875 34.3295V33.6528C69.875 33.156 69.7998 32.7436 69.6494 32.4155C69.499 32.0874 69.2894 31.8413 69.0205 31.6772C68.7562 31.5131 68.4486 31.4311 68.0977 31.4311C67.7467 31.4311 67.4346 31.5177 67.1611 31.6909C66.8923 31.8595 66.6781 32.1101 66.5186 32.4428C66.3636 32.771 66.2861 33.1743 66.2861 33.6528V34.3364C66.2861 34.7967 66.3636 35.1909 66.5186 35.519C66.6735 35.8426 66.8923 36.0932 67.1748 36.271C67.4619 36.4441 67.8014 36.5307 68.1934 36.5307C68.4987 36.5307 68.7607 36.4874 68.9795 36.4008C69.2028 36.3097 69.3828 36.2026 69.5195 36.0795C69.6562 35.9519 69.752 35.8312 69.8066 35.7172L69.8271 35.6694H71.4404L71.4268 35.7309C71.3675 35.9724 71.2581 36.2185 71.0986 36.4692C70.9437 36.7153 70.7318 36.9454 70.4629 37.1596C70.1986 37.3693 69.875 37.5402 69.4922 37.6723C69.1094 37.7999 68.665 37.8637 68.1592 37.8637ZM74.5645 37.7133L72.5342 30.2417H74.2432L75.4805 35.8608H75.6035L77.0391 30.2417H78.6592L80.1016 35.8608H80.2246L81.4619 30.2417H83.1504L81.1201 37.7133H79.3428L77.8867 32.2993H77.7705L76.3213 37.7133H74.5645Z" fill="#AFAFAF"/>
<rect x="325" y="29.2133" width="8" height="8" rx="4" fill="#5D45DB"/>
<path d="M337.898 36.7133V29.6674H342.176V30.4585H338.777V32.8803H341.897V33.6616H338.777V36.7133H337.898ZM345.677 36.8061C345.179 36.8061 344.747 36.6971 344.383 36.479C344.021 36.2576 343.742 35.9435 343.543 35.5366C343.348 35.1297 343.25 34.6463 343.25 34.0864V34.0766C343.25 33.5135 343.348 33.0284 343.543 32.6215C343.742 32.2146 344.021 31.9021 344.383 31.684C344.747 31.4659 345.179 31.3569 345.677 31.3569C346.178 31.3569 346.609 31.4659 346.971 31.684C347.332 31.9021 347.61 32.2146 347.806 32.6215C348.004 33.0284 348.104 33.5135 348.104 34.0766V34.0864C348.104 34.6463 348.004 35.1297 347.806 35.5366C347.61 35.9435 347.332 36.2576 346.971 36.479C346.609 36.6971 346.178 36.8061 345.677 36.8061ZM345.677 36.0542C346.009 36.0542 346.29 35.976 346.521 35.8198C346.753 35.6635 346.928 35.4389 347.049 35.146C347.173 34.853 347.234 34.4998 347.234 34.0864V34.0766C347.234 33.6599 347.173 33.3051 347.049 33.0122C346.928 32.7192 346.753 32.4962 346.521 32.3432C346.29 32.187 346.009 32.1088 345.677 32.1088C345.345 32.1088 345.063 32.187 344.832 32.3432C344.601 32.4962 344.424 32.7192 344.3 33.0122C344.179 33.3051 344.119 33.6599 344.119 34.0766V34.0864C344.119 34.4998 344.179 34.853 344.3 35.146C344.424 35.4389 344.601 35.6635 344.832 35.8198C345.063 35.976 345.345 36.0542 345.677 36.0542ZM351.185 36.8061C350.787 36.8061 350.454 36.7312 350.184 36.5815C349.913 36.4285 349.71 36.2071 349.573 35.9174C349.44 35.6245 349.373 35.2713 349.373 34.8579V31.4497H350.223V34.6528C350.223 35.1248 350.314 35.4764 350.496 35.7075C350.682 35.9386 350.984 36.0542 351.404 36.0542C351.714 36.0542 351.974 35.9939 352.186 35.8735C352.397 35.753 352.557 35.5821 352.664 35.3608C352.771 35.1362 352.825 34.8709 352.825 34.5649V31.4497H353.675V36.7133H352.825V35.9272H352.747C352.617 36.2071 352.42 36.4236 352.156 36.5766C351.896 36.7296 351.572 36.8061 351.185 36.8061ZM355.262 36.7133V31.4497H356.111V32.2407H356.189C356.323 31.9607 356.515 31.7443 356.766 31.5913C357.016 31.435 357.335 31.3569 357.723 31.3569C358.315 31.3569 358.769 31.5262 359.085 31.8647C359.404 32.2 359.563 32.6801 359.563 33.3051V36.7133H358.714V33.5102C358.714 33.0349 358.613 32.6834 358.411 32.4555C358.213 32.2244 357.903 32.1088 357.483 32.1088C357.203 32.1088 356.961 32.1691 356.756 32.2895C356.551 32.4099 356.391 32.5808 356.277 32.8022C356.167 33.0236 356.111 33.2889 356.111 33.5981V36.7133H355.262ZM363.045 36.8061C362.602 36.8061 362.215 36.6938 361.883 36.4692C361.551 36.2446 361.294 35.9288 361.111 35.5219C360.929 35.1118 360.838 34.6333 360.838 34.0864V34.0766C360.838 33.5265 360.929 33.048 361.111 32.6411C361.294 32.2342 361.549 31.9184 361.878 31.6938C362.21 31.4692 362.599 31.3569 363.045 31.3569C363.406 31.3569 363.733 31.4415 364.026 31.6108C364.323 31.7768 364.542 31.9998 364.686 32.2797H364.764V29.3598H365.613V36.7133H364.764V35.8735H364.686C364.526 36.1665 364.305 36.396 364.021 36.562C363.738 36.7247 363.413 36.8061 363.045 36.8061ZM363.24 36.0542C363.559 36.0542 363.834 35.9744 364.065 35.8149C364.297 35.6554 364.474 35.4292 364.598 35.1362C364.721 34.84 364.783 34.49 364.783 34.0864V34.0766C364.783 33.6697 364.721 33.3198 364.598 33.0268C364.474 32.7338 364.297 32.5076 364.065 32.3481C363.834 32.1886 363.559 32.1088 363.24 32.1088C362.921 32.1088 362.646 32.1886 362.415 32.3481C362.187 32.5043 362.011 32.729 361.888 33.0219C361.767 33.3149 361.707 33.6665 361.707 34.0766V34.0864C361.707 34.4933 361.767 34.8448 361.888 35.1411C362.011 35.434 362.187 35.6603 362.415 35.8198C362.646 35.976 362.921 36.0542 363.24 36.0542Z" fill="#6D6D6D"/>
<rect x="387" y="29.2133" width="8" height="8" rx="4" fill="#A698EB"/>
<path d="M399.898 36.7133V29.6674H404.176V30.4585H400.777V32.8803H403.897V33.6616H400.777V36.7133H399.898ZM405.533 36.7133V31.4497H406.383V36.7133H405.533ZM405.963 30.434C405.803 30.434 405.665 30.3771 405.548 30.2631C405.434 30.146 405.377 30.0076 405.377 29.8481C405.377 29.6853 405.434 29.547 405.548 29.4331C405.665 29.3191 405.803 29.2622 405.963 29.2622C406.126 29.2622 406.264 29.3191 406.378 29.4331C406.492 29.547 406.549 29.6853 406.549 29.8481C406.549 30.0076 406.492 30.146 406.378 30.2631C406.264 30.3771 406.126 30.434 405.963 30.434ZM407.564 36.7133L409.366 34.0815L407.545 31.4497H408.546L409.796 33.4077H409.874L411.109 31.4497H412.062L410.274 34.0473L412.086 36.7133H411.09L409.845 34.726H409.767L408.517 36.7133H407.564ZM415.133 36.8061C414.632 36.8061 414.2 36.6954 413.839 36.4741C413.481 36.2527 413.204 35.9402 413.009 35.5366C412.817 35.1297 412.721 34.6512 412.721 34.101V34.0961C412.721 33.5525 412.817 33.0756 413.009 32.6655C413.204 32.2553 413.479 31.9347 413.834 31.7036C414.189 31.4724 414.604 31.3569 415.079 31.3569C415.558 31.3569 415.968 31.4676 416.31 31.6889C416.655 31.9103 416.918 32.2195 417.101 32.6167C417.286 33.0105 417.379 33.4695 417.379 33.9936V34.3256H413.16V33.6469H416.944L416.524 34.267V33.9301C416.524 33.5167 416.463 33.1765 416.339 32.9096C416.215 32.6427 416.044 32.4441 415.826 32.3139C415.608 32.1805 415.357 32.1137 415.074 32.1137C414.791 32.1137 414.537 32.1837 414.312 32.3237C414.091 32.4604 413.915 32.6639 413.785 32.934C413.655 33.2042 413.59 33.5362 413.59 33.9301V34.267C413.59 34.6414 413.653 34.962 413.78 35.229C413.907 35.4926 414.088 35.6961 414.322 35.8393C414.557 35.9793 414.833 36.0493 415.152 36.0493C415.39 36.0493 415.597 36.0167 415.772 35.9516C415.948 35.8865 416.093 35.8035 416.207 35.7026C416.321 35.6017 416.401 35.4991 416.446 35.395L416.466 35.351H417.315L417.306 35.3901C417.26 35.5691 417.179 35.7433 417.062 35.9126C416.948 36.0786 416.799 36.2299 416.617 36.3667C416.435 36.5001 416.218 36.6075 415.968 36.6889C415.72 36.767 415.442 36.8061 415.133 36.8061ZM420.641 36.8061C420.198 36.8061 419.811 36.6938 419.479 36.4692C419.146 36.2446 418.889 35.9288 418.707 35.5219C418.525 35.1118 418.434 34.6333 418.434 34.0864V34.0766C418.434 33.5265 418.525 33.048 418.707 32.6411C418.889 32.2342 419.145 31.9184 419.474 31.6938C419.806 31.4692 420.195 31.3569 420.641 31.3569C421.002 31.3569 421.329 31.4415 421.622 31.6108C421.918 31.7768 422.138 31.9998 422.281 32.2797H422.359V29.3598H423.209V36.7133H422.359V35.8735H422.281C422.122 36.1665 421.9 36.396 421.617 36.562C421.334 36.7247 421.008 36.8061 420.641 36.8061ZM420.836 36.0542C421.155 36.0542 421.43 35.9744 421.661 35.8149C421.892 35.6554 422.07 35.4292 422.193 35.1362C422.317 34.84 422.379 34.49 422.379 34.0864V34.0766C422.379 33.6697 422.317 33.3198 422.193 33.0268C422.07 32.7338 421.892 32.5076 421.661 32.3481C421.43 32.1886 421.155 32.1088 420.836 32.1088C420.517 32.1088 420.242 32.1886 420.011 32.3481C419.783 32.5043 419.607 32.729 419.483 33.0219C419.363 33.3149 419.303 33.6665 419.303 34.0766V34.0864C419.303 34.4933 419.363 34.8448 419.483 35.1411C419.607 35.434 419.783 35.6603 420.011 35.8198C420.242 35.976 420.517 36.0542 420.836 36.0542Z" fill="#6D6D6D"/>
<rect x="445" y="29.2133" width="8" height="8" rx="4" fill="#ECE9FF"/>
<path d="M460.857 36.8793C460.184 36.8793 459.606 36.7296 459.124 36.4301C458.642 36.1274 458.271 35.6993 458.011 35.146C457.754 34.5926 457.625 33.9415 457.625 33.1928V33.1831C457.625 32.4279 457.755 31.7752 458.016 31.2251C458.279 30.6749 458.652 30.2501 459.134 29.9506C459.619 29.6512 460.193 29.5014 460.857 29.5014C461.525 29.5014 462.099 29.6512 462.581 29.9506C463.066 30.2501 463.439 30.6765 463.699 31.2299C463.96 31.7801 464.09 32.4311 464.09 33.1831V33.1928C464.09 33.9415 463.96 34.5926 463.699 35.146C463.442 35.6961 463.071 36.1225 462.586 36.4252C462.104 36.728 461.528 36.8793 460.857 36.8793ZM460.857 36.0688C461.339 36.0688 461.754 35.95 462.103 35.7124C462.451 35.4747 462.719 35.1411 462.908 34.7114C463.097 34.2784 463.191 33.7723 463.191 33.1928V33.1831C463.191 32.5971 463.097 32.0893 462.908 31.6596C462.719 31.2299 462.451 30.8979 462.103 30.6635C461.754 30.4292 461.339 30.312 460.857 30.312C460.379 30.312 459.965 30.4292 459.617 30.6635C459.269 30.8979 458.999 31.2299 458.807 31.6596C458.618 32.0893 458.523 32.5971 458.523 33.1831V33.1928C458.523 33.7723 458.616 34.2784 458.802 34.7114C458.987 35.1411 459.254 35.4747 459.603 35.7124C459.951 35.95 460.369 36.0688 460.857 36.0688ZM465.506 38.4711V31.4497H466.355V32.2895H466.434C466.541 32.0942 466.676 31.9282 466.839 31.7915C467.002 31.6515 467.187 31.5441 467.396 31.4692C467.604 31.3943 467.83 31.3569 468.074 31.3569C468.52 31.3569 468.908 31.4708 469.236 31.6987C469.568 31.9233 469.826 32.239 470.008 32.646C470.19 33.0529 470.281 33.5297 470.281 34.0766V34.0864C470.281 34.6365 470.19 35.115 470.008 35.5219C469.826 35.9288 469.568 36.2446 469.236 36.4692C468.908 36.6938 468.52 36.8061 468.074 36.8061C467.833 36.8061 467.605 36.7687 467.391 36.6938C467.179 36.6157 466.99 36.5083 466.824 36.3715C466.661 36.2348 466.531 36.0721 466.434 35.8833H466.355V38.4711H465.506ZM467.879 36.0542C468.201 36.0542 468.476 35.976 468.704 35.8198C468.932 35.6603 469.106 35.434 469.227 35.1411C469.35 34.8448 469.412 34.4933 469.412 34.0864V34.0766C469.412 33.6665 469.35 33.3149 469.227 33.0219C469.106 32.729 468.932 32.5043 468.704 32.3481C468.476 32.1886 468.201 32.1088 467.879 32.1088C467.56 32.1088 467.285 32.1886 467.054 32.3481C466.823 32.5076 466.645 32.7338 466.521 33.0268C466.398 33.3198 466.336 33.6697 466.336 34.0766V34.0864C466.336 34.49 466.398 34.84 466.521 35.1362C466.645 35.4292 466.823 35.6554 467.054 35.8149C467.285 35.9744 467.56 36.0542 467.879 36.0542ZM473.758 36.8061C473.257 36.8061 472.825 36.6954 472.464 36.4741C472.106 36.2527 471.829 35.9402 471.634 35.5366C471.442 35.1297 471.346 34.6512 471.346 34.101V34.0961C471.346 33.5525 471.442 33.0756 471.634 32.6655C471.829 32.2553 472.104 31.9347 472.459 31.7036C472.814 31.4724 473.229 31.3569 473.704 31.3569C474.183 31.3569 474.593 31.4676 474.935 31.6889C475.28 31.9103 475.543 32.2195 475.726 32.6167C475.911 33.0105 476.004 33.4695 476.004 33.9936V34.3256H471.785V33.6469H475.569L475.149 34.267V33.9301C475.149 33.5167 475.088 33.1765 474.964 32.9096C474.84 32.6427 474.669 32.4441 474.451 32.3139C474.233 32.1805 473.982 32.1137 473.699 32.1137C473.416 32.1137 473.162 32.1837 472.938 32.3237C472.716 32.4604 472.54 32.6639 472.41 32.934C472.28 33.2042 472.215 33.5362 472.215 33.9301V34.267C472.215 34.6414 472.278 34.962 472.405 35.229C472.532 35.4926 472.713 35.6961 472.947 35.8393C473.182 35.9793 473.458 36.0493 473.777 36.0493C474.015 36.0493 474.222 36.0167 474.397 35.9516C474.573 35.8865 474.718 35.8035 474.832 35.7026C474.946 35.6017 475.026 35.4991 475.071 35.395L475.091 35.351H475.94L475.931 35.3901C475.885 35.5691 475.804 35.7433 475.687 35.9126C475.573 36.0786 475.424 36.2299 475.242 36.3667C475.06 36.5001 474.843 36.6075 474.593 36.6889C474.345 36.767 474.067 36.8061 473.758 36.8061ZM477.322 36.7133V31.4497H478.172V32.2407H478.25C478.383 31.9607 478.576 31.7443 478.826 31.5913C479.077 31.435 479.396 31.3569 479.783 31.3569C480.376 31.3569 480.83 31.5262 481.146 31.8647C481.465 32.2 481.624 32.6801 481.624 33.3051V36.7133H480.774V33.5102C480.774 33.0349 480.674 32.6834 480.472 32.4555C480.273 32.2244 479.964 32.1088 479.544 32.1088C479.264 32.1088 479.021 32.1691 478.816 32.2895C478.611 32.4099 478.452 32.5808 478.338 32.8022C478.227 33.0236 478.172 33.2889 478.172 33.5981V36.7133H477.322ZM485.311 36.8061C484.809 36.8061 484.378 36.6954 484.017 36.4741C483.659 36.2527 483.382 35.9402 483.187 35.5366C482.994 35.1297 482.898 34.6512 482.898 34.101V34.0961C482.898 33.5525 482.994 33.0756 483.187 32.6655C483.382 32.2553 483.657 31.9347 484.012 31.7036C484.367 31.4724 484.782 31.3569 485.257 31.3569C485.735 31.3569 486.146 31.4676 486.487 31.6889C486.832 31.9103 487.096 32.2195 487.278 32.6167C487.464 33.0105 487.557 33.4695 487.557 33.9936V34.3256H483.338V33.6469H487.122L486.702 34.267V33.9301C486.702 33.5167 486.64 33.1765 486.517 32.9096C486.393 32.6427 486.222 32.4441 486.004 32.3139C485.786 32.1805 485.535 32.1137 485.252 32.1137C484.969 32.1137 484.715 32.1837 484.49 32.3237C484.269 32.4604 484.093 32.6639 483.963 32.934C483.833 33.2042 483.768 33.5362 483.768 33.9301V34.267C483.768 34.6414 483.831 34.962 483.958 35.229C484.085 35.4926 484.266 35.6961 484.5 35.8393C484.734 35.9793 485.011 36.0493 485.33 36.0493C485.568 36.0493 485.774 36.0167 485.95 35.9516C486.126 35.8865 486.271 35.8035 486.385 35.7026C486.499 35.6017 486.578 35.4991 486.624 35.395L486.644 35.351H487.493L487.483 35.3901C487.438 35.5691 487.356 35.7433 487.239 35.9126C487.125 36.0786 486.977 36.2299 486.795 36.3667C486.613 36.5001 486.396 36.6075 486.146 36.6889C485.898 36.767 485.62 36.8061 485.311 36.8061ZM490.818 36.8061C490.376 36.8061 489.988 36.6938 489.656 36.4692C489.324 36.2446 489.067 35.9288 488.885 35.5219C488.702 35.1118 488.611 34.6333 488.611 34.0864V34.0766C488.611 33.5265 488.702 33.048 488.885 32.6411C489.067 32.2342 489.323 31.9184 489.651 31.6938C489.983 31.4692 490.372 31.3569 490.818 31.3569C491.18 31.3569 491.507 31.4415 491.8 31.6108C492.096 31.7768 492.316 31.9998 492.459 32.2797H492.537V29.3598H493.387V36.7133H492.537V35.8735H492.459C492.299 36.1665 492.078 36.396 491.795 36.562C491.512 36.7247 491.186 36.8061 490.818 36.8061ZM491.014 36.0542C491.333 36.0542 491.608 35.9744 491.839 35.8149C492.07 35.6554 492.247 35.4292 492.371 35.1362C492.495 34.84 492.557 34.49 492.557 34.0864V34.0766C492.557 33.6697 492.495 33.3198 492.371 33.0268C492.247 32.7338 492.07 32.5076 491.839 32.3481C491.608 32.1886 491.333 32.1088 491.014 32.1088C490.695 32.1088 490.42 32.1886 490.188 32.3481C489.961 32.5043 489.785 32.729 489.661 33.0219C489.541 33.3149 489.48 33.6665 489.48 34.0766V34.0864C489.48 34.4933 489.541 34.8448 489.661 35.1411C489.785 35.434 489.961 35.6603 490.188 35.8198C490.42 35.976 490.695 36.0542 491.014 36.0542Z" fill="#6D6D6D"/>
<g clip-path="url(#clip0_69_2509)">
<path d="M34.0558 257.204C33.6489 257.204 33.3022 257.127 33.0157 256.974C32.7293 256.818 32.5063 256.606 32.3468 256.339C32.1906 256.072 32.0994 255.771 32.0734 255.436L32.0685 255.368H32.9474L32.9523 255.417C32.9718 255.592 33.0239 255.755 33.1085 255.905C33.1932 256.051 33.3136 256.17 33.4698 256.261C33.6261 256.349 33.8198 256.393 34.0509 256.393C34.4415 256.393 34.7394 256.281 34.9445 256.056C35.1495 255.828 35.2521 255.5 35.2521 255.07V249.992H36.131V255.08C36.131 255.747 35.9471 256.268 35.5792 256.642C35.2146 257.016 34.7068 257.204 34.0558 257.204ZM39.2657 257.13C38.9337 257.13 38.6342 257.067 38.3673 256.94C38.1036 256.813 37.8937 256.632 37.7374 256.398C37.5844 256.164 37.5079 255.887 37.5079 255.568V255.558C37.5079 255.089 37.674 254.723 38.006 254.46C38.3413 254.193 38.8149 254.041 39.4269 254.005L41.3605 253.888V254.567L39.5294 254.684C39.129 254.707 38.8361 254.79 38.6505 254.933C38.4682 255.076 38.3771 255.278 38.3771 255.539V255.548C38.3771 255.815 38.478 256.024 38.6798 256.173C38.8816 256.32 39.1355 256.393 39.4415 256.393C39.7312 256.393 39.9884 256.336 40.213 256.222C40.4376 256.105 40.6134 255.947 40.7404 255.749C40.8706 255.55 40.9357 255.325 40.9357 255.075V253.434C40.9357 253.109 40.8364 252.861 40.6378 252.692C40.4425 252.519 40.1479 252.433 39.754 252.433C39.4383 252.433 39.1795 252.49 38.9777 252.604C38.7758 252.715 38.6407 252.873 38.5724 253.078L38.5675 253.092H37.7179L37.7228 253.063C37.7684 252.786 37.8823 252.545 38.0646 252.34C38.2501 252.132 38.4894 251.971 38.7823 251.857C39.0753 251.74 39.409 251.681 39.7833 251.681C40.213 251.681 40.576 251.751 40.8722 251.891C41.1717 252.031 41.3979 252.233 41.5509 252.497C41.7072 252.757 41.7853 253.07 41.7853 253.434V257.038H40.9357V256.261H40.8575C40.7469 256.447 40.6118 256.605 40.4523 256.735C40.296 256.865 40.1186 256.964 39.92 257.033C39.7215 257.098 39.5034 257.13 39.2657 257.13ZM43.338 257.038V251.774H44.1876V252.565H44.2657C44.3992 252.285 44.5913 252.069 44.8419 251.916C45.0926 251.759 45.4116 251.681 45.799 251.681C46.3914 251.681 46.8455 251.85 47.1613 252.189C47.4803 252.524 47.6398 253.004 47.6398 253.629V257.038H46.7902V253.835C46.7902 253.359 46.6892 253.008 46.4874 252.78C46.2889 252.549 45.9796 252.433 45.5597 252.433C45.2797 252.433 45.0372 252.493 44.8322 252.614C44.6271 252.734 44.4676 252.905 44.3536 253.126C44.243 253.348 44.1876 253.613 44.1876 253.922V257.038H43.338Z" fill="#6D6D6D"/>
<path d="M107.756 257.038V249.992H112.034V250.783H108.635V253.205H111.755V253.986H108.635V257.038H107.756ZM115.52 257.131C115.019 257.131 114.587 257.02 114.226 256.799C113.868 256.577 113.591 256.265 113.396 255.861C113.204 255.454 113.108 254.976 113.108 254.426V254.421C113.108 253.877 113.204 253.4 113.396 252.99C113.591 252.58 113.866 252.259 114.221 252.028C114.576 251.797 114.991 251.681 115.466 251.681C115.945 251.681 116.355 251.792 116.697 252.013C117.042 252.235 117.306 252.544 117.488 252.941C117.673 253.335 117.766 253.794 117.766 254.318V254.65H113.547V253.971H117.332L116.912 254.592V254.255C116.912 253.841 116.85 253.501 116.726 253.234C116.602 252.967 116.431 252.769 116.213 252.638C115.995 252.505 115.745 252.438 115.461 252.438C115.178 252.438 114.924 252.508 114.7 252.648C114.478 252.785 114.303 252.988 114.172 253.259C114.042 253.529 113.977 253.861 113.977 254.255V254.592C113.977 254.966 114.041 255.287 114.167 255.553C114.294 255.817 114.475 256.021 114.709 256.164C114.944 256.304 115.221 256.374 115.54 256.374C115.777 256.374 115.984 256.341 116.16 256.276C116.335 256.211 116.48 256.128 116.594 256.027C116.708 255.926 116.788 255.824 116.833 255.72L116.853 255.676H117.703L117.693 255.715C117.647 255.894 117.566 256.068 117.449 256.237C117.335 256.403 117.187 256.554 117.004 256.691C116.822 256.825 116.606 256.932 116.355 257.013C116.108 257.092 115.829 257.131 115.52 257.131ZM121.702 257.131C121.337 257.131 121.013 257.049 120.73 256.887C120.447 256.72 120.224 256.491 120.061 256.198H119.983V257.038H119.133V249.684H119.983V252.604H120.061C120.204 252.324 120.422 252.101 120.715 251.935C121.012 251.766 121.34 251.681 121.702 251.681C122.148 251.681 122.535 251.794 122.864 252.018C123.196 252.243 123.453 252.559 123.635 252.966C123.818 253.373 123.909 253.851 123.909 254.401V254.411C123.909 254.958 123.818 255.436 123.635 255.846C123.453 256.253 123.196 256.569 122.864 256.794C122.535 257.018 122.148 257.131 121.702 257.131ZM121.506 256.379C121.829 256.379 122.104 256.301 122.332 256.144C122.559 255.985 122.734 255.759 122.854 255.466C122.978 255.169 123.04 254.818 123.04 254.411V254.401C123.04 253.991 122.978 253.639 122.854 253.346C122.734 253.053 122.559 252.829 122.332 252.673C122.104 252.513 121.829 252.433 121.506 252.433C121.187 252.433 120.912 252.513 120.681 252.673C120.45 252.832 120.273 253.058 120.149 253.351C120.025 253.644 119.963 253.994 119.963 254.401V254.411C119.963 254.815 120.025 255.164 120.149 255.461C120.273 255.754 120.45 255.98 120.681 256.139C120.912 256.299 121.187 256.379 121.506 256.379Z" fill="#6D6D6D"/>
<path d="M182.845 257.038V249.992H183.865L186.277 255.871H186.356L188.768 249.992H189.788V257.038H188.968V251.657H188.538L189.524 250.187L186.688 257.038H185.945L183.113 250.187L184.095 251.657H183.665V257.038H182.845ZM192.923 257.131C192.591 257.131 192.291 257.067 192.024 256.94C191.761 256.813 191.551 256.633 191.395 256.398C191.242 256.164 191.165 255.887 191.165 255.568V255.558C191.165 255.09 191.331 254.723 191.663 254.46C191.998 254.193 192.472 254.041 193.084 254.006L195.018 253.888V254.567L193.187 254.684C192.786 254.707 192.493 254.79 192.308 254.933C192.125 255.077 192.034 255.278 192.034 255.539V255.549C192.034 255.816 192.135 256.024 192.337 256.174C192.539 256.32 192.793 256.393 193.099 256.393C193.388 256.393 193.646 256.336 193.87 256.222C194.095 256.105 194.271 255.947 194.398 255.749C194.528 255.55 194.593 255.326 194.593 255.075V253.434C194.593 253.109 194.494 252.861 194.295 252.692C194.1 252.52 193.805 252.433 193.411 252.433C193.095 252.433 192.837 252.49 192.635 252.604C192.433 252.715 192.298 252.873 192.23 253.078L192.225 253.093H191.375L191.38 253.063C191.426 252.787 191.539 252.546 191.722 252.341C191.907 252.132 192.147 251.971 192.44 251.857C192.732 251.74 193.066 251.681 193.44 251.681C193.87 251.681 194.233 251.751 194.529 251.891C194.829 252.031 195.055 252.233 195.208 252.497C195.364 252.757 195.442 253.07 195.442 253.434V257.038H194.593V256.262H194.515C194.404 256.447 194.269 256.605 194.109 256.735C193.953 256.865 193.776 256.965 193.577 257.033C193.379 257.098 193.161 257.131 192.923 257.131ZM196.995 257.038V251.774H197.845V252.555H197.923C198.024 252.279 198.195 252.064 198.436 251.911C198.676 251.758 198.974 251.681 199.329 251.681C199.411 251.681 199.49 251.686 199.568 251.696C199.65 251.703 199.712 251.709 199.754 251.716V252.541C199.666 252.525 199.58 252.513 199.495 252.507C199.414 252.497 199.326 252.492 199.232 252.492C198.961 252.492 198.722 252.546 198.514 252.653C198.305 252.761 198.141 252.91 198.021 253.102C197.903 253.294 197.845 253.519 197.845 253.776V257.038H196.995Z" fill="#6D6D6D"/>
<path d="M259.1 257.038L261.698 249.992H262.371V251.13H262.093L260.023 257.038H259.1ZM260.277 255.021L260.55 254.274H263.734L264.007 255.021H260.277ZM264.242 257.038L262.171 251.13V249.992H262.567L265.164 257.038H264.242ZM266.292 258.796V251.774H267.142V252.614H267.22C267.328 252.419 267.463 252.253 267.625 252.116C267.788 251.976 267.974 251.869 268.182 251.794C268.39 251.719 268.617 251.681 268.861 251.681C269.307 251.681 269.694 251.795 270.023 252.023C270.355 252.248 270.612 252.564 270.794 252.97C270.977 253.377 271.068 253.854 271.068 254.401V254.411C271.068 254.961 270.977 255.44 270.794 255.846C270.612 256.253 270.355 256.569 270.023 256.794C269.694 257.018 269.307 257.131 268.861 257.131C268.62 257.131 268.392 257.093 268.177 257.018C267.966 256.94 267.777 256.833 267.611 256.696C267.448 256.559 267.318 256.397 267.22 256.208H267.142V258.796H266.292ZM268.665 256.379C268.988 256.379 269.263 256.301 269.491 256.144C269.718 255.985 269.893 255.759 270.013 255.466C270.137 255.169 270.199 254.818 270.199 254.411V254.401C270.199 253.991 270.137 253.639 270.013 253.346C269.893 253.053 269.718 252.829 269.491 252.673C269.263 252.513 268.988 252.433 268.665 252.433C268.346 252.433 268.071 252.513 267.84 252.673C267.609 252.832 267.432 253.058 267.308 253.351C267.184 253.644 267.122 253.994 267.122 254.401V254.411C267.122 254.815 267.184 255.164 267.308 255.461C267.432 255.754 267.609 255.98 267.84 256.139C268.071 256.299 268.346 256.379 268.665 256.379ZM272.396 257.038V251.774H273.245V252.555H273.324C273.425 252.279 273.595 252.064 273.836 251.911C274.077 251.758 274.375 251.681 274.73 251.681C274.811 251.681 274.891 251.686 274.969 251.696C275.05 251.703 275.112 251.709 275.155 251.716V252.541C275.067 252.525 274.981 252.513 274.896 252.507C274.814 252.497 274.727 252.492 274.632 252.492C274.362 252.492 274.123 252.546 273.914 252.653C273.706 252.761 273.542 252.91 273.421 253.102C273.304 253.294 273.245 253.519 273.245 253.776V257.038H272.396Z" fill="#6D6D6D"/>
<path d="M332.971 257.038V249.992H333.991L336.403 255.871H336.481L338.894 249.992H339.914V257.038H339.094V251.657H338.664L339.65 250.187L336.813 257.038H336.071L333.239 250.187L334.221 251.657H333.791V257.038H332.971ZM343.049 257.131C342.717 257.131 342.417 257.067 342.15 256.94C341.887 256.813 341.677 256.633 341.521 256.398C341.368 256.164 341.291 255.887 341.291 255.568V255.558C341.291 255.09 341.457 254.723 341.789 254.46C342.124 254.193 342.598 254.041 343.21 254.006L345.144 253.888V254.567L343.312 254.684C342.912 254.707 342.619 254.79 342.434 254.933C342.251 255.077 342.16 255.278 342.16 255.539V255.549C342.16 255.816 342.261 256.024 342.463 256.174C342.665 256.32 342.919 256.393 343.225 256.393C343.514 256.393 343.771 256.336 343.996 256.222C344.221 256.105 344.396 255.947 344.523 255.749C344.654 255.55 344.719 255.326 344.719 255.075V253.434C344.719 253.109 344.619 252.861 344.421 252.692C344.226 252.52 343.931 252.433 343.537 252.433C343.221 252.433 342.963 252.49 342.761 252.604C342.559 252.715 342.424 252.873 342.355 253.078L342.351 253.093H341.501L341.506 253.063C341.551 252.787 341.665 252.546 341.848 252.341C342.033 252.132 342.272 251.971 342.565 251.857C342.858 251.74 343.192 251.681 343.566 251.681C343.996 251.681 344.359 251.751 344.655 251.891C344.955 252.031 345.181 252.233 345.334 252.497C345.49 252.757 345.568 253.07 345.568 253.434V257.038H344.719V256.262H344.641C344.53 256.447 344.395 256.605 344.235 256.735C344.079 256.865 343.902 256.965 343.703 257.033C343.505 257.098 343.286 257.131 343.049 257.131ZM347.375 258.884C347.32 258.884 347.258 258.88 347.189 258.874C347.121 258.871 347.058 258.864 346.999 258.854V258.156C347.051 258.166 347.108 258.172 347.17 258.176C347.232 258.179 347.292 258.18 347.351 258.18C347.591 258.18 347.788 258.119 347.941 257.995C348.098 257.871 348.223 257.658 348.317 257.355L348.415 257.043L346.467 251.774H347.375L348.996 256.637L348.659 256.105H349.06L348.723 256.637L350.339 251.774H351.232L349.177 257.36C349.03 257.754 348.877 258.062 348.718 258.283C348.562 258.504 348.376 258.659 348.161 258.747C347.95 258.838 347.688 258.884 347.375 258.884Z" fill="#6D6D6D"/>
<path d="M410.802 257.204C410.395 257.204 410.049 257.127 409.762 256.974C409.476 256.818 409.253 256.607 409.093 256.34C408.937 256.073 408.846 255.772 408.82 255.436L408.815 255.368H409.694L409.699 255.417C409.718 255.593 409.77 255.755 409.855 255.905C409.939 256.052 410.06 256.17 410.216 256.262C410.372 256.349 410.566 256.393 410.797 256.393C411.188 256.393 411.486 256.281 411.691 256.056C411.896 255.829 411.998 255.5 411.998 255.07V249.992H412.877V255.08C412.877 255.747 412.693 256.268 412.326 256.642C411.961 257.017 411.453 257.204 410.802 257.204ZM416.329 257.131C415.932 257.131 415.599 257.056 415.328 256.906C415.058 256.753 414.855 256.532 414.718 256.242C414.585 255.949 414.518 255.596 414.518 255.182V251.774H415.368V254.977C415.368 255.449 415.459 255.801 415.641 256.032C415.827 256.263 416.129 256.379 416.549 256.379C416.858 256.379 417.119 256.318 417.33 256.198C417.542 256.078 417.702 255.907 417.809 255.685C417.916 255.461 417.97 255.195 417.97 254.889V251.774H418.82V257.038H417.97V256.252H417.892C417.762 256.532 417.565 256.748 417.301 256.901C417.041 257.054 416.717 257.131 416.329 257.131ZM420.407 257.038V251.774H421.256V252.565H421.334C421.468 252.285 421.66 252.069 421.911 251.916C422.161 251.76 422.48 251.681 422.868 251.681C423.46 251.681 423.914 251.851 424.23 252.189C424.549 252.525 424.708 253.005 424.708 253.63V257.038H423.859V253.835C423.859 253.359 423.758 253.008 423.556 252.78C423.357 252.549 423.048 252.433 422.628 252.433C422.348 252.433 422.106 252.494 421.901 252.614C421.696 252.734 421.536 252.905 421.422 253.127C421.312 253.348 421.256 253.613 421.256 253.923V257.038H420.407Z" fill="#6D6D6D"/>
<path d="M487.189 257.204C486.782 257.204 486.436 257.127 486.149 256.974C485.863 256.818 485.64 256.607 485.48 256.34C485.324 256.073 485.233 255.772 485.207 255.436L485.202 255.368H486.081L486.086 255.417C486.105 255.593 486.157 255.755 486.242 255.905C486.327 256.052 486.447 256.17 486.603 256.262C486.76 256.349 486.953 256.393 487.184 256.393C487.575 256.393 487.873 256.281 488.078 256.056C488.283 255.829 488.385 255.5 488.385 255.07V249.992H489.264V255.08C489.264 255.747 489.08 256.268 488.713 256.642C488.348 257.017 487.84 257.204 487.189 257.204ZM492.717 257.131C492.319 257.131 491.986 257.056 491.716 256.906C491.445 256.753 491.242 256.532 491.105 256.242C490.972 255.949 490.905 255.596 490.905 255.182V251.774H491.755V254.977C491.755 255.449 491.846 255.801 492.028 256.032C492.214 256.263 492.516 256.379 492.936 256.379C493.246 256.379 493.506 256.318 493.718 256.198C493.929 256.078 494.089 255.907 494.196 255.685C494.303 255.461 494.357 255.195 494.357 254.889V251.774H495.207V257.038H494.357V256.252H494.279C494.149 256.532 493.952 256.748 493.688 256.901C493.428 257.054 493.104 257.131 492.717 257.131ZM496.843 257.038V249.684H497.692V257.038H496.843Z" fill="#6D6D6D"/>
<path d="M39.7142 239.528H492.602" stroke="#414141" stroke-width="0.625753"/>
<path d="M39.7156 73.4852H492.604" stroke="#414141" stroke-width="0.625753"/>
<path d="M39.7156 101.055H492.604" stroke="#414141" stroke-width="0.625753"/>
<path d="M39.7156 128.624H492.604" stroke="#414141" stroke-width="0.625753"/>
<path d="M39.7156 156.193H492.604" stroke="#414141" stroke-width="0.625753"/>
<path d="M39.7156 183.763H492.604" stroke="#414141" stroke-width="0.625753"/>
<path d="M39.7156 211.332H492.604" stroke="#414141" stroke-width="0.625753"/>
<path d="M39.7156 238.901H492.604" stroke="#414141" stroke-width="0.625753"/>
<path d="M39.7145 239.527V243.282" stroke="#414141" stroke-width="0.625753"/>
<path d="M115.196 239.527V243.282" stroke="#414141" stroke-width="0.625753"/>
<path d="M190.678 239.527V243.282" stroke="#414141" stroke-width="0.625753"/>
<path d="M266.16 239.527V243.282" stroke="#414141" stroke-width="0.625753"/>
<path d="M341.642 239.527V243.282" stroke="#414141" stroke-width="0.625753"/>
<path d="M417.124 239.527V243.282" stroke="#414141" stroke-width="0.625753"/>
<path d="M492.604 239.527V243.282" stroke="#414141" stroke-width="0.625753"/>
<mask id="mask0_69_2509" style="mask-type:luminance" maskUnits="userSpaceOnUse" x="36" y="71" width="460" height="170">
<path d="M495.415 71.9211H36.8953V240.466H495.415V71.9211Z" fill="white"/>
</mask>
<g mask="url(#mask0_69_2509)">
<path d="M39.715 169.979C66.1334 169.979 88.7779 128.625 115.196 128.625C141.615 128.625 164.259 87.2704 190.678 87.2704C217.096 87.2704 239.741 153.437 266.159 153.437C292.578 153.437 315.222 178.249 341.64 178.249C368.059 178.249 390.703 178.249 417.122 178.249C443.54 178.249 466.185 211.333 492.603 211.333" stroke="#5D45DB" stroke-width="2"/>
</g>
<mask id="mask1_69_2509" style="mask-type:luminance" maskUnits="userSpaceOnUse" x="36" y="71" width="460" height="170">
<path d="M495.415 71.9211H36.8953V240.466H495.415V71.9211Z" fill="white"/>
</mask>
<g mask="url(#mask1_69_2509)">
<path d="M39.715 227.875C66.1334 227.875 88.7779 161.708 115.196 161.708C141.615 161.708 164.259 139.653 190.678 139.653C217.096 139.653 239.741 205.819 266.159 205.819C292.578 205.819 315.222 200.305 341.64 200.305C368.059 200.305 390.703 150.68 417.122 150.68C443.54 150.68 466.185 225.118 492.603 225.118" stroke="#ECE9FF" stroke-width="2"/>
<path d="M40.7136 198.713C67.1028 198.713 109.714 225.713 130.714 216.213C151.714 206.713 160.163 112.187 186.552 112.187C212.941 112.187 240.324 178.713 266.714 178.713C293.103 178.713 289.714 143.713 341.308 171.49C377.214 178.713 378.824 106.213 405.214 106.213C431.603 106.213 464.324 149.213 490.714 149.213" stroke="#A698EB" stroke-width="2"/>
</g>
<path d="M23.9437 77.7215C23.4456 77.7215 23.0045 77.6353 22.6204 77.4627C22.2363 77.2902 21.9336 77.0526 21.7122 76.7498C21.4941 76.4439 21.3851 76.0939 21.3851 75.7V75.6903C21.3851 75.4006 21.4485 75.132 21.5755 74.8846C21.7025 74.6372 21.8799 74.4273 22.1077 74.2547C22.3356 74.0789 22.5993 73.9569 22.8987 73.8885V73.869C22.5146 73.7485 22.2086 73.55 21.9808 73.2733C21.7529 72.9966 21.639 72.6727 21.639 72.3016V72.2918C21.639 71.937 21.7383 71.6213 21.9368 71.3446C22.1354 71.0646 22.4088 70.8449 22.7571 70.6854C23.1054 70.5226 23.501 70.4413 23.9437 70.4413C24.3896 70.4413 24.7851 70.5226 25.1302 70.6854C25.4785 70.8449 25.7519 71.0646 25.9505 71.3446C26.1491 71.6213 26.2484 71.937 26.2484 72.2918V72.3016C26.2484 72.6727 26.1344 72.9966 25.9066 73.2733C25.6819 73.55 25.376 73.7485 24.9886 73.869V73.8885C25.2913 73.9569 25.555 74.0789 25.7796 74.2547C26.0075 74.4273 26.1849 74.6372 26.3118 74.8846C26.4388 75.132 26.5023 75.4006 26.5023 75.6903V75.7C26.5023 76.0939 26.3932 76.4439 26.1751 76.7498C25.957 77.0526 25.6543 77.2902 25.2669 77.4627C24.8828 77.6353 24.4417 77.7215 23.9437 77.7215ZM23.9437 76.9549C24.2692 76.9549 24.5556 76.8996 24.803 76.7889C25.0537 76.675 25.2506 76.5204 25.3939 76.325C25.5371 76.1265 25.6087 75.9002 25.6087 75.6463V75.6366C25.6087 75.3794 25.5371 75.1515 25.3939 74.953C25.2539 74.7544 25.0586 74.5982 24.8079 74.4842C24.5573 74.3703 24.2692 74.3133 23.9437 74.3133C23.6181 74.3133 23.3301 74.3703 23.0794 74.4842C22.8288 74.5982 22.6318 74.7544 22.4886 74.953C22.3486 75.1515 22.2786 75.3794 22.2786 75.6366V75.6463C22.2786 75.9002 22.3502 76.1265 22.4935 76.325C22.6367 76.5204 22.8336 76.675 23.0843 76.7889C23.3349 76.8996 23.6214 76.9549 23.9437 76.9549ZM23.9437 73.5418C24.2269 73.5418 24.4759 73.493 24.6907 73.3954C24.9056 73.2944 25.0732 73.1561 25.1937 72.9803C25.3141 72.8045 25.3743 72.6027 25.3743 72.3748V72.3651C25.3743 72.1372 25.3141 71.9354 25.1937 71.7596C25.0732 71.5838 24.9056 71.4471 24.6907 71.3495C24.4759 71.2485 24.2269 71.1981 23.9437 71.1981C23.6605 71.1981 23.4114 71.2485 23.1966 71.3495C22.9818 71.4471 22.8141 71.5838 22.6937 71.7596C22.5732 71.9354 22.513 72.1372 22.513 72.3651V72.3748C22.513 72.6027 22.5732 72.8045 22.6937 72.9803C22.8141 73.1561 22.9818 73.2944 23.1966 73.3954C23.4114 73.493 23.6605 73.5418 23.9437 73.5418ZM30.2816 77.7704C29.7607 77.7704 29.3148 77.6206 28.9437 77.3211C28.5758 77.0217 28.2926 76.5969 28.0941 76.0467C27.8955 75.4933 27.7962 74.839 27.7962 74.0838V74.0741C27.7962 73.3189 27.8955 72.6662 28.0941 72.1161C28.2926 71.5659 28.5758 71.1411 28.9437 70.8416C29.3148 70.5422 29.7607 70.3924 30.2816 70.3924C30.8024 70.3924 31.2484 70.5422 31.6194 70.8416C31.9905 71.1411 32.2754 71.5659 32.4739 72.1161C32.6758 72.6662 32.7767 73.3189 32.7767 74.0741V74.0838C32.7767 74.839 32.6758 75.4933 32.4739 76.0467C32.2754 76.5969 31.9905 77.0217 31.6194 77.3211C31.2484 77.6206 30.8024 77.7704 30.2816 77.7704ZM30.2816 77.0038C30.6201 77.0038 30.9082 76.8849 31.1458 76.6473C31.3867 76.4097 31.5706 76.0728 31.6976 75.6366C31.8278 75.2004 31.8929 74.6828 31.8929 74.0838V74.0741C31.8929 73.4751 31.8278 72.9592 31.6976 72.5262C31.5706 72.09 31.3867 71.7547 31.1458 71.5204C30.9082 71.2827 30.6201 71.1639 30.2816 71.1639C29.9463 71.1639 29.6582 71.2827 29.4173 71.5204C29.1797 71.7547 28.9974 72.09 28.8704 72.5262C28.7435 72.9592 28.68 73.4751 28.68 74.0741V74.0838C28.68 74.6828 28.7435 75.2004 28.8704 75.6366C28.9974 76.0728 29.1797 76.4097 29.4173 76.6473C29.6582 76.8849 29.9463 77.0038 30.2816 77.0038Z" fill="#6D6D6D"/>
<path d="M22.3167 105.174L25.4807 98.9826V98.9142H21.7112V98.1281H26.3743V98.9435L23.2395 105.174H22.3167ZM29.929 105.34C29.4081 105.34 28.9622 105.19 28.5911 104.891C28.2232 104.591 27.94 104.166 27.7415 103.616C27.5429 103.063 27.4436 102.409 27.4436 101.653V101.644C27.4436 100.888 27.5429 100.236 27.7415 99.6857C27.94 99.1356 28.2232 98.7108 28.5911 98.4113C28.9622 98.1118 29.4081 97.9621 29.929 97.9621C30.4498 97.9621 30.8958 98.1118 31.2668 98.4113C31.6379 98.7108 31.9228 99.1356 32.1213 99.6857C32.3232 100.236 32.4241 100.888 32.4241 101.644V101.653C32.4241 102.409 32.3232 103.063 32.1213 103.616C31.9228 104.166 31.6379 104.591 31.2668 104.891C30.8958 105.19 30.4498 105.34 29.929 105.34ZM29.929 104.573C30.2675 104.573 30.5556 104.455 30.7932 104.217C31.0341 103.979 31.218 103.642 31.345 103.206C31.4752 102.77 31.5403 102.252 31.5403 101.653V101.644C31.5403 101.045 31.4752 100.529 31.345 100.096C31.218 99.6597 31.0341 99.3244 30.7932 99.09C30.5556 98.8524 30.2675 98.7336 29.929 98.7336C29.5937 98.7336 29.3056 98.8524 29.0647 99.09C28.8271 99.3244 28.6448 99.6597 28.5178 100.096C28.3909 100.529 28.3274 101.045 28.3274 101.644V101.653C28.3274 102.252 28.3909 102.77 28.5178 103.206C28.6448 103.642 28.8271 103.979 29.0647 104.217C29.3056 104.455 29.5937 104.573 29.929 104.573Z" fill="#6D6D6D"/>
<path d="M24.0462 132.909C23.7239 132.909 23.4049 132.848 23.0892 132.724C22.7767 132.6 22.4918 132.4 22.2347 132.123C21.9808 131.847 21.7773 131.482 21.6243 131.03C21.4713 130.574 21.3948 130.014 21.3948 129.35V129.34C21.3948 128.539 21.5023 127.856 21.7171 127.289C21.9319 126.72 22.2412 126.285 22.6448 125.986C23.0485 125.683 23.5351 125.531 24.1048 125.531C24.4987 125.531 24.8535 125.605 25.1693 125.751C25.4883 125.894 25.7536 126.096 25.9651 126.357C26.18 126.614 26.3265 126.917 26.4046 127.265L26.4193 127.328H25.5355L25.5159 127.275C25.4443 127.076 25.3418 126.907 25.2083 126.767C25.0781 126.624 24.9186 126.513 24.7298 126.435C24.5443 126.357 24.3327 126.318 24.095 126.318C23.6686 126.318 23.3219 126.443 23.055 126.694C22.7881 126.941 22.5895 127.271 22.4593 127.685C22.3323 128.095 22.2591 128.546 22.2396 129.037C22.2363 129.08 22.2347 129.124 22.2347 129.169C22.2347 129.211 22.2347 129.255 22.2347 129.301L22.4446 130.473C22.4446 130.782 22.5146 131.062 22.6546 131.313C22.7978 131.563 22.9899 131.764 23.2308 131.913C23.4717 132.06 23.7402 132.133 24.0364 132.133C24.3327 132.133 24.6012 132.061 24.8421 131.918C25.083 131.772 25.2734 131.575 25.4134 131.327C25.5566 131.08 25.6282 130.805 25.6282 130.502V130.492C25.6282 130.18 25.5599 129.903 25.4232 129.662C25.2897 129.418 25.1041 129.228 24.8665 129.091C24.6289 128.951 24.3571 128.881 24.0511 128.881C23.7484 128.881 23.4749 128.949 23.2308 129.086C22.9899 129.223 22.7978 129.412 22.6546 129.653C22.5146 129.89 22.4446 130.162 22.4446 130.468V130.473H22.1566V129.203H22.3275C22.4153 129.011 22.5456 128.832 22.7181 128.666C22.8906 128.5 23.1022 128.367 23.3528 128.266C23.6035 128.165 23.8867 128.114 24.2025 128.114C24.6452 128.114 25.0407 128.217 25.389 128.422C25.7373 128.627 26.0107 128.907 26.2093 129.262C26.4111 129.617 26.512 130.02 26.512 130.473V130.483C26.512 130.951 26.4046 131.368 26.1898 131.733C25.9782 132.097 25.6868 132.385 25.3157 132.597C24.9446 132.805 24.5215 132.909 24.0462 132.909ZM30.2816 132.909C29.7607 132.909 29.3148 132.76 28.9437 132.46C28.5758 132.161 28.2926 131.736 28.0941 131.186C27.8955 130.632 27.7962 129.978 27.7962 129.223V129.213C27.7962 128.458 27.8955 127.805 28.0941 127.255C28.2926 126.705 28.5758 126.28 28.9437 125.981C29.3148 125.681 29.7607 125.531 30.2816 125.531C30.8024 125.531 31.2484 125.681 31.6194 125.981C31.9905 126.28 32.2754 126.705 32.4739 127.255C32.6758 127.805 32.7767 128.458 32.7767 129.213V129.223C32.7767 129.978 32.6758 130.632 32.4739 131.186C32.2754 131.736 31.9905 132.161 31.6194 132.46C31.2484 132.76 30.8024 132.909 30.2816 132.909ZM30.2816 132.143C30.6201 132.143 30.9082 132.024 31.1458 131.786C31.3867 131.549 31.5706 131.212 31.6976 130.776C31.8278 130.339 31.8929 129.822 31.8929 129.223V129.213C31.8929 128.614 31.8278 128.098 31.6976 127.665C31.5706 127.229 31.3867 126.894 31.1458 126.659C30.9082 126.422 30.6201 126.303 30.2816 126.303C29.9463 126.303 29.6582 126.422 29.4173 126.659C29.1797 126.894 28.9974 127.229 28.8704 127.665C28.7435 128.098 28.68 128.614 28.68 129.213V129.223C28.68 129.822 28.7435 130.339 28.8704 130.776C28.9974 131.212 29.1797 131.549 29.4173 131.786C29.6582 132.024 29.9463 132.143 30.2816 132.143Z" fill="#6D6D6D"/>
<path d="M24.056 160.479C23.6198 160.479 23.2308 160.392 22.889 160.22C22.5472 160.047 22.2721 159.813 22.0638 159.517C21.8587 159.217 21.7383 158.88 21.7025 158.506L21.6976 158.452H22.5423L22.5472 158.491C22.5765 158.716 22.6579 158.921 22.7913 159.107C22.928 159.289 23.1054 159.434 23.3235 159.541C23.5449 159.648 23.7923 159.702 24.0657 159.702C24.3782 159.702 24.6533 159.634 24.8909 159.497C25.1286 159.357 25.3141 159.165 25.4476 158.921C25.581 158.677 25.6478 158.397 25.6478 158.081V158.071C25.6478 157.759 25.5794 157.482 25.4427 157.241C25.3092 156.997 25.1253 156.807 24.8909 156.67C24.6566 156.533 24.3864 156.465 24.0804 156.465C23.846 156.465 23.6295 156.501 23.431 156.572C23.2357 156.644 23.0615 156.751 22.9085 156.895C22.8467 156.953 22.7881 157.017 22.7327 157.085C22.6806 157.153 22.6318 157.23 22.5862 157.315H21.8245L22.1956 153.267H26.1165V154.053H22.889L22.6497 156.436H22.7278C22.8841 156.198 23.0941 156.017 23.3577 155.894C23.6214 155.767 23.9127 155.703 24.2318 155.703C24.6745 155.703 25.0667 155.806 25.4085 156.011C25.7503 156.213 26.0189 156.491 26.2142 156.846C26.4095 157.197 26.5071 157.601 26.5071 158.057V158.066C26.5071 158.538 26.4013 158.957 26.1898 159.321C25.9814 159.683 25.6933 159.966 25.3255 160.171C24.9577 160.376 24.5345 160.479 24.056 160.479ZM30.2816 160.479C29.7607 160.479 29.3148 160.329 28.9437 160.029C28.5758 159.73 28.2926 159.305 28.0941 158.755C27.8955 158.202 27.7962 157.547 27.7962 156.792V156.782C27.7962 156.027 27.8955 155.374 28.0941 154.824C28.2926 154.274 28.5758 153.849 28.9437 153.55C29.3148 153.25 29.7607 153.101 30.2816 153.101C30.8024 153.101 31.2484 153.25 31.6194 153.55C31.9905 153.849 32.2754 154.274 32.4739 154.824C32.6758 155.374 32.7767 156.027 32.7767 156.782V156.792C32.7767 157.547 32.6758 158.202 32.4739 158.755C32.2754 159.305 31.9905 159.73 31.6194 160.029C31.2484 160.329 30.8024 160.479 30.2816 160.479ZM30.2816 159.712C30.6201 159.712 30.9082 159.593 31.1458 159.356C31.3867 159.118 31.5706 158.781 31.6976 158.345C31.8278 157.909 31.8929 157.391 31.8929 156.792V156.782C31.8929 156.183 31.8278 155.667 31.6976 155.234C31.5706 154.798 31.3867 154.463 31.1458 154.229C30.9082 153.991 30.6201 153.872 30.2816 153.872C29.9463 153.872 29.6582 153.991 29.4173 154.229C29.1797 154.463 28.9974 154.798 28.8704 155.234C28.7435 155.667 28.68 156.183 28.68 156.782V156.792C28.68 157.391 28.7435 157.909 28.8704 158.345C28.9974 158.781 29.1797 159.118 29.4173 159.356C29.6582 159.593 29.9463 159.712 30.2816 159.712Z" fill="#6D6D6D"/>
<path d="M24.7054 187.882V186.422H21.2728V185.621C21.4648 185.302 21.6601 184.98 21.8587 184.654C22.0573 184.325 22.2575 183.998 22.4593 183.673C22.6644 183.344 22.8694 183.018 23.0745 182.696C23.2796 182.374 23.4831 182.057 23.6849 181.744C23.89 181.432 24.0918 181.129 24.2903 180.836H25.5648V185.636H26.5657V186.422H25.5648V187.882H24.7054ZM22.1712 185.641H24.7103V181.651H24.6517C24.4922 181.889 24.3294 182.136 24.1634 182.393C23.9974 182.647 23.8281 182.908 23.6556 183.175C23.4863 183.442 23.317 183.71 23.1478 183.98C22.9785 184.251 22.8109 184.521 22.6448 184.791C22.4821 185.058 22.3242 185.321 22.1712 185.582V185.641ZM30.2816 188.048C29.7607 188.048 29.3148 187.898 28.9437 187.599C28.5758 187.299 28.2926 186.874 28.0941 186.324C27.8955 185.771 27.7962 185.116 27.7962 184.361V184.351C27.7962 183.596 27.8955 182.944 28.0941 182.393C28.2926 181.843 28.5758 181.418 28.9437 181.119C29.3148 180.82 29.7607 180.67 30.2816 180.67C30.8024 180.67 31.2484 180.82 31.6194 181.119C31.9905 181.418 32.2754 181.843 32.4739 182.393C32.6758 182.944 32.7767 183.596 32.7767 184.351V184.361C32.7767 185.116 32.6758 185.771 32.4739 186.324C32.2754 186.874 31.9905 187.299 31.6194 187.599C31.2484 187.898 30.8024 188.048 30.2816 188.048ZM30.2816 187.281C30.6201 187.281 30.9082 187.162 31.1458 186.925C31.3867 186.687 31.5706 186.35 31.6976 185.914C31.8278 185.478 31.8929 184.96 31.8929 184.361V184.351C31.8929 183.752 31.8278 183.237 31.6976 182.804C31.5706 182.367 31.3867 182.032 31.1458 181.798C30.9082 181.56 30.6201 181.441 30.2816 181.441C29.9463 181.441 29.6582 181.56 29.4173 181.798C29.1797 182.032 28.9974 182.367 28.8704 182.804C28.7435 183.237 28.68 183.752 28.68 184.351V184.361C28.68 184.96 28.7435 185.478 28.8704 185.914C28.9974 186.35 29.1797 186.687 29.4173 186.925C29.6582 187.162 29.9463 187.281 30.2816 187.281Z" fill="#6D6D6D"/>
<path d="M24.0511 215.569C23.5661 215.569 23.1429 215.486 22.7816 215.32C22.4202 215.154 22.1338 214.926 21.9222 214.636C21.7138 214.346 21.5934 214.016 21.5609 213.645L21.556 213.586H22.4007L22.4056 213.635C22.4414 213.98 22.6074 214.262 22.9036 214.48C23.1998 214.698 23.5823 214.807 24.0511 214.807C24.3603 214.807 24.6305 214.753 24.8616 214.646C25.096 214.539 25.2783 214.39 25.4085 214.202C25.5387 214.01 25.6038 213.79 25.6038 213.542V213.533C25.6038 213.1 25.459 212.768 25.1693 212.537C24.8828 212.302 24.4922 212.185 23.9974 212.185H23.1136V211.443H23.9583C24.2383 211.443 24.4857 211.391 24.7005 211.287C24.9153 211.179 25.083 211.034 25.2034 210.852C25.3239 210.666 25.3841 210.456 25.3841 210.222V210.212C25.3841 209.965 25.332 209.755 25.2278 209.582C25.1237 209.41 24.9707 209.278 24.7689 209.187C24.5703 209.096 24.3278 209.05 24.0413 209.05C23.7646 209.05 23.5172 209.097 23.2991 209.192C23.0843 209.283 22.9118 209.415 22.7816 209.587C22.6513 209.76 22.5732 209.965 22.5472 210.203L22.5423 210.251H21.6976L21.7025 210.203C21.7415 209.818 21.862 209.483 22.0638 209.197C22.2689 208.91 22.539 208.687 22.8743 208.528C23.2129 208.368 23.6019 208.289 24.0413 208.289C24.4905 208.289 24.8812 208.367 25.2132 208.523C25.5485 208.676 25.8073 208.889 25.9896 209.163C26.1751 209.433 26.2679 209.747 26.2679 210.105V210.115C26.2679 210.404 26.2044 210.662 26.0775 210.886C25.9505 211.111 25.7747 211.298 25.5501 211.448C25.3255 211.597 25.0667 211.703 24.7737 211.765V211.785C25.2881 211.827 25.7031 212.001 26.0189 212.307C26.3379 212.61 26.4974 213.012 26.4974 213.513V213.523C26.4974 213.914 26.3916 214.263 26.18 214.573C25.9684 214.882 25.6787 215.126 25.3109 215.305C24.943 215.481 24.5231 215.569 24.0511 215.569ZM30.2816 215.618C29.7607 215.618 29.3148 215.468 28.9437 215.168C28.5758 214.869 28.2926 214.444 28.0941 213.894C27.8955 213.341 27.7962 212.686 27.7962 211.931V211.921C27.7962 211.166 27.8955 210.513 28.0941 209.963C28.2926 209.413 28.5758 208.988 28.9437 208.689C29.3148 208.389 29.7607 208.24 30.2816 208.24C30.8024 208.24 31.2484 208.389 31.6194 208.689C31.9905 208.988 32.2754 209.413 32.4739 209.963C32.6758 210.513 32.7767 211.166 32.7767 211.921V211.931C32.7767 212.686 32.6758 213.341 32.4739 213.894C32.2754 214.444 31.9905 214.869 31.6194 215.168C31.2484 215.468 30.8024 215.618 30.2816 215.618ZM30.2816 214.851C30.6201 214.851 30.9082 214.732 31.1458 214.495C31.3867 214.257 31.5706 213.92 31.6976 213.484C31.8278 213.048 31.8929 212.53 31.8929 211.931V211.921C31.8929 211.322 31.8278 210.806 31.6976 210.373C31.5706 209.937 31.3867 209.602 31.1458 209.368C30.9082 209.13 30.6201 209.011 30.2816 209.011C29.9463 209.011 29.6582 209.13 29.4173 209.368C29.1797 209.602 28.9974 209.937 28.8704 210.373C28.7435 210.806 28.68 211.322 28.68 211.921V211.931C28.68 212.53 28.7435 213.048 28.8704 213.484C28.9974 213.92 29.1797 214.257 29.4173 214.495C29.6582 214.732 29.9463 214.851 30.2816 214.851Z" fill="#6D6D6D"/>
<path d="M21.888 243.194V242.588L24.2708 240.01C24.5703 239.684 24.8047 239.416 24.9739 239.204C25.1432 238.99 25.262 238.796 25.3304 238.623C25.3987 238.451 25.4329 238.262 25.4329 238.057V238.047C25.4329 237.8 25.3792 237.578 25.2718 237.383C25.1644 237.188 25.0114 237.033 24.8128 236.919C24.6142 236.805 24.3766 236.748 24.0999 236.748C23.82 236.748 23.5742 236.807 23.3626 236.924C23.151 237.038 22.9866 237.199 22.8694 237.407C22.7523 237.613 22.6937 237.853 22.6937 238.13L22.6888 238.14L21.8489 238.135L21.8392 238.13C21.8424 237.713 21.9433 237.344 22.1419 237.022C22.3405 236.696 22.6139 236.442 22.9622 236.26C23.3105 236.074 23.7093 235.982 24.1585 235.982C24.5687 235.982 24.9381 236.068 25.2669 236.24C25.5957 236.41 25.8545 236.642 26.0433 236.939C26.2353 237.235 26.3314 237.573 26.3314 237.954V237.964C26.3314 238.231 26.2842 238.488 26.1898 238.736C26.0986 238.983 25.9359 239.258 25.7015 239.561C25.4671 239.86 25.1367 240.23 24.7103 240.669L22.889 242.549L23.1087 242.144V242.549L22.8939 242.403H26.4485V243.194H21.888ZM30.2816 243.36C29.7607 243.36 29.3148 243.21 28.9437 242.91C28.5758 242.611 28.2926 242.186 28.0941 241.636C27.8955 241.083 27.7962 240.428 27.7962 239.673V239.663C27.7962 238.908 27.8955 238.255 28.0941 237.705C28.2926 237.155 28.5758 236.73 28.9437 236.431C29.3148 236.131 29.7607 235.982 30.2816 235.982C30.8024 235.982 31.2484 236.131 31.6194 236.431C31.9905 236.73 32.2754 237.155 32.4739 237.705C32.6758 238.255 32.7767 238.908 32.7767 239.663V239.673C32.7767 240.428 32.6758 241.083 32.4739 241.636C32.2754 242.186 31.9905 242.611 31.6194 242.91C31.2484 243.21 30.8024 243.36 30.2816 243.36ZM30.2816 242.593C30.6201 242.593 30.9082 242.474 31.1458 242.237C31.3867 241.999 31.5706 241.662 31.6976 241.226C31.8278 240.79 31.8929 240.272 31.8929 239.673V239.663C31.8929 239.064 31.8278 238.548 31.6976 238.115C31.5706 237.679 31.3867 237.344 31.1458 237.11C30.9082 236.872 30.6201 236.753 30.2816 236.753C29.9463 236.753 29.6582 236.872 29.4173 237.11C29.1797 237.344 28.9974 237.679 28.8704 238.115C28.7435 238.548 28.68 239.064 28.68 239.663V239.673C28.68 240.272 28.7435 240.79 28.8704 241.226C28.9974 241.662 29.1797 241.999 29.4173 242.237C29.6582 242.474 29.9463 242.593 30.2816 242.593Z" fill="#6D6D6D"/>
</g>
</g>
<defs>
<filter id="filter0_d_69_2509" x="0.443334" y="0.706667" width="513.113" height="293.113" filterUnits="userSpaceOnUse" color-interpolation-filters="sRGB">
<feFlood flood-opacity="0" result="BackgroundImageFix"/>
<feColorMatrix in="SourceAlpha" type="matrix" values="0 0 0 0 0 0 0 0 0 0 0 0 0 0 0 0 0 0 127 0" result="hardAlpha"/>
<feOffset dy="2.26333"/>
<feGaussianBlur stdDeviation="1.77833"/>
<feComposite in2="hardAlpha" operator="out"/>
<feColorMatrix type="matrix" values="0 0 0 0 0 0 0 0 0 0 0 0 0 0 0 0 0 0 0.05 0"/>
<feBlend mode="normal" in2="BackgroundImageFix" result="effect1_dropShadow_69_2509"/>
<feBlend mode="normal" in="SourceGraphic" in2="effect1_dropShadow_69_2509" result="shape"/>
</filter>
<clipPath id="clip0_69_2509">
<rect width="483.707" height="218.573" fill="white" transform="translate(15.1467 54.7133)"/>
</clipPath>
</defs>
</svg>
