<svg width="30" height="31" viewBox="0 0 30 31" fill="none" xmlns="http://www.w3.org/2000/svg">
<path d="M10.3338 18.8501C10.1038 18.8501 9.94877 18.8726 9.86877 18.8951V20.3676C9.96377 20.3901 10.0825 20.3963 10.2463 20.3963C10.845 20.3963 11.2138 20.0938 11.2138 19.5826C11.2138 19.1251 10.8963 18.8501 10.3338 18.8501ZM14.6925 18.8651C14.4425 18.8651 14.28 18.8876 14.1838 18.9101V22.1726C14.28 22.1951 14.435 22.1951 14.575 22.1951C15.5963 22.2026 16.2613 21.6401 16.2613 20.4501C16.2688 19.4126 15.6625 18.8651 14.6925 18.8651Z" fill="#B0B0B0"/>
<path d="M17.5 3H7.5C6.83696 3 6.20107 3.26339 5.73223 3.73223C5.26339 4.20107 5 4.83696 5 5.5V25.5C5 26.163 5.26339 26.7989 5.73223 27.2678C6.20107 27.7366 6.83696 28 7.5 28H22.5C23.163 28 23.7989 27.7366 24.2678 27.2678C24.7366 26.7989 25 26.163 25 25.5V10.5L17.5 3ZM11.8725 20.7375C11.4863 21.1 10.9162 21.2625 10.2525 21.2625C10.1238 21.2649 9.99506 21.2574 9.8675 21.24V23.0225H8.75V18.1025C9.25434 18.0275 9.76391 17.9932 10.2737 18C10.97 18 11.465 18.1325 11.7987 18.3988C12.1163 18.6512 12.3312 19.065 12.3312 19.5525C12.33 20.0425 12.1675 20.4563 11.8725 20.7375ZM16.6313 22.4312C16.1063 22.8675 15.3075 23.075 14.3313 23.075C13.7463 23.075 13.3325 23.0375 13.0513 23V18.1038C13.5558 18.0304 14.0652 17.9957 14.575 18C15.5212 18 16.1363 18.17 16.6163 18.5325C17.135 18.9175 17.46 19.5312 17.46 20.4125C17.46 21.3663 17.1112 22.025 16.6313 22.4312ZM21.25 18.9625H19.335V20.1012H21.125V21.0188H19.335V23.0237H18.2025V18.0375H21.25V18.9625ZM17.5 11.75H16.25V5.5L22.5 11.75H17.5Z" fill="#B0B0B0"/>
</svg>
