<svg width="12" height="12" viewBox="0 0 12 12" fill="none" xmlns="http://www.w3.org/2000/svg">
<path d="M7.5565 1.605L7.6035 1.6465L10.3535 4.3965C10.4378 4.48124 10.4889 4.59336 10.4977 4.71256C10.5064 4.83176 10.4722 4.95015 10.4011 5.04627C10.3301 5.14239 10.227 5.20989 10.1105 5.23653C9.99395 5.26317 9.87175 5.2472 9.766 5.1915L8.18 6.777L7.468 8.6755C7.44925 8.72559 7.42258 8.77236 7.389 8.814L7.354 8.854L6.604 9.604C6.51784 9.69001 6.40326 9.74164 6.28175 9.74919C6.16024 9.75673 6.04015 9.71969 5.944 9.645L5.8965 9.6035L4.5 8.2075L2.6035 10.1035C2.51352 10.1932 2.39279 10.2452 2.26581 10.2491C2.13884 10.253 2.01515 10.2084 1.91986 10.1244C1.82458 10.0404 1.76485 9.92322 1.7528 9.79676C1.74076 9.6703 1.7773 9.544 1.855 9.4435L1.8965 9.3965L3.7925 7.5L2.3965 6.1035C2.31042 6.0174 2.2587 5.90285 2.25106 5.78134C2.24342 5.65983 2.28038 5.5397 2.355 5.4435L2.3965 5.3965L3.1465 4.6465C3.18423 4.60864 3.22778 4.57707 3.2755 4.553L3.3245 4.532L5.2225 3.8195L6.808 2.2345C6.75394 2.13342 6.73625 2.01682 6.7579 1.90425C6.77955 1.79168 6.83922 1.68997 6.92693 1.61615C7.01463 1.54233 7.12504 1.50089 7.23965 1.49877C7.35427 1.49665 7.46613 1.53448 7.5565 1.605Z" fill="white" fill-opacity="0.5"/>
</svg>
