<svg width="39" height="38" viewBox="0 0 39 38" fill="none" xmlns="http://www.w3.org/2000/svg">
<rect x="0.5" width="38" height="38" rx="19" fill="#005DE9" fill-opacity="0.1"/>
<path d="M19.6235 29.0992C24.9271 29.031 29.1674 24.6801 29.0992 19.3765C29.031 14.073 24.6801 9.83257 19.3765 9.90079C14.073 9.96902 9.83259 14.3199 9.90081 19.6235C9.96903 24.927 14.3199 29.1674 19.6235 29.0992ZM20.8346 17.8267L21.3543 25.5727L17.8026 25.6183L18.1228 17.8616L20.8346 17.8267ZM20.6748 13.7964C20.9663 14.0687 21.1272 14.4507 21.1335 14.9426C21.14 15.4466 21.001 15.8324 20.7165 16.1121C20.4321 16.3918 20.014 16.5411 19.45 16.5484C18.8861 16.5557 18.4643 16.4171 18.1608 16.1449C17.8572 15.8728 17.7083 15.4907 17.7018 14.9868C17.6955 14.4948 17.8465 14.1088 18.143 13.829C18.4514 13.549 18.8697 13.4116 19.4096 13.4047C19.9496 13.3977 20.3712 13.5243 20.6748 13.7964Z" fill="#005DE9"/>
</svg>
