<svg width="38" height="39" viewBox="0 0 38 39" fill="none" xmlns="http://www.w3.org/2000/svg">
<rect y="0.5" width="38" height="38" rx="19" fill="#C32D2F" fill-opacity="0.1"/>
<path d="M19.1235 10.4008C24.4271 10.469 28.6674 14.8199 28.5992 20.1235C28.531 25.427 24.1801 29.6674 18.8765 29.5992C13.573 29.531 9.33259 25.1801 9.40081 19.8765C9.46903 14.573 13.8199 10.3326 19.1235 10.4008ZM20.3346 21.6733L20.8543 13.9273L17.3026 13.8817L17.6228 21.6384L20.3346 21.6733ZM20.1748 25.7036C20.4663 25.4313 20.6272 25.0493 20.6335 24.5574C20.64 24.0534 20.501 23.6676 20.2165 23.3879C19.9321 23.1082 19.514 22.9589 18.95 22.9516C18.3861 22.9443 17.9643 23.0829 17.6608 23.3551C17.3572 23.6272 17.2083 24.0093 17.2018 24.5132C17.1955 25.0052 17.3465 25.3912 17.643 25.671C17.9514 25.951 18.3697 26.0884 18.9096 26.0953C19.4496 26.1023 19.8712 25.9757 20.1748 25.7036Z" fill="#C32D2F"/>
</svg>
