<svg width="39" height="39" viewBox="0 0 39 39" fill="none" xmlns="http://www.w3.org/2000/svg">
<rect x="0.833374" y="0.5" width="38" height="38" rx="19" fill="#FFFF00" fill-opacity="0.1"/>
<path fill-rule="evenodd" clip-rule="evenodd" d="M26.6216 25.7882C24.8213 27.5886 22.3795 28.6 19.8334 28.6C17.2873 28.6 14.8455 27.5886 13.0452 25.7882C11.53 24.2731 10.5736 22.9036 10.3087 20.8H19.8334H29.3581C29.0932 22.9036 28.1368 24.2731 26.6216 25.7882ZM29.333 17.5C29.068 15.3964 28.1368 13.7269 26.6216 12.2118C24.8213 10.4114 22.3795 9.4 19.8334 9.4C17.2873 9.4 14.8455 10.4114 13.0452 12.2118C11.53 13.7269 10.5485 15.3964 10.2835 17.5H19.8083H29.333Z" fill="#B4B400"/>
</svg>
