<svg width="36" height="36" viewBox="0 0 36 36" fill="none" xmlns="http://www.w3.org/2000/svg">
<rect width="36" height="36" rx="18" fill="#2B2F14"/>
<path d="M15.1128 10.9999H18.5474V14.1719C18.5474 14.7157 17.9947 15.0404 17.7184 15.1348L10.3162 18.0803H18.5474V21.2523H7V16.2677C7 15.8146 7.51322 15.4747 7.76983 15.3614L15.1128 12.4726V10.9999Z" fill="#D0F601"/>
<path d="M21.8871 25.1024L18.4524 25.1024L18.4524 21.9304C18.4524 21.3866 19.0051 21.0619 19.2815 20.9675L26.6837 18.022L18.4524 18.022L18.4524 14.85L29.9999 14.85L29.9999 19.8346C29.9999 20.2877 29.4867 20.6276 29.23 20.7409L21.8871 23.6297L21.8871 25.1024Z" fill="#D0F601"/>
</svg>
