<svg width="7" height="12" viewBox="0 0 7 12" fill="none" xmlns="http://www.w3.org/2000/svg">
<path d="M4.3933 5.94083L0.268297 10.0658C0.116498 10.223 0.0325031 10.4335 0.0344019 10.652C0.0363007 10.8705 0.123941 11.0795 0.278448 11.234C0.432955 11.3885 0.641965 11.4762 0.860462 11.4781C1.07896 11.48 1.28946 11.396 1.44663 11.2442L6.1608 6.52999C6.31702 6.37372 6.40479 6.1618 6.40479 5.94083C6.40479 5.71986 6.31702 5.50793 6.1608 5.35166L1.44663 0.637495C1.28946 0.485696 1.07896 0.401701 0.860462 0.4036C0.641965 0.405499 0.432955 0.49314 0.278448 0.647647C0.123941 0.802154 0.0363007 1.01116 0.0344019 1.22966C0.0325031 1.44816 0.116498 1.65866 0.268297 1.81583L4.3933 5.94083Z" fill="white"/>
</svg>
