<svg width="16" height="16" viewBox="0 0 16 16" fill="none" xmlns="http://www.w3.org/2000/svg">
<path d="M12.0937 4C11.725 4 11.4281 4.29688 11.4281 4.66563V11.3313C11.4281 13.1719 9.93748 14.6656 8.09373 14.6656C6.24998 14.6656 4.75935 13.1719 4.75935 11.3313V3.33125C4.75935 2.22813 5.6531 1.33125 6.75935 1.33125C7.8656 1.33125 8.75935 2.22813 8.75935 3.33125V10C8.75935 10.3687 8.45935 10.6656 8.09373 10.6656C7.7281 10.6656 7.4281 10.3687 7.4281 10V4.66563C7.4281 4.29688 7.1281 4 6.76248 4C6.39373 4 6.09685 4.29688 6.09685 4.66563V10C6.09685 11.1062 6.9906 12 8.09685 12C9.2031 12 10.0969 11.1062 10.0969 10V3.33437C10.0937 1.49375 8.59998 0 6.75935 0C4.91873 0 3.4281 1.49375 3.4281 3.33437V11.3344C3.4281 13.9125 5.51873 16 8.09373 16C10.6687 16 12.7593 13.9094 12.7593 11.3344V4.66563C12.7593 4.29688 12.4625 4 12.0937 4Z" fill="white"/>
</svg>
