<svg width="24" height="24" viewBox="0 0 24 24" fill="none" xmlns="http://www.w3.org/2000/svg">
<rect width="24" height="24" rx="12" fill="#6F4B00"/>
<path fill-rule="evenodd" clip-rule="evenodd" d="M13.3387 16.6685L13.3427 15.3332C13.3427 15.1559 13.4131 14.9859 13.5384 14.8606C13.6638 14.7353 13.8338 14.6648 14.011 14.6648C14.1883 14.6648 14.3583 14.7353 14.4836 14.8606C14.6089 14.9859 14.6793 15.1559 14.6793 15.3332V16.6512C14.6793 16.9718 14.6793 17.1325 14.782 17.2312C14.8853 17.3292 15.042 17.3225 15.3573 17.3092C16.5993 17.2565 17.3627 17.0892 17.9 16.5518C18.44 16.0145 18.6073 15.2512 18.66 14.0072C18.67 13.7605 18.6753 13.6365 18.6293 13.5545C18.5827 13.4725 18.3993 13.3698 18.0313 13.1638C17.8241 13.0483 17.6514 12.8795 17.5312 12.6748C17.411 12.4702 17.3476 12.2372 17.3476 11.9998C17.3476 11.7625 17.411 11.5295 17.5312 11.3249C17.6514 11.1202 17.8241 10.9514 18.0313 10.8358C18.3993 10.6305 18.5833 10.5272 18.6293 10.4452C18.6753 10.3632 18.67 10.2398 18.6593 9.9925C18.6073 8.7485 18.4393 7.98584 17.9 7.44784C17.3153 6.86384 16.4633 6.7165 15.0187 6.67917C14.9744 6.67801 14.9304 6.68573 14.8892 6.70186C14.848 6.71799 14.8105 6.74221 14.7788 6.7731C14.7471 6.80398 14.7219 6.8409 14.7047 6.88167C14.6875 6.92245 14.6787 6.96625 14.6787 7.0105V8.6665C14.6787 8.84376 14.6083 9.01375 14.4829 9.13909C14.3576 9.26442 14.1876 9.33484 14.0103 9.33484C13.8331 9.33484 13.6631 9.26442 13.5378 9.13909C13.4124 9.01375 13.342 8.84376 13.342 8.6665L13.3373 6.99917C13.3372 6.91088 13.302 6.82627 13.2395 6.7639C13.177 6.70153 13.0923 6.6665 13.004 6.6665H10.6627C8.14267 6.6665 6.88267 6.6665 6.09934 7.44784C5.55934 7.98517 5.39201 8.7485 5.33934 9.9925C5.32934 10.2392 5.32401 10.3632 5.37001 10.4452C5.41667 10.5272 5.60001 10.6305 5.96801 10.8358C6.1753 10.9514 6.34796 11.1202 6.46817 11.3249C6.58837 11.5295 6.65175 11.7625 6.65175 11.9998C6.65175 12.2372 6.58837 12.4702 6.46817 12.6748C6.34796 12.8795 6.1753 13.0483 5.96801 13.1638C5.60001 13.3698 5.41601 13.4725 5.37001 13.5545C5.32401 13.6365 5.32934 13.7598 5.34001 14.0065C5.39201 15.2512 5.56001 16.0145 6.09934 16.5518C6.88267 17.3332 8.14267 17.3332 10.6633 17.3332H12.67C12.9847 17.3332 13.1413 17.3332 13.2393 17.2358C13.3373 17.1385 13.338 16.9825 13.3387 16.6685ZM14.6787 12.6665V11.3332C14.6787 11.1559 14.6083 10.9859 14.4829 10.8606C14.3576 10.7353 14.1876 10.6648 14.0103 10.6648C13.8331 10.6648 13.6631 10.7353 13.5378 10.8606C13.4124 10.9859 13.342 11.1559 13.342 11.3332V12.6665C13.342 12.8438 13.4125 13.0139 13.5379 13.1393C13.6633 13.2647 13.8333 13.3352 14.0107 13.3352C14.188 13.3352 14.3581 13.2647 14.4835 13.1393C14.6089 13.0139 14.6787 12.8438 14.6787 12.6665Z" fill="#FFECC4"/>
</svg>
