<svg width="18" height="18" viewBox="0 0 18 18" fill="none" xmlns="http://www.w3.org/2000/svg">
<path d="M14.1825 11.0194C14.1825 11.9869 14.9775 12.7744 15.945 12.7744C15.945 15.5869 15.24 16.2919 12.4275 16.2919H5.3925C2.58 16.2919 1.875 15.5869 1.875 12.7744V12.4294C2.8425 12.4294 3.6375 11.6344 3.6375 10.6669C3.6375 9.69937 2.8425 8.90437 1.875 8.90437V8.55937C1.8825 5.74687 2.58 5.04187 5.3925 5.04187H12.42C15.2325 5.04187 15.9375 5.74687 15.9375 8.55937V9.26437C14.97 9.26437 14.1825 10.0444 14.1825 11.0194Z" stroke="white" stroke-opacity="0.5" stroke-width="1.5" stroke-linecap="round" stroke-linejoin="round"/>
<path d="M12.1583 5.04187H5.34082L7.53832 2.84438C9.33082 1.05187 10.2308 1.05187 12.0233 2.84438L12.4733 3.29437C12.0008 3.76687 11.8883 4.46437 12.1583 5.04187Z" stroke="white" stroke-opacity="0.5" stroke-width="1.5" stroke-linecap="round" stroke-linejoin="round"/>
<path d="M7.40918 5.04199L7.40918 16.292" stroke="white" stroke-opacity="0.5" stroke-width="1.5" stroke-linecap="round" stroke-linejoin="round" stroke-dasharray="5 5"/>
</svg>
