<svg width="16" height="17" viewBox="0 0 16 17" fill="none" xmlns="http://www.w3.org/2000/svg">
<path fill-rule="evenodd" clip-rule="evenodd" d="M13.3433 3.91683L12.6758 15.2643C12.6509 15.6888 12.4647 16.0877 12.1554 16.3794C11.846 16.6712 11.4368 16.8336 11.0116 16.8335H4.98829C4.56308 16.8336 4.15392 16.6712 3.84455 16.3794C3.53518 16.0877 3.349 15.6888 3.32413 15.2643L2.65829 3.91683H0.916626V3.0835C0.916626 2.97299 0.960525 2.86701 1.03866 2.78887C1.11681 2.71073 1.22279 2.66683 1.33329 2.66683H14.6666C14.7771 2.66683 14.8831 2.71073 14.9613 2.78887C15.0394 2.86701 15.0833 2.97299 15.0833 3.0835V3.91683H13.3433ZM6.33329 0.583496H9.66663C9.77713 0.583496 9.88311 0.627395 9.96125 0.705535C10.0394 0.783675 10.0833 0.889656 10.0833 1.00016V1.8335H5.91663V1.00016C5.91663 0.889656 5.96052 0.783675 6.03866 0.705535C6.11681 0.627395 6.22279 0.583496 6.33329 0.583496ZM5.49996 6.00016L5.91663 13.5002H7.16663L6.83329 6.00016H5.49996ZM9.24996 6.00016L8.83329 13.5002H10.0833L10.5 6.00016H9.24996Z" fill="#868686"/>
</svg>
