<svg width="16" height="17" viewBox="0 0 16 17" fill="none" xmlns="http://www.w3.org/2000/svg">
<path d="M5.50027 11L10.5003 6.00003M3.73027 7.11003L2.67027 8.17003C1.91971 8.92059 1.49805 9.93857 1.49805 11C1.49805 12.0615 1.91971 13.0795 2.67027 13.83C3.42083 14.5806 4.43882 15.0023 5.50027 15.0023C6.56173 15.0023 7.57971 14.5806 8.33027 13.83L9.39027 12.77M12.2703 9.89003L13.3303 8.83003C14.0808 8.07946 14.5025 7.06148 14.5025 6.00003C14.5025 4.93857 14.0808 3.92059 13.3303 3.17003C12.5797 2.41946 11.5617 1.9978 10.5003 1.9978C9.43881 1.9978 8.42083 2.41946 7.67027 3.17003L6.61027 4.23003" stroke="white" stroke-linecap="round" stroke-linejoin="round"/>
</svg>
