<svg width="16" height="16" viewBox="0 0 16 16" fill="none" xmlns="http://www.w3.org/2000/svg">
<path d="M9.33332 2.6666C9.33733 2.84416 9.30583 3.02073 9.24067 3.18595C9.17551 3.35117 9.07799 3.5017 8.95385 3.62872C8.82971 3.75573 8.68144 3.85666 8.51776 3.92558C8.35407 3.99451 8.17826 4.03003 8.00066 4.03008C7.82305 4.03012 7.64723 3.99468 7.48351 3.92584C7.31979 3.857 7.17147 3.75614 7.04727 3.62919C6.92306 3.50224 6.82547 3.35176 6.76023 3.18657C6.69498 3.02138 6.66339 2.84483 6.66732 2.66727C6.67502 2.31889 6.8188 1.98738 7.06788 1.74369C7.31695 1.5 7.65153 1.3635 7.99999 1.36341C8.34845 1.36332 8.6831 1.49965 8.9323 1.74322C9.18149 1.98679 9.32544 2.31823 9.33332 2.6666ZM7.99998 11.9999C8.17754 11.9959 8.35412 12.0274 8.51933 12.0926C8.68455 12.1577 8.83509 12.2553 8.9621 12.3794C9.08911 12.5035 9.19004 12.6518 9.25897 12.8155C9.32789 12.9792 9.36342 13.155 9.36346 13.3326C9.36351 13.5102 9.32807 13.686 9.25923 13.8497C9.19038 14.0135 9.08953 14.1618 8.96258 14.286C8.83563 14.4102 8.68514 14.5078 8.51995 14.573C8.35477 14.6383 8.17821 14.6699 8.00065 14.6659C7.65228 14.6582 7.32076 14.5145 7.07707 14.2654C6.83338 14.0163 6.69688 13.6817 6.69679 13.3333C6.69671 12.9848 6.83304 12.6502 7.0766 12.401C7.32017 12.1518 7.65161 12.0078 7.99998 11.9999ZM7.99998 6.6666C8.17754 6.66259 8.35412 6.69408 8.51933 6.75925C8.68455 6.82441 8.83509 6.92193 8.9621 7.04607C9.08911 7.17021 9.19004 7.31848 9.25897 7.48216C9.32789 7.64585 9.36342 7.82166 9.36346 7.99926C9.36351 8.17686 9.32807 8.35269 9.25923 8.51641C9.19038 8.68013 9.08953 8.82844 8.96258 8.95265C8.83563 9.07686 8.68514 9.17445 8.51995 9.23969C8.35477 9.30494 8.17821 9.33653 8.00065 9.3326C7.65228 9.3249 7.32076 9.18112 7.07707 8.93204C6.83338 8.68296 6.69688 8.34839 6.69679 7.99993C6.69671 7.65147 6.83304 7.31682 7.0766 7.06762C7.32017 6.81842 7.65161 6.67448 7.99998 6.6666Z" fill="#939393"/>
</svg>
