<svg width="14" height="14" viewBox="0 0 14 14" fill="none" xmlns="http://www.w3.org/2000/svg">
<path d="M7.309 11.9117H3.62234C1.779 11.9117 1.1665 10.6867 1.1665 9.45588V4.54421C1.1665 2.70088 1.779 2.08838 3.62234 2.08838H7.309C9.15234 2.08838 9.76484 2.70088 9.76484 4.54421V9.45588C9.76484 11.2992 9.1465 11.9117 7.309 11.9117Z" stroke="white" stroke-linecap="round" stroke-linejoin="round"/>
<path d="M11.3868 9.97495L9.76514 8.83745V5.15662L11.3868 4.01912C12.1801 3.46495 12.8335 3.80329 12.8335 4.77745V9.22245C12.8335 10.1966 12.1801 10.535 11.3868 9.97495Z" stroke="white" stroke-linecap="round" stroke-linejoin="round"/>
<path d="M6.7085 6.41675C7.19175 6.41675 7.5835 6.025 7.5835 5.54175C7.5835 5.0585 7.19175 4.66675 6.7085 4.66675C6.22525 4.66675 5.8335 5.0585 5.8335 5.54175C5.8335 6.025 6.22525 6.41675 6.7085 6.41675Z" stroke="white" stroke-linecap="round" stroke-linejoin="round"/>
</svg>
