<svg width="1256" height="152" viewBox="0 0 1256 152" fill="none" xmlns="http://www.w3.org/2000/svg">
<mask id="path-1-outside-1_524_14" maskUnits="userSpaceOnUse" x="-2" y="-1" width="1259" height="264" fill="black">
<rect fill="white" x="-2" y="-1" width="1259" height="264"/>
<path d="M323.66 28.66L259.31 259H204.86L161.63 94.99L116.42 259L62.3 259.33L0.260001 28.66H49.76L90.35 207.52L137.21 28.66H188.69L232.91 206.53L273.83 28.66H323.66ZM341.947 166.93C341.947 148.45 345.577 132.06 352.837 117.76C360.317 103.46 370.327 92.46 382.867 84.76C395.627 77.06 409.817 73.21 425.437 73.21C439.077 73.21 450.957 75.96 461.077 81.46C471.417 86.96 479.667 93.89 485.827 102.25V76.18H532.357V259H485.827V232.27C479.887 240.85 471.637 248 461.077 253.72C450.737 259.22 438.747 261.97 425.107 261.97C409.707 261.97 395.627 258.01 382.867 250.09C370.327 242.17 360.317 231.06 352.837 216.76C345.577 202.24 341.947 185.63 341.947 166.93ZM485.827 167.59C485.827 156.37 483.627 146.8 479.227 138.88C474.827 130.74 468.887 124.58 461.407 120.4C453.927 116 445.897 113.8 437.317 113.8C428.737 113.8 420.817 115.89 413.557 120.07C406.297 124.25 400.357 130.41 395.737 138.55C391.337 146.47 389.137 155.93 389.137 166.93C389.137 177.93 391.337 187.61 395.737 195.97C400.357 204.11 406.297 210.38 413.557 214.78C421.037 219.18 428.957 221.38 437.317 221.38C445.897 221.38 453.927 219.29 461.407 215.11C468.887 210.71 474.827 204.55 479.227 196.63C483.627 188.49 485.827 178.81 485.827 167.59ZM600.909 54.4C592.769 54.4 585.949 51.87 580.449 46.81C575.169 41.53 572.529 35.04 572.529 27.34C572.529 19.64 575.169 13.26 580.449 8.19998C585.949 2.91999 592.769 0.279987 600.909 0.279987C609.049 0.279987 615.759 2.91999 621.039 8.19998C626.539 13.26 629.289 19.64 629.289 27.34C629.289 35.04 626.539 41.53 621.039 46.81C615.759 51.87 609.049 54.4 600.909 54.4ZM623.679 76.18V259H577.479V76.18H623.679ZM723.115 114.13V202.57C723.115 208.73 724.545 213.24 727.405 216.1C730.485 218.74 735.545 220.06 742.585 220.06H764.035V259H734.995C696.055 259 676.585 240.08 676.585 202.24V114.13H654.805V76.18H676.585V30.97H723.115V76.18H764.035V114.13H723.115ZM843.464 14.8V259H797.264V14.8H843.464ZM912.54 54.4C904.4 54.4 897.58 51.87 892.08 46.81C886.8 41.53 884.16 35.04 884.16 27.34C884.16 19.64 886.8 13.26 892.08 8.19998C897.58 2.91999 904.4 0.279987 912.54 0.279987C920.68 0.279987 927.39 2.91999 932.67 8.19998C938.17 13.26 940.92 19.64 940.92 27.34C940.92 35.04 938.17 41.53 932.67 46.81C927.39 51.87 920.68 54.4 912.54 54.4ZM935.31 76.18V259H889.11V76.18H935.31ZM1050.92 261.97C1035.96 261.97 1022.54 259.33 1010.66 254.05C998.776 248.55 989.316 241.18 982.276 231.94C975.456 222.7 971.716 212.47 971.056 201.25H1017.59C1018.47 208.29 1021.88 214.12 1027.82 218.74C1033.98 223.36 1041.57 225.67 1050.59 225.67C1059.39 225.67 1066.21 223.91 1071.05 220.39C1076.11 216.87 1078.64 212.36 1078.64 206.86C1078.64 200.92 1075.56 196.52 1069.4 193.66C1063.46 190.58 1053.89 187.28 1040.69 183.76C1027.05 180.46 1015.83 177.05 1007.03 173.53C998.446 170.01 990.966 164.62 984.586 157.36C978.426 150.1 975.346 140.31 975.346 127.99C975.346 117.87 978.206 108.63 983.926 100.27C989.866 91.91 998.226 85.31 1009.01 80.47C1020.01 75.63 1032.88 73.21 1047.62 73.21C1069.4 73.21 1086.78 78.71 1099.76 89.71C1112.74 100.49 1119.89 115.12 1121.21 133.6H1076.99C1076.33 126.34 1073.25 120.62 1067.75 116.44C1062.47 112.04 1055.32 109.84 1046.3 109.84C1037.94 109.84 1031.45 111.38 1026.83 114.46C1022.43 117.54 1020.23 121.83 1020.23 127.33C1020.23 133.49 1023.31 138.22 1029.47 141.52C1035.63 144.6 1045.2 147.79 1058.18 151.09C1071.38 154.39 1082.27 157.8 1090.85 161.32C1099.43 164.84 1106.8 170.34 1112.96 177.82C1119.34 185.08 1122.64 194.76 1122.86 206.86C1122.86 217.42 1119.89 226.88 1113.95 235.24C1108.23 243.6 1099.87 250.2 1088.87 255.04C1078.09 259.66 1065.44 261.97 1050.92 261.97ZM1214.57 114.13V202.57C1214.57 208.73 1216 213.24 1218.86 216.1C1221.94 218.74 1227 220.06 1234.04 220.06H1255.49V259H1226.45C1187.51 259 1168.04 240.08 1168.04 202.24V114.13H1146.26V76.18H1168.04V30.97H1214.57V76.18H1255.49V114.13H1214.57Z"/>
</mask>
<g filter="url(#filter0_i_524_14)">
<path d="M323.66 28.66L259.31 259H204.86L161.63 94.99L116.42 259L62.3 259.33L0.260001 28.66H49.76L90.35 207.52L137.21 28.66H188.69L232.91 206.53L273.83 28.66H323.66ZM341.947 166.93C341.947 148.45 345.577 132.06 352.837 117.76C360.317 103.46 370.327 92.46 382.867 84.76C395.627 77.06 409.817 73.21 425.437 73.21C439.077 73.21 450.957 75.96 461.077 81.46C471.417 86.96 479.667 93.89 485.827 102.25V76.18H532.357V259H485.827V232.27C479.887 240.85 471.637 248 461.077 253.72C450.737 259.22 438.747 261.97 425.107 261.97C409.707 261.97 395.627 258.01 382.867 250.09C370.327 242.17 360.317 231.06 352.837 216.76C345.577 202.24 341.947 185.63 341.947 166.93ZM485.827 167.59C485.827 156.37 483.627 146.8 479.227 138.88C474.827 130.74 468.887 124.58 461.407 120.4C453.927 116 445.897 113.8 437.317 113.8C428.737 113.8 420.817 115.89 413.557 120.07C406.297 124.25 400.357 130.41 395.737 138.55C391.337 146.47 389.137 155.93 389.137 166.93C389.137 177.93 391.337 187.61 395.737 195.97C400.357 204.11 406.297 210.38 413.557 214.78C421.037 219.18 428.957 221.38 437.317 221.38C445.897 221.38 453.927 219.29 461.407 215.11C468.887 210.71 474.827 204.55 479.227 196.63C483.627 188.49 485.827 178.81 485.827 167.59ZM600.909 54.4C592.769 54.4 585.949 51.87 580.449 46.81C575.169 41.53 572.529 35.04 572.529 27.34C572.529 19.64 575.169 13.26 580.449 8.19998C585.949 2.91999 592.769 0.279987 600.909 0.279987C609.049 0.279987 615.759 2.91999 621.039 8.19998C626.539 13.26 629.289 19.64 629.289 27.34C629.289 35.04 626.539 41.53 621.039 46.81C615.759 51.87 609.049 54.4 600.909 54.4ZM623.679 76.18V259H577.479V76.18H623.679ZM723.115 114.13V202.57C723.115 208.73 724.545 213.24 727.405 216.1C730.485 218.74 735.545 220.06 742.585 220.06H764.035V259H734.995C696.055 259 676.585 240.08 676.585 202.24V114.13H654.805V76.18H676.585V30.97H723.115V76.18H764.035V114.13H723.115ZM843.464 14.8V259H797.264V14.8H843.464ZM912.54 54.4C904.4 54.4 897.58 51.87 892.08 46.81C886.8 41.53 884.16 35.04 884.16 27.34C884.16 19.64 886.8 13.26 892.08 8.19998C897.58 2.91999 904.4 0.279987 912.54 0.279987C920.68 0.279987 927.39 2.91999 932.67 8.19998C938.17 13.26 940.92 19.64 940.92 27.34C940.92 35.04 938.17 41.53 932.67 46.81C927.39 51.87 920.68 54.4 912.54 54.4ZM935.31 76.18V259H889.11V76.18H935.31ZM1050.92 261.97C1035.96 261.97 1022.54 259.33 1010.66 254.05C998.776 248.55 989.316 241.18 982.276 231.94C975.456 222.7 971.716 212.47 971.056 201.25H1017.59C1018.47 208.29 1021.88 214.12 1027.82 218.74C1033.98 223.36 1041.57 225.67 1050.59 225.67C1059.39 225.67 1066.21 223.91 1071.05 220.39C1076.11 216.87 1078.64 212.36 1078.64 206.86C1078.64 200.92 1075.56 196.52 1069.4 193.66C1063.46 190.58 1053.89 187.28 1040.69 183.76C1027.05 180.46 1015.83 177.05 1007.03 173.53C998.446 170.01 990.966 164.62 984.586 157.36C978.426 150.1 975.346 140.31 975.346 127.99C975.346 117.87 978.206 108.63 983.926 100.27C989.866 91.91 998.226 85.31 1009.01 80.47C1020.01 75.63 1032.88 73.21 1047.62 73.21C1069.4 73.21 1086.78 78.71 1099.76 89.71C1112.74 100.49 1119.89 115.12 1121.21 133.6H1076.99C1076.33 126.34 1073.25 120.62 1067.75 116.44C1062.47 112.04 1055.32 109.84 1046.3 109.84C1037.94 109.84 1031.45 111.38 1026.83 114.46C1022.43 117.54 1020.23 121.83 1020.23 127.33C1020.23 133.49 1023.31 138.22 1029.47 141.52C1035.63 144.6 1045.2 147.79 1058.18 151.09C1071.38 154.39 1082.27 157.8 1090.85 161.32C1099.43 164.84 1106.8 170.34 1112.96 177.82C1119.34 185.08 1122.64 194.76 1122.86 206.86C1122.86 217.42 1119.89 226.88 1113.95 235.24C1108.23 243.6 1099.87 250.2 1088.87 255.04C1078.09 259.66 1065.44 261.97 1050.92 261.97ZM1214.57 114.13V202.57C1214.57 208.73 1216 213.24 1218.86 216.1C1221.94 218.74 1227 220.06 1234.04 220.06H1255.49V259H1226.45C1187.51 259 1168.04 240.08 1168.04 202.24V114.13H1146.26V76.18H1168.04V30.97H1214.57V76.18H1255.49V114.13H1214.57Z" fill="white" fill-opacity="0.07"/>
</g>
<path d="M323.66 28.66L324.623 28.9291L324.978 27.66H323.66V28.66ZM259.31 259V260H260.069L260.273 259.269L259.31 259ZM204.86 259L203.893 259.255L204.089 260H204.86V259ZM161.63 94.99L162.597 94.7351L161.652 91.1485L160.666 94.7243L161.63 94.99ZM116.42 259L116.426 260L117.183 259.995L117.384 259.266L116.42 259ZM62.3 259.33L61.3343 259.59L61.5347 260.335L62.3061 260.33L62.3 259.33ZM0.260001 28.66V27.66H-1.04449L-0.705682 28.9197L0.260001 28.66ZM49.76 28.66L50.7352 28.4387L50.5585 27.66H49.76V28.66ZM90.35 207.52L89.3748 207.741L91.3174 207.773L90.35 207.52ZM137.21 28.66V27.66H136.438L136.243 28.4066L137.21 28.66ZM188.69 28.66L189.66 28.4187L189.472 27.66H188.69V28.66ZM232.91 206.53L231.94 206.771L233.885 206.754L232.91 206.53ZM273.83 28.66V27.66H273.034L272.855 28.4358L273.83 28.66ZM322.697 28.3909L258.347 258.731L260.273 259.269L324.623 28.9291L322.697 28.3909ZM259.31 258H204.86V260H259.31V258ZM205.827 258.745L162.597 94.7351L160.663 95.2449L203.893 259.255L205.827 258.745ZM160.666 94.7243L115.456 258.734L117.384 259.266L162.594 95.2557L160.666 94.7243ZM116.414 258L62.2939 258.33L62.3061 260.33L116.426 260L116.414 258ZM63.2657 259.07L1.22568 28.4003L-0.705682 28.9197L61.3343 259.59L63.2657 259.07ZM0.260001 29.66H49.76V27.66H0.260001V29.66ZM48.7848 28.8813L89.3748 207.741L91.3252 207.299L50.7352 28.4387L48.7848 28.8813ZM91.3174 207.773L138.177 28.9134L136.243 28.4066L89.3827 207.267L91.3174 207.773ZM137.21 29.66H188.69V27.66H137.21V29.66ZM187.72 28.9013L231.94 206.771L233.88 206.289L189.66 28.4187L187.72 28.9013ZM233.885 206.754L274.805 28.8842L272.855 28.4358L231.935 206.306L233.885 206.754ZM273.83 29.66H323.66V27.66H273.83V29.66ZM352.837 117.76L351.95 117.296L351.945 117.307L352.837 117.76ZM382.867 84.76L382.35 83.9038L382.343 83.9078L382.867 84.76ZM461.077 81.46L460.599 82.3386L460.607 82.3428L461.077 81.46ZM485.827 102.25L485.022 102.843L486.827 105.293V102.25H485.827ZM485.827 76.18V75.18H484.827V76.18H485.827ZM532.357 76.18H533.357V75.18H532.357V76.18ZM532.357 259V260H533.357V259H532.357ZM485.827 259H484.827V260H485.827V259ZM485.827 232.27H486.827V229.069L485.004 231.701L485.827 232.27ZM461.077 253.72L461.546 254.603L461.553 254.599L461.077 253.72ZM382.867 250.09L382.333 250.936L382.339 250.94L382.867 250.09ZM352.837 216.76L351.942 217.207L351.946 217.215L351.951 217.224L352.837 216.76ZM479.227 138.88L478.347 139.356L478.352 139.366L479.227 138.88ZM461.407 120.4L460.9 121.262L460.909 121.268L460.919 121.273L461.407 120.4ZM413.557 120.07L413.058 119.203L413.557 120.07ZM395.737 138.55L394.867 138.056L394.862 138.064L395.737 138.55ZM395.737 195.97L394.852 196.436L394.859 196.45L394.867 196.464L395.737 195.97ZM413.557 214.78L413.038 215.635L413.05 215.642L413.557 214.78ZM461.407 215.11L461.894 215.983L461.904 215.978L461.914 215.972L461.407 215.11ZM479.227 196.63L480.101 197.116L480.106 197.105L479.227 196.63ZM342.947 166.93C342.947 148.583 346.55 132.352 353.728 118.213L351.945 117.307C344.604 131.768 340.947 148.317 340.947 166.93H342.947ZM353.723 118.223C361.127 104.067 371.018 93.2087 383.39 85.6122L382.343 83.9078C369.635 91.7113 359.506 102.853 351.951 117.296L353.723 118.223ZM383.383 85.6162C395.98 78.0149 409.99 74.21 425.437 74.21V72.21C409.644 72.21 395.274 76.1051 382.35 83.9038L383.383 85.6162ZM425.437 74.21C438.941 74.21 450.651 76.9317 460.599 82.3386L461.554 80.5814C451.263 74.9882 439.213 72.21 425.437 72.21V74.21ZM460.607 82.3428C470.832 87.7816 478.961 94.6182 485.022 102.843L486.632 101.657C480.372 93.1618 472.001 86.1383 461.546 80.5771L460.607 82.3428ZM486.827 102.25V76.18H484.827V102.25H486.827ZM485.827 77.18H532.357V75.18H485.827V77.18ZM531.357 76.18V259H533.357V76.18H531.357ZM532.357 258H485.827V260H532.357V258ZM486.827 259V232.27H484.827V259H486.827ZM485.004 231.701C479.166 240.133 471.043 247.184 460.6 252.841L461.553 254.599C472.23 248.816 480.607 241.566 486.649 232.839L485.004 231.701ZM460.607 252.837C450.434 258.248 438.61 260.97 425.107 260.97V262.97C438.883 262.97 451.04 260.192 461.546 254.603L460.607 252.837ZM425.107 260.97C409.888 260.97 395.991 257.059 383.394 249.24L382.339 250.94C395.262 258.961 409.525 262.97 425.107 262.97V260.97ZM383.401 249.245C371.023 241.427 361.128 230.455 353.723 216.297L351.951 217.224C359.505 231.665 369.631 242.913 382.333 250.935L383.401 249.245ZM353.731 216.313C346.55 201.951 342.947 185.498 342.947 166.93H340.947C340.947 185.762 344.603 202.529 351.942 217.207L353.731 216.313ZM486.827 167.59C486.827 156.24 484.601 146.494 480.101 138.394L478.352 139.366C482.652 147.106 484.827 156.5 484.827 167.59H486.827ZM480.106 138.404C475.624 130.111 469.553 123.807 461.894 119.527L460.919 121.273C468.22 125.353 474.03 131.369 478.347 139.356L480.106 138.404ZM461.914 119.538C454.282 115.049 446.077 112.8 437.317 112.8V114.8C445.716 114.8 453.571 116.951 460.9 121.262L461.914 119.538ZM437.317 112.8C428.566 112.8 420.473 114.934 413.058 119.203L414.056 120.937C421.16 116.846 428.907 114.8 437.317 114.8V112.8ZM413.058 119.203C405.625 123.483 399.564 129.78 394.867 138.056L396.606 139.044C401.149 131.04 406.968 125.017 414.056 120.937L413.058 119.203ZM394.862 138.064C390.364 146.162 388.137 155.796 388.137 166.93H390.137C390.137 156.064 392.309 146.778 396.611 139.036L394.862 138.064ZM388.137 166.93C388.137 178.066 390.365 187.91 394.852 196.436L396.622 195.504C392.309 187.31 390.137 177.794 390.137 166.93H388.137ZM394.867 196.464C399.562 204.737 405.618 211.138 413.038 215.635L414.075 213.925C406.976 209.622 401.151 203.483 396.606 195.476L394.867 196.464ZM413.05 215.642C420.677 220.129 428.771 222.38 437.317 222.38V220.38C429.142 220.38 421.396 218.231 414.064 213.918L413.05 215.642ZM437.317 222.38C446.067 222.38 454.265 220.246 461.894 215.983L460.919 214.237C453.588 218.334 445.726 220.38 437.317 220.38V222.38ZM461.914 215.972C469.554 211.477 475.618 205.184 480.101 197.116L478.353 196.144C474.035 203.916 468.219 209.943 460.9 214.248L461.914 215.972ZM480.106 197.105C484.6 188.791 486.827 178.941 486.827 167.59H484.827C484.827 178.679 482.653 188.189 478.347 196.154L480.106 197.105ZM580.449 46.81L579.742 47.5171L579.757 47.5318L579.772 47.5459L580.449 46.81ZM580.449 8.19998L581.141 8.92197L581.142 8.92137L580.449 8.19998ZM621.039 8.19998L620.332 8.90709L620.347 8.92181L620.362 8.93591L621.039 8.19998ZM621.039 46.81L621.731 47.532L621.732 47.5314L621.039 46.81ZM623.679 76.18H624.679V75.18H623.679V76.18ZM623.679 259V260H624.679V259H623.679ZM577.479 259H576.479V260H577.479V259ZM577.479 76.18V75.18H576.479V76.18H577.479ZM600.909 53.4C592.995 53.4 586.424 50.9485 581.126 46.0741L579.772 47.5459C585.474 52.7915 592.542 55.4 600.909 55.4V53.4ZM581.156 46.1029C576.07 41.0169 573.529 34.784 573.529 27.34H571.529C571.529 35.2959 574.268 42.0431 579.742 47.5171L581.156 46.1029ZM573.529 27.34C573.529 19.8964 576.069 13.7825 581.141 8.92197L579.757 7.478C574.269 12.7375 571.529 19.3835 571.529 27.34H573.529ZM581.142 8.92137C586.442 3.83304 593.008 1.27998 600.909 1.27998V-0.720016C592.53 -0.720016 585.456 2.00694 579.756 7.4786L581.142 8.92137ZM600.909 1.27998C608.81 1.27998 615.257 3.83246 620.332 8.90709L621.746 7.49287C616.261 2.00751 609.288 -0.720016 600.909 -0.720016V1.27998ZM620.362 8.93591C625.649 13.8001 628.289 19.9101 628.289 27.34H630.289C630.289 19.3699 627.429 12.7198 621.716 7.46405L620.362 8.93591ZM628.289 27.34C628.289 34.7708 625.648 40.9993 620.346 46.0886L621.732 47.5314C627.43 42.0607 630.289 35.3092 630.289 27.34H628.289ZM620.347 46.088C615.275 50.9488 608.823 53.4 600.909 53.4V55.4C609.275 55.4 616.243 52.7912 621.731 47.532L620.347 46.088ZM622.679 76.18V259H624.679V76.18H622.679ZM623.679 258H577.479V260H623.679V258ZM578.479 259V76.18H576.479V259H578.479ZM577.479 77.18H623.679V75.18H577.479V77.18ZM723.115 114.13V113.13H722.115V114.13H723.115ZM727.405 216.1L726.698 216.807L726.725 216.834L726.754 216.859L727.405 216.1ZM764.035 220.06H765.035V219.06H764.035V220.06ZM764.035 259V260H765.035V259H764.035ZM676.585 114.13H677.585V113.13H676.585V114.13ZM654.805 114.13H653.805V115.13H654.805V114.13ZM654.805 76.18V75.18H653.805V76.18H654.805ZM676.585 76.18V77.18H677.585V76.18H676.585ZM676.585 30.97V29.97H675.585V30.97H676.585ZM723.115 30.97H724.115V29.97H723.115V30.97ZM723.115 76.18H722.115V77.18H723.115V76.18ZM764.035 76.18H765.035V75.18H764.035V76.18ZM764.035 114.13V115.13H765.035V114.13H764.035ZM722.115 114.13V202.57H724.115V114.13H722.115ZM722.115 202.57C722.115 208.859 723.572 213.681 726.698 216.807L728.112 215.393C725.518 212.799 724.115 208.601 724.115 202.57H722.115ZM726.754 216.859C730.108 219.734 735.466 221.06 742.585 221.06V219.06C735.624 219.06 730.862 217.746 728.055 215.341L726.754 216.859ZM742.585 221.06H764.035V219.06H742.585V221.06ZM763.035 220.06V259H765.035V220.06H763.035ZM764.035 258H734.995V260H764.035V258ZM734.995 258C715.672 258 701.365 253.305 691.884 244.093C682.409 234.885 677.585 220.998 677.585 202.24H675.585C675.585 221.322 680.495 235.815 690.49 245.527C700.48 255.234 715.378 260 734.995 260V258ZM677.585 202.24V114.13H675.585V202.24H677.585ZM676.585 113.13H654.805V115.13H676.585V113.13ZM655.805 114.13V76.18H653.805V114.13H655.805ZM654.805 77.18H676.585V75.18H654.805V77.18ZM677.585 76.18V30.97H675.585V76.18H677.585ZM676.585 31.97H723.115V29.97H676.585V31.97ZM722.115 30.97V76.18H724.115V30.97H722.115ZM723.115 77.18H764.035V75.18H723.115V77.18ZM763.035 76.18V114.13H765.035V76.18H763.035ZM764.035 113.13H723.115V115.13H764.035V113.13ZM843.464 14.8H844.464V13.8H843.464V14.8ZM843.464 259V260H844.464V259H843.464ZM797.264 259H796.264V260H797.264V259ZM797.264 14.8V13.8H796.264V14.8H797.264ZM842.464 14.8V259H844.464V14.8H842.464ZM843.464 258H797.264V260H843.464V258ZM798.264 259V14.8H796.264V259H798.264ZM797.264 15.8H843.464V13.8H797.264V15.8ZM892.08 46.81L891.373 47.5171L891.387 47.5318L891.403 47.5459L892.08 46.81ZM892.08 8.19998L892.772 8.92197L892.772 8.92137L892.08 8.19998ZM932.67 8.19998L931.963 8.90709L931.977 8.92181L931.993 8.93591L932.67 8.19998ZM932.67 46.81L933.362 47.532L933.362 47.5314L932.67 46.81ZM935.31 76.18H936.31V75.18H935.31V76.18ZM935.31 259V260H936.31V259H935.31ZM889.11 259H888.11V260H889.11V259ZM889.11 76.18V75.18H888.11V76.18H889.11ZM912.54 53.4C904.626 53.4 898.055 50.9485 892.757 46.0741L891.403 47.5459C897.105 52.7915 904.173 55.4 912.54 55.4V53.4ZM892.787 46.1029C887.701 41.0169 885.16 34.784 885.16 27.34H883.16C883.16 35.2959 885.899 42.0431 891.373 47.5171L892.787 46.1029ZM885.16 27.34C885.16 19.8964 887.7 13.7825 892.772 8.92197L891.388 7.478C885.9 12.7375 883.16 19.3835 883.16 27.34H885.16ZM892.772 8.92137C898.073 3.83304 904.639 1.27998 912.54 1.27998V-0.720016C904.161 -0.720016 897.087 2.00694 891.387 7.4786L892.772 8.92137ZM912.54 1.27998C920.441 1.27998 926.888 3.83246 931.963 8.90709L933.377 7.49287C927.892 2.00751 920.919 -0.720016 912.54 -0.720016V1.27998ZM931.993 8.93591C937.28 13.8001 939.92 19.9101 939.92 27.34H941.92C941.92 19.3699 939.06 12.7198 933.347 7.46405L931.993 8.93591ZM939.92 27.34C939.92 34.7708 937.279 40.9993 931.977 46.0886L933.362 47.5314C939.061 42.0607 941.92 35.3092 941.92 27.34H939.92ZM931.978 46.088C926.906 50.9488 920.454 53.4 912.54 53.4V55.4C920.906 55.4 927.874 52.7912 933.362 47.532L931.978 46.088ZM934.31 76.18V259H936.31V76.18H934.31ZM935.31 258H889.11V260H935.31V258ZM890.11 259V76.18H888.11V259H890.11ZM889.11 77.18H935.31V75.18H889.11V77.18ZM1010.66 254.05L1010.24 254.957L1010.24 254.961L1010.25 254.964L1010.66 254.05ZM982.276 231.94L981.471 232.534L981.476 232.54L981.48 232.546L982.276 231.94ZM971.056 201.25V200.25H969.995L970.057 201.309L971.056 201.25ZM1017.59 201.25L1018.58 201.126L1018.47 200.25H1017.59V201.25ZM1027.82 218.74L1027.2 219.529L1027.21 219.535L1027.22 219.54L1027.82 218.74ZM1071.05 220.39L1070.47 219.569L1070.47 219.575L1070.46 219.581L1071.05 220.39ZM1069.4 193.66L1068.94 194.548L1068.95 194.558L1068.97 194.567L1069.4 193.66ZM1040.69 183.76L1040.94 182.794L1040.93 182.791L1040.92 182.788L1040.69 183.76ZM1007.03 173.53L1006.65 174.455L1006.65 174.458L1007.03 173.53ZM984.586 157.36L983.823 158.007L983.829 158.014L983.834 158.02L984.586 157.36ZM983.926 100.27L983.11 99.6908L983.105 99.698L983.1 99.7053L983.926 100.27ZM1009.01 80.47L1008.6 79.5547L1008.6 79.5577L1009.01 80.47ZM1099.76 89.71L1099.11 90.4729L1099.12 90.4793L1099.76 89.71ZM1121.21 133.6V134.6H1122.28L1122.2 133.529L1121.21 133.6ZM1076.99 133.6L1075.99 133.691L1076.07 134.6H1076.99V133.6ZM1067.75 116.44L1067.11 117.208L1067.12 117.223L1067.14 117.236L1067.75 116.44ZM1026.83 114.46L1026.27 113.628L1026.26 113.634L1026.25 113.641L1026.83 114.46ZM1029.47 141.52L1028.99 142.401L1029.01 142.408L1029.02 142.414L1029.47 141.52ZM1058.18 151.09L1057.93 152.059L1057.93 152.06L1058.18 151.09ZM1112.96 177.82L1112.18 178.456L1112.19 178.468L1112.2 178.48L1112.96 177.82ZM1122.86 206.86H1123.86V206.851L1123.86 206.842L1122.86 206.86ZM1113.95 235.24L1113.13 234.661L1113.13 234.668L1113.12 234.675L1113.95 235.24ZM1088.87 255.04L1089.26 255.959L1089.27 255.955L1088.87 255.04ZM1050.92 260.97C1036.07 260.97 1022.8 258.351 1011.06 253.136L1010.25 254.964C1022.28 260.309 1035.84 262.97 1050.92 262.97V260.97ZM1011.08 253.143C999.324 247.702 990 240.429 983.071 231.334L981.48 232.546C988.631 241.931 998.227 249.398 1010.24 254.957L1011.08 253.143ZM983.08 231.346C976.372 222.258 972.702 212.213 972.054 201.191L970.057 201.309C970.729 212.727 974.539 223.142 981.471 232.534L983.08 231.346ZM971.056 202.25H1017.59V200.25H971.056V202.25ZM1016.59 201.374C1017.51 208.694 1021.07 214.757 1027.2 219.529L1028.43 217.951C1022.68 213.483 1019.42 207.886 1018.58 201.126L1016.59 201.374ZM1027.22 219.54C1033.58 224.311 1041.39 226.67 1050.59 226.67V224.67C1041.74 224.67 1034.37 222.409 1028.42 217.94L1027.22 219.54ZM1050.59 226.67C1059.5 226.67 1066.56 224.889 1071.63 221.199L1070.46 219.581C1065.85 222.931 1059.27 224.67 1050.59 224.67V226.67ZM1071.62 221.211C1076.91 217.53 1079.64 212.731 1079.64 206.86H1077.64C1077.64 211.989 1075.3 216.21 1070.47 219.569L1071.62 221.211ZM1079.64 206.86C1079.64 203.708 1078.81 200.917 1077.14 198.532C1075.48 196.154 1073.01 194.238 1069.82 192.753L1068.97 194.567C1071.94 195.942 1074.09 197.656 1075.51 199.678C1076.92 201.693 1077.64 204.072 1077.64 206.86H1079.64ZM1069.86 192.772C1063.81 189.64 1054.16 186.317 1040.94 182.794L1040.43 184.726C1053.61 188.243 1063.1 191.52 1068.94 194.548L1069.86 192.772ZM1040.92 182.788C1027.31 179.494 1016.14 176.098 1007.4 172.602L1006.65 174.458C1015.51 178.002 1026.78 181.426 1040.45 184.732L1040.92 182.788ZM1007.41 172.605C998.974 169.146 991.619 163.849 985.337 156.7L983.834 158.02C990.312 165.391 997.917 170.874 1006.65 174.455L1007.41 172.605ZM985.348 156.713C979.382 149.681 976.346 140.144 976.346 127.99H974.346C974.346 140.476 977.469 150.519 983.823 158.007L985.348 156.713ZM976.346 127.99C976.346 118.072 979.145 109.029 984.751 100.835L983.1 99.7053C977.267 108.231 974.346 117.668 974.346 127.99H976.346ZM984.741 100.849C990.563 92.6552 998.772 86.1606 1009.42 81.3823L1008.6 79.5577C997.679 84.4594 989.168 91.1647 983.11 99.6908L984.741 100.849ZM1009.41 81.3853C1020.26 76.6123 1032.98 74.21 1047.62 74.21V72.21C1032.77 72.21 1019.76 74.6477 1008.6 79.5547L1009.41 81.3853ZM1047.62 74.21C1069.23 74.21 1086.36 79.6648 1099.11 90.4729L1100.4 88.9471C1087.2 77.7552 1069.56 72.21 1047.62 72.21V74.21ZM1099.12 90.4793C1111.87 101.067 1118.91 115.434 1120.21 133.671L1122.2 133.529C1120.87 114.806 1113.61 99.9128 1100.39 88.9407L1099.12 90.4793ZM1121.21 132.6H1076.99V134.6H1121.21V132.6ZM1077.98 133.509C1077.3 125.987 1074.09 120.004 1068.35 115.644L1067.14 117.236C1072.4 121.236 1075.35 126.693 1075.99 133.691L1077.98 133.509ZM1068.39 115.672C1062.88 111.081 1055.48 108.84 1046.3 108.84V110.84C1055.16 110.84 1062.05 112.999 1067.11 117.208L1068.39 115.672ZM1046.3 108.84C1037.83 108.84 1031.12 110.396 1026.27 113.628L1027.38 115.292C1031.77 112.364 1038.04 110.84 1046.3 110.84V108.84ZM1026.25 113.641C1021.58 116.913 1019.23 121.513 1019.23 127.33H1021.23C1021.23 122.147 1023.27 118.167 1027.4 115.279L1026.25 113.641ZM1019.23 127.33C1019.23 130.585 1020.04 133.501 1021.7 136.043C1023.35 138.579 1025.8 140.691 1028.99 142.401L1029.94 140.639C1026.97 139.049 1024.8 137.146 1023.37 134.952C1021.95 132.764 1021.23 130.235 1021.23 127.33H1019.23ZM1029.02 142.414C1035.28 145.544 1044.93 148.755 1057.93 152.059L1058.42 150.121C1045.46 146.825 1035.97 143.656 1029.91 140.626L1029.02 142.414ZM1057.93 152.06C1071.11 155.353 1081.95 158.75 1090.47 162.245L1091.23 160.395C1082.59 156.85 1071.65 153.427 1058.42 150.12L1057.93 152.06ZM1090.47 162.245C1098.89 165.7 1106.12 171.097 1112.18 178.456L1113.73 177.184C1107.47 169.583 1099.96 163.98 1091.23 160.395L1090.47 162.245ZM1112.2 178.48C1118.39 185.521 1121.64 194.953 1121.86 206.878L1123.86 206.842C1123.63 194.567 1120.28 184.639 1113.71 177.16L1112.2 178.48ZM1121.86 206.86C1121.86 217.219 1118.95 226.475 1113.13 234.661L1114.76 235.819C1120.82 227.285 1123.86 217.621 1123.86 206.86H1121.86ZM1113.12 234.675C1107.52 242.855 1099.32 249.346 1088.46 254.125L1089.27 255.955C1100.41 251.054 1108.93 244.345 1114.77 235.805L1113.12 234.675ZM1088.47 254.121C1077.84 258.676 1065.33 260.97 1050.92 260.97V262.97C1065.54 262.97 1078.33 260.644 1089.26 255.959L1088.47 254.121ZM1214.57 114.13V113.13H1213.57V114.13H1214.57ZM1218.86 216.1L1218.15 216.807L1218.18 216.834L1218.21 216.859L1218.86 216.1ZM1255.49 220.06H1256.49V219.06H1255.49V220.06ZM1255.49 259V260H1256.49V259H1255.49ZM1168.04 114.13H1169.04V113.13H1168.04V114.13ZM1146.26 114.13H1145.26V115.13H1146.26V114.13ZM1146.26 76.18V75.18H1145.26V76.18H1146.26ZM1168.04 76.18V77.18H1169.04V76.18H1168.04ZM1168.04 30.97V29.97H1167.04V30.97H1168.04ZM1214.57 30.97H1215.57V29.97H1214.57V30.97ZM1214.57 76.18H1213.57V77.18H1214.57V76.18ZM1255.49 76.18H1256.49V75.18H1255.49V76.18ZM1255.49 114.13V115.13H1256.49V114.13H1255.49ZM1213.57 114.13V202.57H1215.57V114.13H1213.57ZM1213.57 202.57C1213.57 208.859 1215.03 213.681 1218.15 216.807L1219.57 215.393C1216.97 212.799 1215.57 208.601 1215.57 202.57H1213.57ZM1218.21 216.859C1221.56 219.734 1226.92 221.06 1234.04 221.06V219.06C1227.08 219.06 1222.32 217.746 1219.51 215.341L1218.21 216.859ZM1234.04 221.06H1255.49V219.06H1234.04V221.06ZM1254.49 220.06V259H1256.49V220.06H1254.49ZM1255.49 258H1226.45V260H1255.49V258ZM1226.45 258C1207.13 258 1192.82 253.305 1183.34 244.093C1173.86 234.885 1169.04 220.998 1169.04 202.24H1167.04C1167.04 221.322 1171.95 235.815 1181.95 245.527C1191.93 255.234 1206.83 260 1226.45 260V258ZM1169.04 202.24V114.13H1167.04V202.24H1169.04ZM1168.04 113.13H1146.26V115.13H1168.04V113.13ZM1147.26 114.13V76.18H1145.26V114.13H1147.26ZM1146.26 77.18H1168.04V75.18H1146.26V77.18ZM1169.04 76.18V30.97H1167.04V76.18H1169.04ZM1168.04 31.97H1214.57V29.97H1168.04V31.97ZM1213.57 30.97V76.18H1215.57V30.97H1213.57ZM1214.57 77.18H1255.49V75.18H1214.57V77.18ZM1254.49 76.18V114.13H1256.49V76.18H1254.49ZM1255.49 113.13H1214.57V115.13H1255.49V113.13Z" fill="white" mask="url(#path-1-outside-1_524_14)"/>
<defs>
<filter id="filter0_i_524_14" x="0.26001" y="0.280029" width="1255.23" height="277.69" filterUnits="userSpaceOnUse" color-interpolation-filters="sRGB">
<feFlood flood-opacity="0" result="BackgroundImageFix"/>
<feBlend mode="normal" in="SourceGraphic" in2="BackgroundImageFix" result="shape"/>
<feColorMatrix in="SourceAlpha" type="matrix" values="0 0 0 0 0 0 0 0 0 0 0 0 0 0 0 0 0 0 127 0" result="hardAlpha"/>
<feMorphology radius="4" operator="dilate" in="SourceAlpha" result="effect1_innerShadow_524_14"/>
<feOffset dy="16"/>
<feGaussianBlur stdDeviation="16"/>
<feComposite in2="hardAlpha" operator="arithmetic" k2="-1" k3="1"/>
<feColorMatrix type="matrix" values="0 0 0 0 1 0 0 0 0 1 0 0 0 0 1 0 0 0 0.1 0"/>
<feBlend mode="normal" in2="shape" result="effect1_innerShadow_524_14"/>
</filter>
</defs>
</svg>
